<svg width="100" height="100" viewBox="0 0 100 100" fill="none" xmlns="http://www.w3.org/2000/svg">
<circle cx="50" cy="50" r="50" fill="white"/>
<path d="M49.2416 28.3837L32.3736 38.7871L32.4284 58.4093L49.8948 67.0816L66.2192 57.2248L66.1674 38.6927L49.2416 28.3837Z" fill="#FEFEFE"/>
<path fill-rule="evenodd" clip-rule="evenodd" d="M38.1321 36.1119C38.6439 35.5315 46.1293 31.4962 47.6328 30.5154C48.434 29.9928 48.1026 29.0819 49.6464 29.2702C50.2344 29.3418 50.9484 29.7602 50.5089 30.4387C50.1673 30.9658 49.4676 30.7245 48.8037 30.983C46.7343 31.7876 42.2394 34.8466 40.1086 36.1064C40.6062 36.9426 41.3632 36.6597 42.275 36.9728C43.2976 37.3244 42.9607 38.35 41.8585 38.454C40.2208 38.6084 40.6506 37.8207 39.9834 37.3058C39.5646 36.982 38.3543 36.5865 38.1321 36.1119V36.1119ZM31.5246 37.7109L33.373 38.7791C33.7729 38.4623 35.758 37.3827 36.2841 37.1766C37.0516 37.3446 37.5556 37.8777 38.2693 38.1867C39.196 38.5881 40.1631 38.1205 40.2378 39.3346C39.9395 39.8968 39.4877 40.0673 38.722 39.966C37.4381 39.7957 37.383 37.9101 35.9829 38.4592C35.5986 38.6101 34.6303 39.1252 34.3979 39.3715L38.6502 41.8294L45.6603 37.6352C44.4566 36.6329 43.0355 37.1117 42.9063 36.2389C43.0715 35.0798 44.857 35.0347 45.3831 35.9292C46.0898 37.1314 46.7421 36.7147 47.616 37.6298C47.4082 37.955 47.5919 37.7403 47.2587 37.9789L39.5991 42.3776L46.4437 46.3339C47.2117 45.9417 50.6373 44.1524 50.9437 43.6568C50.5557 43.3439 47.159 41.3776 46.8974 41.3633C46.6573 41.3508 46.1074 41.6405 45.8935 41.7976C45.3129 42.2237 45.651 42.3573 45.1665 42.755C43.9364 43.7638 41.3999 41.8537 44.2454 41.3751C44.839 41.2753 45.1285 41.1047 45.6101 40.8135C47.3709 39.7492 46.8261 40.1787 50.5758 42.2325L52.9338 43.826L47.6585 47.0358L49.4533 48.073L56.5559 43.9399C56.0847 43.4474 53.5295 42.0853 52.7203 41.6184C52.0225 41.2154 49.0087 39.6119 48.6604 39.1708C48.956 38.6215 50.4121 38.0073 51.0002 37.6584C51.8062 37.1803 52.6872 36.6072 53.5103 36.2707C53.0553 35.2051 51.631 35.5792 50.7838 35.0089L50.7693 34.1931C51.8392 33.6639 52.6863 33.4539 53.3127 34.5359C53.7549 35.2999 54.8615 35.4617 55.4519 36.0636C55.2497 36.4893 53.551 37.3476 53.0694 37.6248C52.4793 37.9643 50.9477 38.731 50.6045 39.1654C50.7739 39.3888 56.9878 43.096 57.5976 43.3334L59.2548 42.3692C59.0208 41.9623 55.4274 40.0629 54.6537 39.941C52.1978 39.5542 53.7802 37.8612 55.3129 38.4296C56.0268 38.6943 55.7059 39.169 56.6739 39.7367L60.1946 41.8223L61.8795 40.8417C61.567 40.4497 58.0195 38.568 57.6326 38.473C56.6337 38.2274 56.8706 38.6293 56.0108 37.9137C55.9844 36.981 56.6292 36.6953 57.6105 36.8418C58.7449 37.0111 58.2029 37.5581 59.2077 38.1611L62.8749 40.2291L64.5002 39.3166C63.437 38.4926 57.8342 35.5658 56.113 34.5293C55.5983 34.2195 52.2534 32.258 52.043 32.2427C51.7929 32.2245 48.4299 34.196 47.9409 34.5402C48.7225 35.8631 50.2155 34.7451 50.6947 36.0768C50.4346 37.1642 48.7944 37.2514 48.2011 36.3246C47.8273 35.7407 47.8872 35.7846 47.1578 35.4069C46.6621 35.1507 46.1517 34.9541 45.9562 34.5458C46.3652 34.1891 47.7983 33.4191 48.2975 33.1411C53.0386 30.5013 50.8997 30.4044 55.6943 33.124L65.4945 38.7489L67.3369 37.6654L49.526 27.2929L31.5246 37.7109Z" fill="#F9C309"/>
<path fill-rule="evenodd" clip-rule="evenodd" d="M62.9118 58.8063C61.0046 59.8811 59.0288 61.0784 57.07 62.1994C56.053 62.7813 55.1067 63.2932 54.139 63.8915C53.6077 64.2196 53.1249 64.4202 52.8083 64.8019C52.3301 65.3782 52.3252 65.864 51.2978 65.6855C51.0044 65.1581 51.0006 64.7088 51.3842 64.0836C51.9021 63.2395 52.0845 63.6267 53.0529 63.3616L61.9186 58.2483C61.9575 57.8658 62.0141 57.3358 61.9454 56.9586C61.8096 56.2105 61.6023 56.6097 61.526 55.9679C61.4414 55.2576 62.0755 54.3604 62.6386 54.2839C63.9235 54.1095 63.1697 55.6364 63.0337 56.1007C62.8401 56.7622 63.0354 57.9826 62.9118 58.8063ZM59.0754 58.0152C59.0154 57.9264 58.994 57.9621 58.933 57.7338C58.8052 57.2562 58.9417 57.0794 59.1142 56.684C59.4266 55.9692 59.3212 55.8395 59.2981 55.0009C59.2507 53.2949 59.4868 53.5373 60.7469 52.8516C61.704 52.331 64.7361 50.3293 65.5375 50.1951C65.5673 51.7572 65.4259 53.7899 65.5622 55.2732C65.6477 56.2021 66.4197 55.9834 65.8322 57.2283C65.1628 58.6458 63.5952 58.3385 64.3168 56.7013C64.7784 55.654 64.5983 53.1058 64.516 51.9163C64.1569 51.96 60.7591 53.8988 60.5184 54.1771C59.7424 55.0745 60.8277 55.8953 60.777 56.6624C60.7238 57.4647 59.9539 58.4489 59.0754 58.0152ZM57.3389 50.5392C56.5003 50.6789 56.5605 50.4048 55.8728 50.7815C55.3549 51.0655 52.5772 52.647 52.4946 52.8591L52.4834 60.5926C52.8937 60.5092 56.3422 58.5361 56.6723 58.137C57.0951 56.6638 56.1843 56.7045 56.2935 55.7289C56.4749 54.1097 58.4909 53.7569 58.0894 55.367C57.9966 55.7393 57.818 55.8741 57.7472 56.2925C57.2301 59.3465 59.2145 58.038 54.6307 60.6065C53.9817 60.9705 52.0695 62.2585 51.5184 62.2656L51.4545 52.2675C52.1129 51.6657 54.7591 50.3153 55.78 49.7115C56.7404 49.1438 56.7429 48.0644 57.6572 48.3037C58.1496 48.4326 58.1827 48.9584 58.0392 49.4413C57.8873 49.9511 57.592 50.1181 57.3389 50.5392ZM65.4949 38.749L65.4528 48.1413L61.9029 50.1223L61.8793 40.8416L60.1945 41.8222C60.0168 43.3663 60.5519 50.5064 60.2199 51.145C59.7677 51.7962 56.0014 53.62 55.1059 54.3377C54.8599 56.5721 55.8506 55.6721 55.4517 57.0653C55.1885 57.9836 54.459 58.4201 53.7332 57.9187C53.4688 56.8028 54 56.9062 54.0864 56.0003C54.2666 54.1116 53.5738 53.949 54.8497 53.2617L56.7139 52.185C57.3103 51.8439 58.8678 51.0195 59.293 50.6521L59.2547 42.369L57.5975 43.3333L57.6091 46.6474C57.5171 46.9325 54.805 48.3916 54.3159 48.6702C53.7821 48.9744 53.0425 49.3595 52.7299 49.7473C52.4081 50.1461 52.0068 51.0287 51.3038 50.5166C50.6873 50.0471 51.1139 49.1084 51.5354 48.6888C52.2321 47.9951 52.4404 48.6697 53.4236 48.0574L56.5601 46.0836L56.5553 43.9397L49.4527 48.0728L49.4655 68.7179L67.3943 58.4484C67.3943 58.4484 67.3851 53.7304 67.3768 52.1553C67.3649 49.9836 67.4283 47.3243 67.3572 45.1621L67.3363 37.6654L65.4949 38.749Z" fill="#F76200"/>
<path fill-rule="evenodd" clip-rule="evenodd" d="M37.051 58.302C37.9665 58.8273 43.2798 62.0149 43.8694 62.0729L43.8575 57.4337C42.6704 56.285 42.4862 56.9836 41.6705 56.5716C41.1338 56.3009 40.3969 55.1679 41.0699 54.4649C42.0292 54.0175 42.3071 55.1578 42.8118 55.5664C43.3111 55.9705 44.2635 56.3598 44.8217 56.7535L44.869 63.7673C43.9678 63.7333 37.5454 59.5013 36.0516 58.8857C35.7852 56.6945 36.3109 54.0903 35.7731 52.8173C34.9472 50.8625 36.8445 51.0097 37.3366 52.3703C37.6953 53.3612 37.2076 53.3486 37.0535 53.9711C36.9487 54.3941 36.9914 57.7371 37.051 58.302ZM34.4261 56.17C34.5007 56.6712 34.7126 56.7655 34.8015 57.2136C35.0415 58.4229 33.916 58.325 33.4082 57.7397C32.4657 56.6541 33.1744 56.3271 33.352 55.6C33.5486 54.7957 33.1998 48.9915 33.4182 47.2519C33.8533 47.3353 39.166 50.4087 39.6243 50.7774L39.6915 56.7436C40.8753 57.7322 41.2465 57.1398 41.9312 57.5757C42.5497 57.9696 42.8379 58.8787 42.4759 59.6596C41.2235 59.9032 41.2757 58.9514 40.5336 58.4278C38.0344 56.664 38.6476 59.031 38.574 51.2563L34.4 48.9493L34.4261 56.17ZM45.1769 55.0902C43.9712 55.4975 43.9271 54.4712 43.1791 53.9252C42.6225 53.5192 41.3992 53.183 41.2649 52.5055L41.2287 45.7879C42.1476 45.7924 42.6781 46.8324 43.8979 46.8523C44.9658 46.8694 45.4908 47.9782 45.1931 49.0701C43.448 49.4981 44.4076 48.1259 42.2413 47.4435L42.3314 52.2439C43.5062 53.21 43.6997 52.6191 44.4912 53.0102C45.2038 53.3624 45.3992 54.2993 45.1769 55.0902ZM31.4477 58.49L49.4662 68.718L49.4534 48.0729L47.6586 47.0357C47.6425 47.8844 47.3735 63.1998 47.5384 63.8593C47.7401 64.6652 48.2048 64.8128 47.6886 65.6933C46.8024 65.8288 46.3462 65.322 46.1148 64.6038C45.7867 63.5856 46.4752 63.8161 46.4902 62.625L46.4438 46.3338L39.5992 42.3776L39.6172 48.7043L33.3983 45.2115L33.3733 38.7791L31.5249 37.7108L31.4863 48.1004L31.4477 58.49Z" fill="#FD8C0A"/>
<path fill-rule="evenodd" clip-rule="evenodd" d="M38.6531 47.0644L38.6503 41.8292L34.398 39.3713L34.4093 44.6452L38.6531 47.0644Z" fill="#FD8C0A"/>
<path fill-rule="evenodd" clip-rule="evenodd" d="M62.8751 40.2291L62.8986 48.4377L64.4877 47.5863L64.5004 39.3165L62.8751 40.2291Z" fill="#F76200"/>
<path d="M78.9234 24.2795C66.2496 22.792 59.4865 20.8756 49.6072 15.4609V27.4802L67.3584 37.8731V58.2423L49.6072 68.3575L31.7686 58.224L49.6072 76.2315V86.0096C65.3641 76.2956 80.054 64.0649 78.9234 24.2795Z" fill="#07203D"/>
<path d="M20.4128 24.2795C33.3854 22.7325 40.6868 20.1394 49.6116 15.4609V27.4802L31.8015 37.8731V58.2423L49.6116 76.2315V86.0096C27.7984 72.7 19.6175 57.7085 20.4128 24.2795Z" fill="#0D3B6F"/>
</svg>
