<svg width="30" height="30" viewBox="0 0 30 30" fill="none" xmlns="http://www.w3.org/2000/svg">
<path d="M9.17376 12.6062L15 6.78L20.829 12.6088L24.219 9.21876L15 0L5.784 9.216L9.17388 12.606L9.17376 12.6062ZM0 15L3.39012 11.6094L6.78 14.9993L3.38988 18.3894L0 15ZM9.17376 17.3941L15 23.22L20.8289 17.3914L24.2207 20.7796L24.219 20.7814L15 30L5.784 20.784L5.7792 20.7792L9.17412 17.3938L9.17376 17.3941ZM23.22 15.0014L26.6101 11.6113L30 15.0012L26.61 18.3913L23.22 15.0014Z" fill="#F3BA2F"/>
<path d="M18.4386 14.998H18.44L15.0003 11.5581L12.4579 14.0998L12.1658 14.392L11.5634 14.9946L11.5586 14.9992L11.5634 15.0042L15.0003 18.4416L18.4402 15.0016L18.4419 14.9997L18.4388 14.998" fill="#F3BA2F"/>
</svg>
