<svg width="30" height="30" viewBox="0 0 30 30" fill="none" xmlns="http://www.w3.org/2000/svg">
<circle cx="15" cy="15" r="15" fill="white"/>
<path d="M23.9814 6.93745C20.1138 6.47569 18.0499 5.88078 15.0351 4.19995V7.93102L20.4522 11.1572V17.4803L15.0351 20.6203L9.6001 17.4747L15.0351 23.0646V26.1C19.8436 23.0845 24.3264 19.2878 23.9814 6.93745Z" fill="#102A85"/>
<path d="M6.01614 6.93745C10.0075 6.45722 12.254 5.65226 15 4.19995V7.93102L9.52019 11.1572V17.4803L15 23.0646V26.1C8.28852 21.9683 5.77144 17.3146 6.01614 6.93745Z" fill="#1C3BA9"/>
<path fill-rule="evenodd" clip-rule="evenodd" d="M19.4912 11.7842L19.4914 14.3273L19.9933 14.065L20.0045 11.5029L19.4912 11.7842Z" fill="#F76200"/>
<path fill-rule="evenodd" clip-rule="evenodd" d="M11.6927 10.4872C11.8546 10.3078 14.2185 9.06409 14.6935 8.76153C14.9466 8.60034 14.8429 8.31782 15.3296 8.37751C15.5149 8.40021 15.7397 8.53049 15.6005 8.74027C15.4923 8.90332 15.2719 8.8279 15.0623 8.90742C14.4091 9.15491 12.989 10.0988 12.3159 10.4872C12.4721 10.7467 12.7111 10.6597 12.9983 10.7575C13.3205 10.8673 13.2133 11.1848 12.8657 11.216C12.3491 11.2624 12.4853 11.0187 12.2754 10.8587C12.1436 10.758 11.7623 10.6344 11.6927 10.4872V10.4872ZM9.60767 10.9768L10.1896 11.3094C10.316 11.2116 10.9429 10.8788 11.109 10.8154C11.3508 10.8681 11.5093 11.0338 11.7341 11.1301C12.026 11.2553 12.3313 11.1112 12.3538 11.4874C12.2593 11.6614 12.1167 11.7138 11.8753 11.6817C11.4706 11.6279 11.4549 11.0436 11.0129 11.2125C10.8916 11.2589 10.5858 11.4177 10.5123 11.4938L11.851 12.259L14.0653 10.9656C13.6866 10.654 13.238 10.8012 13.198 10.5306C13.2511 10.1717 13.8142 10.1593 13.9794 10.4369C14.2011 10.8099 14.4072 10.6814 14.682 10.9656C14.6162 11.0662 14.6743 10.9998 14.569 11.0735L12.1498 12.4296L14.3046 13.6612C14.5471 13.5404 15.6289 12.989 15.726 12.8357C15.6039 12.7384 14.5345 12.1263 14.4521 12.1217C14.3764 12.1176 14.2027 12.2069 14.1351 12.2554C13.9517 12.3869 14.0582 12.4286 13.905 12.5514C13.5162 12.8629 12.718 12.2688 13.6158 12.1231C13.8031 12.0926 13.8945 12.04 14.0466 11.9503C14.6028 11.622 14.4306 11.7547 15.6112 12.3942L16.3534 12.8899L14.6871 13.8797L15.2521 14.2026L17.4955 12.9283C17.3473 12.7753 16.5428 12.3511 16.288 12.2058C16.0683 12.0803 15.1194 11.5809 15.0099 11.444C15.1037 11.2741 15.5633 11.085 15.7491 10.9775C16.0037 10.83 16.282 10.6532 16.5419 10.5497C16.3993 10.2192 15.9498 10.3338 15.6832 10.1564L15.6793 9.90365C16.0172 9.74061 16.2845 9.6763 16.4811 10.012C16.6199 10.2492 16.9687 10.3002 17.1543 10.4872C17.0902 10.6189 16.5537 10.8833 16.4016 10.9688C16.2152 11.0735 15.7316 11.3097 15.623 11.444C15.6762 11.5133 17.6324 12.6672 17.8245 12.7413L18.3479 12.444C18.2745 12.3177 17.1431 11.7262 16.8992 11.6878C16.1251 11.5658 16.6256 11.0427 17.1084 11.2201C17.3333 11.3027 17.2317 11.4495 17.5364 11.6262L18.6448 12.2754L19.1769 11.9731C19.0788 11.8513 17.9618 11.2653 17.8398 11.2355C17.5251 11.1586 17.5994 11.2833 17.3289 11.0609C17.3214 10.7719 17.525 10.6839 17.8343 10.7302C18.1919 10.7836 18.0205 10.9526 18.3368 11.1403L19.4914 11.7841L20.0047 11.5028C19.6702 11.2466 17.9059 10.335 17.3641 10.0125C17.2021 9.91599 16.149 9.30542 16.0827 9.30049C16.0039 9.29463 14.9416 9.90252 14.7871 10.0088C15.0324 10.4193 15.5042 10.0742 15.6541 10.4872C15.5712 10.8239 15.0539 10.8494 14.8676 10.5618C14.7503 10.3806 14.7691 10.3942 14.5394 10.2766C14.3833 10.1968 14.2226 10.1354 14.1613 10.0088C14.2906 9.89862 14.7432 9.6613 14.9008 9.57562C16.3982 8.76184 15.7238 8.73 17.2333 9.57675L20.3187 11.3279L20.9006 10.9938L15.2934 7.76489L9.60767 10.9768V10.9768Z" fill="#F9C309"/>
<path fill-rule="evenodd" clip-rule="evenodd" d="M19.4863 17.5395L17.6412 18.5856C17.32 18.765 17.0212 18.9228 16.7155 19.1073C16.5476 19.2085 16.3952 19.2703 16.295 19.3882C16.1437 19.5664 16.1418 19.7169 15.8179 19.6607C15.7259 19.497 15.7251 19.3578 15.8466 19.1645C16.0107 18.9034 16.0678 19.0235 16.3734 18.9422L19.1736 17.3658C19.1862 17.2473 19.2046 17.0831 19.1832 16.9662C19.1411 16.7343 19.0754 16.8578 19.0518 16.6589C19.0258 16.4388 19.2265 16.1614 19.4042 16.1382C19.8095 16.0853 19.5704 16.5576 19.5271 16.7014C19.4655 16.9061 19.5262 17.2844 19.4863 17.5395V17.5395ZM18.2773 17.2911C18.2584 17.2635 18.2517 17.2745 18.2326 17.2037C18.1927 17.0557 18.2359 17.001 18.2907 16.8787C18.3898 16.6575 18.3567 16.6172 18.3502 16.3574C18.3367 15.8288 18.411 15.9041 18.8089 15.6928C19.1112 15.5323 20.0691 14.9148 20.3219 14.8739C20.3299 15.3579 20.2836 15.9876 20.3253 16.4472C20.3515 16.7351 20.5951 16.668 20.4087 17.0531C20.1964 17.4917 19.7024 17.3951 19.9313 16.8885C20.0778 16.5645 20.0233 15.7749 19.9984 15.4063C19.8851 15.4195 18.8119 16.0172 18.7358 16.1032C18.4903 16.3806 18.8318 16.6358 18.8152 16.8734C18.7977 17.122 18.5539 17.4262 18.2773 17.2911V17.2911ZM17.7363 14.9734C17.4717 15.016 17.491 14.9311 17.2738 15.0472C17.1102 15.1347 16.2329 15.6223 16.2066 15.688L16.1963 18.0839C16.3257 18.0584 17.4149 17.4501 17.5194 17.3267C17.654 16.8707 17.3667 16.8825 17.402 16.5803C17.4607 16.0789 18.0967 15.9713 17.9687 16.4698C17.9391 16.5851 17.8827 16.6267 17.86 16.7562C17.6942 17.7019 18.3211 17.2983 16.8734 18.09C16.6684 18.2022 16.0643 18.5996 15.8905 18.6014L15.8792 15.5038C16.0873 15.3179 16.923 14.9018 17.2454 14.7157C17.5487 14.5406 17.5505 14.2062 17.8386 14.2811C17.9938 14.3215 18.0037 14.4844 17.958 14.6339C17.9097 14.7917 17.8164 14.8432 17.7363 14.9734V14.9734ZM20.3185 11.3278L20.297 14.2375L19.1758 14.8482L19.1768 11.9729L18.6446 12.2753C18.5872 12.7535 18.7497 14.966 18.6444 15.1636C18.5012 15.365 17.312 15.9267 17.029 16.1483C16.9494 16.8404 17.2626 16.5624 17.1356 16.9936C17.0518 17.2779 16.8214 17.4125 16.5929 17.2565C16.5106 16.9106 16.678 16.9431 16.706 16.6625C16.7645 16.0775 16.5462 16.0266 16.9491 15.8148L17.5379 15.4828C17.7263 15.3776 18.2181 15.1235 18.3526 15.0101L18.3478 12.4439L17.8243 12.7412L17.8252 13.7679C17.7959 13.8562 16.9394 14.3059 16.7849 14.3917C16.6163 14.4855 16.3828 14.6042 16.2839 14.7241C16.1821 14.8474 16.0547 15.1205 15.8335 14.9612C15.6395 14.8152 15.7748 14.5248 15.9081 14.3951C16.1284 14.1808 16.1935 14.39 16.5041 14.2012L17.4949 13.5924L17.4953 12.9282L15.252 14.2025L15.2378 20.5986L20.9319 17.4022C21.0106 16.9875 20.9509 15.8895 20.9496 15.4015L20.9351 13.3577L20.9005 10.9937L20.3185 11.3278V11.3278Z" fill="#F76200"/>
<path fill-rule="evenodd" clip-rule="evenodd" d="M11.3321 17.3609C11.6203 17.5245 13.293 18.5166 13.4788 18.5351L13.4791 17.0978C13.1059 16.7409 13.0471 16.9572 12.7903 16.8289C12.6213 16.7445 12.3899 16.3928 12.6028 16.1757C12.9056 16.0379 12.9923 16.3914 13.1511 16.5184C13.3082 16.644 13.6081 16.7655 13.7838 16.8879L13.7925 19.0609C13.5084 19.0496 11.4869 17.7329 11.0164 17.5409C10.9343 16.8618 11.1024 16.0555 10.9339 15.6606C10.6752 15.0543 11.2733 15.1016 11.4273 15.5235C11.5396 15.8308 11.3858 15.8265 11.3367 16.0192C11.3032 16.1502 11.3137 17.1859 11.3321 17.3609V17.3609ZM10.5062 16.6982C10.5293 16.8535 10.596 16.8829 10.6236 17.0218C10.6983 17.3967 10.3434 17.3653 10.1838 17.1836C9.88761 16.8464 10.1114 16.7457 10.168 16.5207C10.2307 16.2716 10.1258 14.4731 10.1962 13.9344C10.3334 13.9606 12.0059 14.9174 12.1501 15.032L12.1661 16.8804C12.5385 17.1877 12.6561 17.0045 12.8716 17.1402C13.0663 17.2627 13.1564 17.5446 13.0415 17.7863C12.6464 17.8606 12.6637 17.5658 12.4301 17.4029C11.6436 16.8543 11.8349 17.5882 11.8185 15.1794L10.5043 14.4611L10.5062 16.6982V16.6982ZM13.8973 16.3729C13.5167 16.4981 13.5037 16.1801 13.2683 16.0103C13.0932 15.884 12.7077 15.7788 12.666 15.5688L12.6604 13.4876C12.9502 13.4897 13.1166 13.8124 13.5012 13.8196C13.8379 13.8259 14.0026 14.1698 13.9077 14.5078C13.357 14.6389 13.6608 14.2146 12.9783 14.0014L13.0025 15.4887C13.3721 15.789 13.4336 15.6061 13.6829 15.7279C13.9073 15.8377 13.9681 16.1281 13.8973 16.3729V16.3729ZM9.56494 17.4144L15.2378 20.5987L15.252 14.2026L14.6869 13.8797L14.6342 19.0917C14.6971 19.3416 14.8435 19.3877 14.68 19.6601C14.4004 19.7013 14.257 19.5439 14.1847 19.3211C14.0821 19.0054 14.299 19.0774 14.3048 18.7084L14.3045 13.6612L12.1496 12.4296L12.1497 14.3897L10.1917 13.3022L10.1895 11.3094L9.60753 10.9768L9.56494 17.4144V17.4144ZM11.8472 13.8809L11.8509 12.259L10.5121 11.4938L10.5111 13.1277L11.8472 13.8809Z" fill="#FD8C0A"/>
</svg>
