<svg xmlns="http://www.w3.org/2000/svg" width="30" height="30" shape-rendering="geometricPrecision" image-rendering="optimizeQuality" fill-rule="evenodd" fill="#fcd240" xmlns:v="https://vecta.io/nano"><path d="M7.22 13.63l4.8 2.91.14 5.79c.01 0 2.52 1.58 2.62 1.63l2.9-1.56.19-5.59 4.94-3.38-.09-3.09-2.62-1.52-5.06 2.66-5.17-2.67-2.7 1.77.05 3.05zm.18-9.07l2.56 1.35 5.06-2.66 4.97 2.82 2.69-1.63L15.05 0zm12.75 22.32l7.64-4.53.13-8.7-2.64 1.46-.26 5.7-4.79 3.06zM2.16 22.4l7.56 4.35.03-2.91-4.82-3.06-.1-5.66-2.75-1.58zm0-11.71l2.59 1.56.16-3.02L7.5 7.44 4.99 5.88 2.2 7.44zM15.05 30l2.73-1.84-.03-2.7-2.76 1.38-2.73-1.54-.05 2.86zm7.53-22.6l2.44 1.71.2 3.1 2.58-1.55V7.53L25.12 5.9zm-2.34 13.63l2.45-1.45.17-3.08-2.68 1.6zM12.5 7.4l2.53 1.48 2.5-1.48-2.5-1.54zm-5.34 9.04l.1 3.06 2.56 1.41-.05-2.84z"/></svg>