<svg width="30" height="30" viewBox="0 0 30 30" fill="none" xmlns="http://www.w3.org/2000/svg">
<g clip-path="url(#clip0_151_424)">
<path d="M29.5186 18.6286C27.5152 26.6644 19.3762 31.5548 11.3395 29.5509C3.30612 27.5476 -1.58431 19.4081 0.419931 11.373C2.42241 3.33629 10.5614 -1.55451 18.5956 0.448851C26.6318 2.45221 31.5219 10.5926 29.5183 18.6287L29.5185 18.6286H29.5186Z" fill="#F7931A"/>
<path d="M21.6089 12.8519C21.9075 10.8558 20.3877 9.78274 18.3096 9.06693L18.9837 6.36294L17.3377 5.9528L16.6815 8.58559C16.2487 8.47767 15.8044 8.37598 15.3627 8.27516L16.0237 5.62499L14.3787 5.21484L13.7042 7.91796C13.3461 7.83642 12.9944 7.75585 12.6532 7.67094L12.6551 7.66244L10.3852 7.09561L9.94737 8.85365C9.94737 8.85365 11.1686 9.13358 11.1428 9.15081C11.8094 9.31717 11.9299 9.7584 11.9099 10.1081L11.142 13.1886C11.1878 13.2003 11.2474 13.2171 11.3131 13.2435C11.2582 13.2299 11.1997 13.215 11.1391 13.2005L10.0627 17.5158C9.98124 17.7183 9.77448 18.0222 9.30847 17.9068C9.32497 17.9307 8.11213 17.6083 8.11213 17.6083L7.29492 19.4924L9.43693 20.0264C9.83541 20.1263 10.2259 20.2309 10.6105 20.3292L9.92933 23.0642L11.5734 23.4743L12.248 20.7684C12.6971 20.8903 13.133 21.0028 13.5597 21.1088L12.8874 23.802L14.5335 24.2121L15.2146 21.4823C18.0214 22.0135 20.1318 21.7993 21.0202 19.2606C21.736 17.2166 20.9845 16.0376 19.5079 15.2688C20.5834 15.0208 21.3935 14.3134 21.6095 12.8522L21.609 12.8518L21.6089 12.8519ZM17.8482 18.1254C17.3395 20.1694 13.8981 19.0645 12.7823 18.7874L13.6862 15.164C14.8019 15.4426 18.3798 15.9938 17.8483 18.1254H17.8482ZM18.3572 12.8223C17.8932 14.6815 15.0289 13.737 14.0997 13.5053L14.9192 10.2191C15.8483 10.4507 18.8406 10.883 18.3574 12.8223H18.3572Z" fill="white"/>
</g>
<defs>
<clipPath id="clip0_151_424">
<rect width="30" height="30" fill="white"/>
</clipPath>
</defs>
</svg>
