<svg width="30" height="30" viewBox="0 0 30 30" fill="none" xmlns="http://www.w3.org/2000/svg">
<path fill-rule="evenodd" clip-rule="evenodd" d="M8.3798 15.8296L8.41245 15.2187L8.56843 12.8262C8.56843 12.5445 8.64099 11.1214 8.68089 11.008C8.82962 10.9677 14.7644 10.997 15.0909 10.997H21.4138C21.4719 11.0116 21.4537 11.0116 21.4755 11.0372C21.519 11.0958 21.6859 13.3237 21.7294 13.7517C21.7403 13.8505 21.7258 13.9493 21.7439 14.0444L21.8092 14.5675C21.8274 14.7175 21.8274 15.2297 21.8673 15.4309C21.9072 15.5699 22.0958 17.8088 22.0777 17.8893C21.8745 17.8747 21.9144 17.6734 21.802 17.5783C21.7802 17.56 21.3921 17.3991 21.3594 17.3881C21.1853 17.571 21.1817 17.6369 21.022 17.6113C20.7572 17.5674 20.8008 17.5198 20.7173 17.3222C20.6157 17.0771 20.6738 17.143 20.4815 16.993C20.3945 16.9198 20.4126 16.9125 20.2675 16.9198L19.97 16.9271C19.9882 17.0662 20.4706 17.5966 20.4924 17.7173C20.1587 17.9003 20.0208 17.7247 19.8685 17.7466C19.8104 17.8308 19.8104 17.8966 19.7415 17.9698C19.5819 17.9222 19.4839 17.8271 19.3026 17.7722C18.7802 17.6186 19.0631 17.7466 18.6568 17.4869C18.5915 17.443 18.2832 17.3625 18.178 17.3369C18.0438 17.3003 18.0583 17.2674 17.9712 17.3515C18.0039 17.4613 18.2542 17.6295 18.2578 17.7722C18.1925 17.7795 17.6883 17.6954 17.5831 17.6771C17.1405 17.593 17.3182 17.6295 17.028 17.4174C16.8612 17.293 16.7777 17.1649 16.5601 17.0735L15.4863 16.543C15.2904 16.4186 15.1054 16.4223 14.8297 16.3857C14.2783 16.3162 14.5068 16.3089 13.872 16.532C13.4476 16.682 13.5963 16.6564 13.6797 16.3199C12.9288 16.5467 12.3738 17.3808 11.2492 17.3259L11.1803 17.0552L9.75104 17.3881C9.39916 17.1174 9.78731 17.004 8.93482 17.3259C8.76795 17.3881 8.46686 17.4539 8.29636 17.4503C8.26734 17.3149 8.35803 16.0491 8.3798 15.8296V15.8296ZM16.0087 9.11296V8.074C16.0087 7.87279 16.0377 7.93864 16.2408 7.93864L19.6798 7.91669C20.0208 7.90571 20.1188 7.89108 20.4888 7.8984L20.7717 7.90206C20.8588 8.1179 20.7282 8.48007 20.9894 8.60811C21.1817 8.70323 21.2578 8.55324 21.276 8.76908C21.2832 8.80932 21.2832 8.85322 21.2869 8.89346C21.3159 9.2849 21.3449 9.13857 20.5686 9.12394C20.3328 9.12394 20.4416 9.42758 20.1877 9.43489L16.3859 9.43124C15.9651 9.43124 16.0087 9.52269 16.0087 9.11296V9.11296ZM8.80786 9.16418C8.78609 9.08004 8.80786 8.9776 8.80786 8.88615C8.81148 8.83859 8.81148 8.66299 8.84776 8.6264C8.98198 8.54592 9.13434 8.60445 9.22866 8.46544C9.30847 8.35569 9.25768 8.09229 9.27582 7.9423L13.8974 7.95693C14.3545 7.94596 14.2058 7.81426 14.213 9.23734C14.2166 9.42026 14.2275 9.42758 14.1005 9.43489C13.5745 9.45319 12.577 9.43124 12.0364 9.43124C11.7317 9.43124 9.98683 9.45319 9.84535 9.42392L9.73653 9.08735C9.56603 9.07272 8.96747 9.17881 8.80786 9.16418V9.16418ZM2.11853 7.68987C2.29265 7.69353 2.48129 7.75206 2.67355 7.75206C2.79327 7.75572 2.82954 7.77036 2.93474 7.78499L4.39305 7.8545C4.676 7.86913 6.66031 7.89474 6.73286 7.93132C6.80178 7.9862 6.67844 8.2057 6.75462 8.38495C6.80904 8.51665 6.936 8.53129 7.07385 8.58982L7.0267 9.14954C6.88885 9.20442 6.20685 9.05809 5.97106 9.09101L5.94567 9.42758L2.05323 9.43124C2.03147 9.54099 2.01333 9.70561 2.00607 9.80804C1.94803 10.5251 1.77391 10.5104 2.12941 10.9458C2.23824 11.0775 2.24187 11.0153 2.65542 11.0153L6.80541 11.0336L6.25039 16.7076L6.16695 17.6222C6.13793 17.6369 6.16332 17.6295 6.11254 17.6405C5.98194 17.6734 5.22014 17.6003 4.98072 17.6039C4.65061 17.6113 4.70865 17.6222 4.43658 17.6991C4.11009 17.7942 3.79812 17.9112 3.47889 18.021C3.33741 18.0685 2.00244 17.8527 1.73763 17.8637C1.38212 18.0612 0.975829 18.1527 0.631205 18.3283L0.591302 18.3685C0.660226 18.5514 0.70013 18.8112 0.765427 19.0124L0.946808 19.6416C1.19711 20.4538 1.65419 21.4781 2.04598 22.2098C2.30716 22.7 2.86582 23.567 3.16328 23.9548L3.51516 24.4157L4.0847 25.0852C4.14924 25.1566 4.21578 25.2261 4.28422 25.2937C4.48374 25.5059 4.90817 25.9449 5.0968 26.1022C5.32172 26.2888 5.53212 26.5083 5.76428 26.6729L5.9892 26.8558C6.26127 27.0644 6.64217 27.357 6.92512 27.5399C6.97228 27.5692 7.00856 27.5875 7.05572 27.6168C7.10288 27.646 7.12464 27.668 7.17543 27.6973L7.95174 28.1582C8.27822 28.3631 9.26131 28.8094 9.61681 28.9484C10.0993 29.1386 10.3387 29.2045 10.8176 29.3691L12.8164 29.8227C12.8926 29.8374 12.8962 29.8447 12.9869 29.8557C13.7523 29.9325 14.2384 30.013 15.0909 29.9983C15.6096 29.9874 16.132 29.9983 16.6399 29.9252C16.843 29.8923 17.1659 29.8849 17.3581 29.8337C17.5649 29.7788 17.8406 29.7679 18.0474 29.713C18.4827 29.5996 18.9362 29.5301 19.3461 29.3911L19.9555 29.1899L20.8515 28.8496C20.8987 28.8277 20.9459 28.813 20.9967 28.7911C21.0257 28.7765 21.0801 28.7472 21.1309 28.7252C21.3739 28.6301 21.987 28.3155 22.2119 28.1838C22.4042 28.0741 22.5602 28.0009 22.7415 27.8802C22.8213 27.829 22.912 27.7851 22.9955 27.7302C23.0354 27.7009 23.0753 27.6753 23.1152 27.646L24.8673 26.3327C24.9471 26.2486 24.9979 26.223 25.085 26.1461C25.0886 26.1425 25.0922 26.1388 25.0959 26.1388C25.0959 26.1351 25.1031 26.1315 25.1031 26.1278L25.8069 25.4474C25.9919 25.2059 26.1152 25.1474 26.293 24.8986C26.3655 24.7925 26.3982 24.8072 26.4707 24.7047C26.4744 24.7011 26.4816 24.6865 26.4852 24.6828L27.0221 24.0023C27.0511 23.9584 27.0802 23.9328 27.1092 23.8853C27.345 23.5451 27.4284 23.4499 27.6932 23.0256L28.1431 22.2573C28.6582 21.2769 28.8722 20.8196 29.2604 19.6928C29.3257 19.4953 29.605 18.5807 29.605 18.4014C29.3329 18.3393 29.0246 18.3393 28.7452 18.2624L28.368 18.1563C28.2555 18.1234 28.0633 18.0429 27.958 18.0722C27.871 18.1124 27.5953 18.021 27.4792 17.9917C27.2724 17.9368 27.1418 17.9442 26.9242 17.9295C26.5505 17.9076 25.8214 17.8271 25.513 17.5637C25.4405 17.5015 25.172 17.4357 25.0596 17.4137C24.7331 17.3442 24.559 17.2198 24.12 17.1357C24.0765 17.004 24.0547 16.6455 24.0438 16.4772C24.0112 16.3967 23.5831 12.9213 23.5142 12.4128L23.4308 11.736C23.4272 11.6774 23.3256 11.1104 23.3619 11.0738C23.4018 11.0336 26.7827 11.0519 27.3631 11.0555C27.7694 11.0592 27.53 11.0519 27.9181 10.7958C27.9726 10.7592 28.0016 10.7555 28.0233 10.697C28.0596 10.5982 27.8782 9.6361 27.8528 9.45319C27.6279 9.43489 24.9 9.44953 24.3522 9.45319C24.1636 9.45319 24.1345 9.47148 24.1164 9.37636C24.0584 9.09101 24.276 9.07272 23.6158 9.16052C23.4453 9.18613 23.2458 9.18247 23.068 9.20442L23.0064 8.7581C23.0064 8.74713 22.9991 8.69591 23.0027 8.68494C23.0063 8.4691 23.2494 8.65201 23.3619 8.40325C23.438 8.22765 23.3437 8.02644 23.38 7.84718C23.5577 7.80694 24.802 7.80328 25.0813 7.79231C25.2555 7.78865 25.4332 7.75206 25.6255 7.75206C25.9846 7.75206 26.3837 7.69353 26.7355 7.69353C26.9256 7.6923 27.1156 7.68376 27.3051 7.66792C27.4574 7.65695 27.6932 7.64231 27.8492 7.62402L28.0088 7.44842C28.0687 7.37047 28.1329 7.29597 28.2011 7.22526C28.3462 7.07162 28.3063 7.17771 28.3571 6.9326L28.426 6.57774C28.4659 6.30337 28.4405 6.39117 28.6582 6.3619L29.4055 5.52049C29.5252 5.37415 29.5034 5.39976 29.5469 5.23514C29.5905 5.05954 29.6376 4.8693 29.6667 4.69005L28.9049 4.85101C28.3716 4.96442 27.7984 5.03027 27.2507 5.10709C27.091 5.12904 26.5251 5.20221 26.3945 5.19489C25.9701 5.24611 25.4768 5.29367 25.0378 5.31196L24.3667 5.37049C24.247 5.38147 24.1273 5.36318 24.0076 5.37781C23.8879 5.38879 23.8226 5.41439 23.6847 5.41439C23.2204 5.41439 22.7452 5.46195 22.2881 5.47659L20.8733 5.5278C19.9338 5.56804 18.9724 5.57536 18.022 5.57536C17.5395 5.57536 17.0752 5.59731 16.5855 5.59731H15.1308C14.6374 5.59731 14.1586 5.57536 13.6761 5.57536C13.2045 5.57536 12.7003 5.59365 12.2396 5.56804C11.9929 5.55707 11.7571 5.55707 11.5104 5.55707C11.2202 5.55707 8.23469 5.47293 7.99164 5.44366C7.77761 5.42171 7.51642 5.42903 7.28426 5.41439C7.03395 5.39976 6.84169 5.40708 6.59864 5.38147C6.4753 5.37049 6.35559 5.37415 6.23225 5.37415C6.069 5.37415 5.884 5.33391 5.543 5.33391L4.53452 5.25343C4.33863 5.23879 4.0593 5.23148 3.87067 5.19489C3.56232 5.20587 3.17779 5.0888 2.8767 5.08149C2.61188 5.07417 1.25516 4.81077 0.946808 4.75955C0.787193 4.73395 0.613067 4.6937 0.482473 4.65346C0.3809 4.6242 0.0979457 4.562 0 4.55469C0.0326486 4.72663 0.199519 5.27904 0.311975 5.41805L0.827097 6.10216C1.03387 6.3619 0.925042 6.33263 1.35673 6.36556C1.46919 6.59969 1.43654 6.98016 1.59252 7.16307C1.63243 7.20697 1.6687 7.26551 1.70861 7.31672L1.94803 7.60207C2.02058 7.6789 2.00244 7.66061 2.11853 7.68987V7.68987Z" fill="#222556"/>
<path fill-rule="evenodd" clip-rule="evenodd" d="M3.87078 5.19482C4.05941 5.23141 4.33874 5.23872 4.53463 5.25336L5.54311 5.33384C5.88411 5.33384 6.06912 5.37408 6.23236 5.37408L6.59875 5.3814C6.8418 5.40701 7.03406 5.39969 7.28437 5.41432L7.99175 5.44359C8.2348 5.47286 11.2203 5.557 11.5105 5.557L12.2397 5.56797C12.7004 5.59358 13.2046 5.57529 13.6762 5.57529L15.1309 5.59724H16.5856L18.0221 5.57529L20.8734 5.52773L22.2882 5.47651L23.6848 5.41432C23.8227 5.41432 23.888 5.38871 24.0077 5.37774C24.1274 5.36311 24.2471 5.3814 24.3668 5.37042L25.0379 5.31189L26.3947 5.19482L25.9847 4.73387C25.8179 4.57657 25.8795 4.61315 25.7997 4.53267L25.6655 4.40097L25.5349 4.26927L25.2737 4.02416C25.0742 3.80466 25.0633 3.8449 24.8602 3.64369L22.6147 2.03403L22.1249 1.75234L21.7767 1.57308C21.0947 1.20725 19.952 0.768249 19.2011 0.559724C18.5626 0.384124 17.7174 0.19755 17.0717 0.124383L16.6291 0.0658498C16.5475 0.0649508 16.4661 0.0563777 16.3861 0.0402416C16.2881 0.0256083 16.2156 0.0439 16.1212 0.0402416L15.6569 0L13.9193 0.0402416L12.3195 0.263399C12.1817 0.299983 12.0438 0.314616 11.8987 0.347541L10.6871 0.67679L9.91802 0.94019L9.18524 1.24017L7.99175 1.83282L7.17554 2.31572L6.87082 2.51693L6.55884 2.72911L4.872 4.13025L3.87078 5.19482ZM24.044 16.4771C25.2229 17.0258 26.6051 17.6441 27.8239 18.0099C27.8892 18.0282 27.9183 18.0282 27.9582 18.0721C28.0634 18.0429 28.2556 18.1233 28.3681 18.1563L28.7454 18.2624C29.0247 18.3392 29.333 18.3392 29.6051 18.4014C29.6704 18.1672 29.6994 17.9404 29.7502 17.7209C29.9751 16.7222 30.0839 14.4504 29.9243 13.4663C29.8627 13.0968 29.8409 12.7602 29.7683 12.3578C29.7466 12.2371 29.7248 12.131 29.7103 12.0066L29.4709 11.0079C29.3475 10.5579 29.2097 10.1592 29.0682 9.73846C28.9957 9.5336 28.8977 9.35068 28.8288 9.14216L28.0089 7.44835L27.8493 7.62395C26.4636 7.79955 24.628 7.57274 23.3801 7.84711C23.3438 8.02637 23.4381 8.22757 23.362 8.40317C23.2495 8.65194 23.0065 8.46902 23.0028 8.68487C22.9992 8.82022 23.0464 9.05802 23.0681 9.20435C23.2459 9.1824 23.4454 9.18606 23.6159 9.16045C24.2761 9.07265 24.0585 9.09094 24.1165 9.37629C24.1346 9.47141 24.1637 9.45311 24.3523 9.45311H27.853C27.8784 9.63603 28.0597 10.5982 28.0235 10.6969C28.0017 10.7555 27.9727 10.7591 27.9183 10.7957C27.5301 11.0518 27.7695 11.0591 27.3632 11.0555C26.7828 11.0518 23.4019 11.0335 23.362 11.0738C23.3221 11.1103 24.0222 16.4222 24.044 16.4771V16.4771ZM0.631316 18.3282C0.780049 18.255 1.0231 18.1782 1.19722 18.1051L1.73774 17.8636C1.79215 17.7209 2.6519 17.4685 2.7571 17.4539C2.99652 17.41 3.1779 17.4136 3.42458 17.41C4.18638 17.4063 5.55762 16.9271 6.2505 16.7076L6.80552 11.0335C6.70758 10.9896 3.30487 11.0152 2.65553 11.0152C2.24198 11.0152 2.23835 11.0774 2.12952 10.9457C1.77402 10.5104 1.94814 10.525 2.00618 9.80797C2.01344 9.70554 2.03158 9.54091 2.05334 9.43116L5.94578 9.42751L5.97117 9.09094C6.20696 9.05802 6.88896 9.20435 7.02681 9.14947L7.07396 8.58975C6.93612 8.53122 6.80915 8.51658 6.75473 8.38488C6.67855 8.20563 6.80189 7.98613 6.73297 7.93125C6.7112 7.92028 2.56121 7.69346 2.11864 7.6898C2.11864 7.74833 2.0352 7.86174 1.99893 7.94223C1.66881 8.6556 1.42576 9.03607 1.13918 9.91041C0.841718 10.8067 0.827208 10.8506 0.602296 11.7725C0.573275 11.8969 0.566019 11.9957 0.540626 12.12C0.417287 12.7127 0.330224 13.298 0.308459 13.9053C0.304831 14.026 0.272182 14.1211 0.268555 14.2492V14.6589V15.4747C0.272182 16.0381 0.388266 17.088 0.497095 17.6478L0.598668 18.1672C0.613178 18.255 0.634944 18.255 0.631316 18.3282V18.3282Z" fill="#D14051"/>
<path fill-rule="evenodd" clip-rule="evenodd" d="M8.37982 15.8298L8.29639 17.4504C8.46688 17.4541 8.76798 17.3882 8.93485 17.3261C9.78734 17.0041 9.39918 17.1175 9.75106 17.3882L10.1029 17.2968L11.1803 17.0553L11.2493 17.3261C12.3738 17.3809 12.9289 16.5468 13.6798 16.32C13.5963 16.6566 13.4476 16.6822 13.872 16.5322C14.5069 16.309 14.2783 16.3164 14.8297 16.3859C15.1054 16.4224 15.2904 16.4188 15.4863 16.5432L16.5601 17.0736C16.7778 17.1651 16.8612 17.2931 17.0281 17.4175C17.3183 17.6297 17.1405 17.5931 17.5831 17.6773L18.2578 17.7724C18.2542 17.6297 18.0039 17.4614 17.9712 17.3517C18.0583 17.2675 18.0438 17.3004 18.178 17.337C18.2832 17.3626 18.5916 17.4431 18.6569 17.487C19.0632 17.7468 18.7802 17.6187 19.3026 17.7724C19.484 17.8272 19.5819 17.9224 19.7415 17.9699C19.8104 17.8968 19.8104 17.8309 19.8685 17.7468C20.0208 17.7248 20.1587 17.9004 20.4924 17.7175C20.4707 17.5968 19.9882 17.0663 19.9701 16.9273L20.2675 16.92C20.4126 16.9127 20.3945 16.92 20.4816 16.9931C20.6738 17.1431 20.6158 17.0773 20.7173 17.3224C20.8008 17.5199 20.7573 17.5675 21.0221 17.6114C21.1817 17.637 21.1853 17.5712 21.3594 17.3882C21.3921 17.3992 21.7802 17.5602 21.802 17.5785C21.9145 17.6736 21.8746 17.8748 22.0777 17.8894C22.0958 17.809 21.9072 15.5701 21.8673 15.431C20.9713 15.1969 17.525 12.9909 17.0498 12.9251C16.8431 12.8958 16.756 13.097 16.5855 13.0348C16.2518 12.9068 15.8527 12.9544 15.4718 12.958C15.2941 12.9617 15.1707 12.8812 14.9494 12.8848C14.8442 12.8885 14.7282 12.8922 14.623 12.8848C14.5032 12.8775 14.4597 12.819 14.3835 12.8263L13.9845 13.0385C13.8249 13.0897 13.872 12.8812 13.5383 13.0751C11.8587 14.0592 10.1175 14.9555 8.37982 15.8298V15.8298Z" fill="#FBDDD3"/>
<path fill-rule="evenodd" clip-rule="evenodd" d="M8.37988 15.8296C10.0849 14.9699 11.895 14.0371 13.5384 13.0749C13.8721 12.881 13.8249 13.0896 13.9846 13.0383L14.3836 12.8262C14.4598 12.8188 14.5033 12.8774 14.623 12.8847C14.7282 12.892 14.8443 12.8883 14.9495 12.8847C15.1708 12.881 15.2941 12.9615 15.4719 12.9579C15.8528 12.9542 16.2518 12.9066 16.5856 13.0347C16.7561 13.0969 16.8431 12.8957 17.0499 12.9249C17.5251 12.9908 20.9713 15.1968 21.8674 15.4309C21.8275 15.2297 21.8275 14.7175 21.8093 14.5675L21.744 14.0444C21.7259 13.9493 21.7404 13.8505 21.7295 13.7517L21.4756 11.0372C21.4538 11.0116 21.472 11.0116 21.4139 10.997H15.091C14.7645 10.997 8.82971 10.9677 8.68098 11.008C8.64107 11.1214 8.56852 12.5445 8.56852 12.8262L8.41253 15.2187C8.39439 15.3906 8.38714 15.654 8.37988 15.8296V15.8296ZM8.80794 9.16417C8.96756 9.1788 9.56611 9.07271 9.73661 9.08735L9.84544 9.42391C10.4549 9.53732 13.288 9.4605 14.1006 9.43489C14.2276 9.42757 14.2167 9.42025 14.2131 9.23734C14.2058 7.81425 14.3546 7.94595 13.8975 7.95692L9.2759 7.94229C9.25777 8.09228 9.30855 8.35568 9.22875 8.46543C9.13443 8.60445 8.98207 8.54591 8.84785 8.6264C8.80794 8.66664 8.7898 9.09832 8.80794 9.16417V9.16417ZM16.0088 9.11295C16.0088 9.52269 15.9652 9.43123 16.386 9.43123L20.1878 9.43489C20.4417 9.42757 20.3329 9.12393 20.5687 9.12393C21.345 9.13856 21.316 9.2849 21.2869 8.89345L21.2761 8.76907C21.2579 8.55323 21.1817 8.70322 20.9895 8.60811C20.7283 8.48006 20.8589 8.11789 20.7718 7.90205C19.2591 7.87278 17.7536 7.92766 16.2409 7.93863C16.0378 7.93863 16.0088 7.87278 16.0088 8.07399V9.11295Z" fill="#D14051"/>
<path fill-rule="evenodd" clip-rule="evenodd" d="M1.73779 17.8636C2.00261 17.8526 3.33757 18.0684 3.47905 18.0209L3.94338 17.8562L4.43674 17.6989C4.70881 17.6221 4.65077 17.6111 4.98088 17.6038L5.60846 17.6148C5.74631 17.6221 5.94583 17.6806 6.1127 17.6404C6.16349 17.6294 6.13809 17.6367 6.16711 17.6221L6.25055 16.7075L5.18403 17.0477L4.62538 17.2014L4.33154 17.2709C4.05584 17.3221 3.70759 17.4099 3.42464 17.4099L3.05825 17.4172C2.86961 17.4063 2.90589 17.4246 2.75715 17.4538C2.65195 17.4685 1.79221 17.7209 1.73779 17.8636V17.8636ZM27.9582 18.0721C27.9183 18.0282 27.8893 18.0282 27.824 18.0099C27.1892 17.8197 26.3076 17.4648 25.7055 17.2124L25.4552 17.1136L24.9799 16.9014C24.668 16.7807 24.3197 16.6051 24.044 16.4771C24.0549 16.6453 24.0767 17.0038 24.1202 17.1355C24.5591 17.2197 24.7333 17.3441 25.0597 17.4136C25.1722 17.4355 25.4406 17.5014 25.5132 17.5636C25.8215 17.827 26.5507 17.9075 26.9243 17.9294C27.142 17.944 27.2726 17.9367 27.4794 17.9916C27.5955 18.0209 27.8712 18.1123 27.9582 18.0721V18.0721Z" fill="#FBDDD3"/>
</svg>
