<svg className="mx-auto" width="40" height="40" viewBox="0 0 40 40" fill="none" xmlns="http://www.w3.org/2000/svg">
    <circle cx="20" cy="20" r="20" fill="#D171FF"/>
    <path d="M12 18.4V12C12 11.7348 12.1054 11.4804 12.2929 11.2929C12.4804 11.1054 12.7348 11 13 11H18V9H22V11H27C27.2652 11 27.5196 11.1054 27.7071 11.2929C27.8946 11.4804 28 11.7348 28 12V18.4L29.086 18.726C29.3321 18.8001 29.5402 18.966 29.6672 19.1895C29.7942 19.4129 29.8303 19.6767 29.768 19.926L28.252 25.994C27.6064 26.0273 26.9604 25.935 26.35 25.722L27.6 20.37L20 18L12.4 20.37L13.65 25.721C13.0397 25.9343 12.3937 26.027 11.748 25.994L10.232 19.926C10.1697 19.6767 10.2058 19.4129 10.3328 19.1895C10.4598 18.966 10.6679 18.8001 10.914 18.726L12 18.4ZM14 17.8L20 16L26 17.8V13H14V17.8ZM12 28C13.4763 28.002 14.9011 27.4578 16 26.472C17.0989 27.4578 18.5237 28.002 20 28C21.4763 28.002 22.9011 27.4578 24 26.472C25.0989 27.4578 26.5237 28.002 28 28H30V30H28C26.5956 30.0023 25.2157 29.6331 24 28.93C22.7843 29.6331 21.4044 30.0023 20 30C18.5956 30.0023 17.2157 29.6331 16 28.93C14.7843 29.6331 13.4044 30.0023 12 30H10V28H12Z" fill="white"/>
</svg>