<svg className="mx-auto" width="40" height="40" viewBox="0 0 40 40" fill="none" xmlns="http://www.w3.org/2000/svg">
    <circle cx="20" cy="20" r="20" fill="#D171FF"/>
    <path d="M28.5 9C28.7652 9 29.0196 9.10536 29.2071 9.29289C29.3946 9.48043 29.5 9.73478 29.5 10V15C29.5 15.2652 29.3946 15.5196 29.2071 15.7071C29.0196 15.8946 28.7652 16 28.5 16H23.5V29C23.5 29.2652 23.3946 29.5196 23.2071 29.7071C23.0196 29.8946 22.7652 30 22.5 30H18.5C18.2348 30 17.9804 29.8946 17.7929 29.7071C17.6054 29.5196 17.5 29.2652 17.5 29V16H12C11.7348 16 11.4804 15.8946 11.2929 15.7071C11.1054 15.5196 11 15.2652 11 15V12.618C11.0001 12.4323 11.0519 12.2504 11.1496 12.0925C11.2472 11.9346 11.3869 11.807 11.553 11.724L17 9H28.5ZM23.5 11H17.472L13 13.236V14H19.5V28H21.5V14H23.5V11ZM27.5 11H25.5V14H27.5V11Z" fill="white"/>
</svg>