<svg width="42" height="42" viewBox="0 0 42 42" fill="none" xmlns="http://www.w3.org/2000/svg">
<path fill-rule="evenodd" clip-rule="evenodd" d="M21 42C32.598 42 42 32.598 42 21C42 9.40202 32.598 0 21 0C9.40202 0 0 9.40202 0 21C0 32.598 9.40202 42 21 42ZM21 36C29.2843 36 36 29.2843 36 21C36 12.7157 29.2843 6 21 6C12.7157 6 6 12.7157 6 21C6 29.2843 12.7157 36 21 36Z" fill="#CCCCCC"/>
<path fill-rule="evenodd" clip-rule="evenodd" d="M21 42C32.598 42 42 32.598 42 21C42 9.40202 32.598 0 21 0V6C29.2843 6 36 12.7157 36 21C36 29.2843 29.2843 36 21 36V42Z" fill="#239A20"/>
<path d="M15.4446 26.1392C14.7817 26.1392 14.1884 26.0149 13.6648 25.7663C13.1411 25.5144 12.7251 25.1697 12.4169 24.7322C12.112 24.2947 11.9496 23.7943 11.9297 23.2308H13.7195C13.7526 23.6484 13.9332 23.9898 14.2614 24.255C14.5895 24.5168 14.9839 24.6477 15.4446 24.6477C15.8059 24.6477 16.1274 24.5649 16.4091 24.3991C16.6908 24.2334 16.9129 24.0031 17.0753 23.7081C17.2377 23.4131 17.3172 23.0767 17.3139 22.6989C17.3172 22.3144 17.236 21.973 17.0703 21.6747C16.9046 21.3764 16.6776 21.1428 16.3892 20.9737C16.1009 20.8014 15.7694 20.7152 15.3949 20.7152C15.09 20.7119 14.79 20.7682 14.495 20.8842C14.2 21.0002 13.9664 21.1527 13.794 21.3416L12.1286 21.0682L12.6605 15.8182H18.5668V17.3594H14.1868L13.8935 20.0589H13.9531C14.142 19.8369 14.4089 19.6529 14.7536 19.5071C15.0982 19.358 15.4761 19.2834 15.8871 19.2834C16.5036 19.2834 17.0537 19.4292 17.5376 19.7209C18.0215 20.0092 18.4027 20.407 18.6811 20.9141C18.9595 21.4212 19.0987 22.0012 19.0987 22.6541C19.0987 23.3269 18.9429 23.9268 18.6314 24.4538C18.3232 24.9775 17.8939 25.3902 17.3438 25.6918C16.7969 25.9901 16.1638 26.1392 15.4446 26.1392ZM24.5277 26.1939C23.709 26.1939 23.0064 25.9867 22.4197 25.5724C21.8364 25.1548 21.3873 24.5533 21.0724 23.7678C20.7609 22.9789 20.6051 22.0294 20.6051 20.919C20.6084 19.8087 20.7659 18.8641 21.0774 18.0852C21.3923 17.303 21.8414 16.7064 22.4247 16.2955C23.0114 15.8845 23.7124 15.679 24.5277 15.679C25.343 15.679 26.044 15.8845 26.6307 16.2955C27.2173 16.7064 27.6664 17.303 27.978 18.0852C28.2929 18.8674 28.4503 19.812 28.4503 20.919C28.4503 22.0327 28.2929 22.9839 27.978 23.7727C27.6664 24.5582 27.2173 25.1581 26.6307 25.5724C26.0473 25.9867 25.3464 26.1939 24.5277 26.1939ZM24.5277 24.6378C25.1641 24.6378 25.6662 24.3246 26.0341 23.6982C26.4053 23.0684 26.5909 22.142 26.5909 20.919C26.5909 20.1103 26.5064 19.4309 26.3374 18.8807C26.1683 18.3305 25.9297 17.9162 25.6214 17.6378C25.3132 17.3561 24.9486 17.2152 24.5277 17.2152C23.8946 17.2152 23.3942 17.5301 23.0263 18.1598C22.6584 18.7862 22.4728 19.706 22.4695 20.919C22.4661 21.7311 22.5473 22.4138 22.7131 22.9673C22.8821 23.5208 23.1207 23.9384 23.429 24.2202C23.7372 24.4986 24.1035 24.6378 24.5277 24.6378Z" fill="white"/>
</svg>
