<svg width="42" height="42" viewBox="0 0 42 42" fill="none" xmlns="http://www.w3.org/2000/svg">
<circle cx="21" cy="21" r="21" fill="#20983A"/>
<circle cx="21" cy="21" r="15" fill="#E8ECEF"/>
<path d="M13.0462 15.8182V26H11.2017V17.6129H11.142L8.76065 19.1342V17.4439L11.2912 15.8182H13.0462ZM19.3949 26.1939C18.5762 26.1939 17.8736 25.9867 17.2869 25.5724C16.7036 25.1548 16.2545 24.5533 15.9396 23.7678C15.6281 22.9789 15.4723 22.0294 15.4723 20.919C15.4756 19.8087 15.633 18.8641 15.9446 18.0852C16.2595 17.303 16.7086 16.7064 17.2919 16.2955C17.8786 15.8845 18.5795 15.679 19.3949 15.679C20.2102 15.679 20.9112 15.8845 21.4979 16.2955C22.0845 16.7064 22.5336 17.303 22.8452 18.0852C23.16 18.8674 23.3175 19.812 23.3175 20.919C23.3175 22.0327 23.16 22.9839 22.8452 23.7727C22.5336 24.5582 22.0845 25.1581 21.4979 25.5724C20.9145 25.9867 20.2135 26.1939 19.3949 26.1939ZM19.3949 24.6378C20.0313 24.6378 20.5334 24.3246 20.9013 23.6982C21.2725 23.0684 21.4581 22.142 21.4581 20.919C21.4581 20.1103 21.3736 19.4309 21.2045 18.8807C21.0355 18.3305 20.7969 17.9162 20.4886 17.6378C20.1804 17.3561 19.8158 17.2152 19.3949 17.2152C18.7618 17.2152 18.2614 17.5301 17.8935 18.1598C17.5256 18.7862 17.34 19.706 17.3366 20.919C17.3333 21.7311 17.4145 22.4138 17.5803 22.9673C17.7493 23.5208 17.9879 23.9384 18.2962 24.2202C18.6044 24.4986 18.9706 24.6378 19.3949 24.6378ZM28.7328 26.1939C27.9141 26.1939 27.2115 25.9867 26.6248 25.5724C26.0415 25.1548 25.5924 24.5533 25.2775 23.7678C24.966 22.9789 24.8102 22.0294 24.8102 20.919C24.8135 19.8087 24.9709 18.8641 25.2825 18.0852C25.5974 17.303 26.0465 16.7064 26.6298 16.2955C27.2164 15.8845 27.9174 15.679 28.7328 15.679C29.5481 15.679 30.2491 15.8845 30.8358 16.2955C31.4224 16.7064 31.8715 17.303 32.1831 18.0852C32.4979 18.8674 32.6554 19.812 32.6554 20.919C32.6554 22.0327 32.4979 22.9839 32.1831 23.7727C31.8715 24.5582 31.4224 25.1581 30.8358 25.5724C30.2524 25.9867 29.5514 26.1939 28.7328 26.1939ZM28.7328 24.6378C29.3691 24.6378 29.8713 24.3246 30.2392 23.6982C30.6104 23.0684 30.796 22.142 30.796 20.919C30.796 20.1103 30.7115 19.4309 30.5424 18.8807C30.3734 18.3305 30.1348 17.9162 29.8265 17.6378C29.5183 17.3561 29.1537 17.2152 28.7328 17.2152C28.0997 17.2152 27.5993 17.5301 27.2314 18.1598C26.8635 18.7862 26.6779 19.706 26.6745 20.919C26.6712 21.7311 26.7524 22.4138 26.9181 22.9673C27.0872 23.5208 27.3258 23.9384 27.6341 24.2202C27.9423 24.4986 28.3085 24.6378 28.7328 24.6378Z" fill="#20262D"/>
</svg>
