<svg width="445" height="29" viewBox="0 0 445 29" fill="none" xmlns="http://www.w3.org/2000/svg">
<path d="M16.6619 11.4347H13.4744C13.3835 10.9119 13.2159 10.4489 12.9716 10.0455C12.7273 9.63636 12.4233 9.28977 12.0597 9.00568C11.696 8.72159 11.2813 8.50852 10.8153 8.36648C10.3551 8.21875 9.85795 8.14489 9.32386 8.14489C8.375 8.14489 7.53409 8.38352 6.80114 8.86079C6.06818 9.33239 5.49432 10.0256 5.07955 10.9403C4.66477 11.8494 4.45739 12.9602 4.45739 14.2727C4.45739 15.608 4.66477 16.733 5.07955 17.6477C5.5 18.5568 6.07386 19.2443 6.80114 19.7102C7.53409 20.1705 8.37216 20.4006 9.31534 20.4006C9.83807 20.4006 10.3267 20.3324 10.7812 20.196C11.2415 20.054 11.6534 19.8466 12.017 19.5739C12.3864 19.3011 12.696 18.9659 12.946 18.5682C13.2017 18.1705 13.3778 17.7159 13.4744 17.2045L16.6619 17.2216C16.5426 18.0511 16.2841 18.8295 15.8864 19.5568C15.4943 20.2841 14.9801 20.9261 14.3438 21.483C13.7074 22.0341 12.9631 22.4659 12.1108 22.7784C11.2585 23.0852 10.3125 23.2386 9.27273 23.2386C7.73864 23.2386 6.36932 22.8835 5.16477 22.1733C3.96023 21.4631 3.01136 20.4375 2.31818 19.0966C1.625 17.7557 1.27841 16.1477 1.27841 14.2727C1.27841 12.392 1.62784 10.7841 2.3267 9.44886C3.02557 8.10795 3.97727 7.08239 5.18182 6.37216C6.38636 5.66193 7.75 5.30682 9.27273 5.30682C10.2443 5.30682 11.1477 5.44318 11.983 5.71591C12.8182 5.98864 13.5625 6.3892 14.2159 6.91761C14.8693 7.44034 15.4063 8.08239 15.8267 8.84375C16.2528 9.59943 16.5313 10.4631 16.6619 11.4347ZM25.1314 23.2557C23.853 23.2557 22.745 22.9744 21.8075 22.4119C20.87 21.8494 20.1428 21.0625 19.6257 20.0511C19.1143 19.0398 18.8587 17.858 18.8587 16.5057C18.8587 15.1534 19.1143 13.9687 19.6257 12.9517C20.1428 11.9347 20.87 11.1449 21.8075 10.5824C22.745 10.0199 23.853 9.73864 25.1314 9.73864C26.4098 9.73864 27.5178 10.0199 28.4553 10.5824C29.3928 11.1449 30.1172 11.9347 30.6286 12.9517C31.1456 13.9687 31.4041 15.1534 31.4041 16.5057C31.4041 17.858 31.1456 19.0398 30.6286 20.0511C30.1172 21.0625 29.3928 21.8494 28.4553 22.4119C27.5178 22.9744 26.4098 23.2557 25.1314 23.2557ZM25.1484 20.7841C25.8416 20.7841 26.4212 20.5937 26.8871 20.2131C27.353 19.8267 27.6996 19.3097 27.9268 18.6619C28.1598 18.0142 28.2763 17.2926 28.2763 16.4972C28.2763 15.696 28.1598 14.9716 27.9268 14.3239C27.6996 13.6705 27.353 13.1506 26.8871 12.7642C26.4212 12.3778 25.8416 12.1847 25.1484 12.1847C24.4382 12.1847 23.8473 12.3778 23.3757 12.7642C22.9098 13.1506 22.5604 13.6705 22.3274 14.3239C22.1001 14.9716 21.9865 15.696 21.9865 16.4972C21.9865 17.2926 22.1001 18.0142 22.3274 18.6619C22.5604 19.3097 22.9098 19.8267 23.3757 20.2131C23.8473 20.5937 24.4382 20.7841 25.1484 20.7841ZM37.108 15.3295V23H34.0227V9.90909H36.9716V12.1335H37.125C37.4261 11.4006 37.9063 10.8182 38.5653 10.3864C39.2301 9.95455 40.0511 9.73864 41.0284 9.73864C41.9318 9.73864 42.7188 9.93182 43.3892 10.3182C44.0653 10.7045 44.5881 11.2642 44.9574 11.9972C45.3324 12.7301 45.517 13.6193 45.5114 14.6648V23H42.4261V15.142C42.4261 14.267 42.1989 13.5824 41.7443 13.0881C41.2955 12.5937 40.6733 12.3466 39.8778 12.3466C39.3381 12.3466 38.858 12.4659 38.4375 12.7045C38.0227 12.9375 37.696 13.2756 37.4574 13.7188C37.2244 14.1619 37.108 14.6989 37.108 15.3295ZM51.733 15.3295V23H48.6477V9.90909H51.5966V12.1335H51.75C52.0511 11.4006 52.5313 10.8182 53.1903 10.3864C53.8551 9.95455 54.6761 9.73864 55.6534 9.73864C56.5568 9.73864 57.3438 9.93182 58.0142 10.3182C58.6903 10.7045 59.2131 11.2642 59.5824 11.9972C59.9574 12.7301 60.142 13.6193 60.1364 14.6648V23H57.0511V15.142C57.0511 14.267 56.8239 13.5824 56.3693 13.0881C55.9205 12.5937 55.2983 12.3466 54.5028 12.3466C53.9631 12.3466 53.483 12.4659 53.0625 12.7045C52.6477 12.9375 52.321 13.2756 52.0824 13.7188C51.8494 14.1619 51.733 14.6989 51.733 15.3295ZM69.0682 23.2557C67.7557 23.2557 66.6222 22.983 65.6676 22.4375C64.7188 21.8864 63.9886 21.108 63.4773 20.1023C62.9659 19.0909 62.7102 17.9006 62.7102 16.5312C62.7102 15.1847 62.9659 14.0028 63.4773 12.9858C63.9943 11.9631 64.7159 11.1676 65.642 10.5994C66.5682 10.0256 67.6562 9.73864 68.9062 9.73864C69.7131 9.73864 70.4744 9.86932 71.1903 10.1307C71.9119 10.3864 72.5483 10.7841 73.0994 11.3239C73.6563 11.8636 74.0938 12.5511 74.4119 13.3864C74.7301 14.2159 74.8892 15.2045 74.8892 16.3523V17.2983H64.1591V15.2188H71.9318C71.9261 14.6278 71.7983 14.1023 71.5483 13.642C71.2983 13.1761 70.9489 12.8097 70.5 12.5426C70.0568 12.2756 69.5398 12.142 68.9489 12.142C68.3182 12.142 67.7642 12.2955 67.2869 12.6023C66.8097 12.9034 66.4375 13.3011 66.1705 13.7955C65.9091 14.2841 65.7756 14.821 65.7699 15.4062V17.2216C65.7699 17.983 65.9091 18.6364 66.1875 19.1818C66.4659 19.7216 66.8551 20.1364 67.3551 20.4261C67.8551 20.7102 68.4403 20.8523 69.1108 20.8523C69.5597 20.8523 69.9659 20.7898 70.3295 20.6648C70.6932 20.5341 71.0085 20.3438 71.2756 20.0938C71.5426 19.8438 71.7443 19.5341 71.8807 19.1648L74.7614 19.4886C74.5795 20.25 74.233 20.9148 73.7216 21.483C73.2159 22.0455 72.5682 22.483 71.7784 22.7955C70.9886 23.1023 70.0852 23.2557 69.0682 23.2557ZM83.2095 23.2557C81.9027 23.2557 80.7805 22.9688 79.843 22.3949C78.9112 21.821 78.1925 21.0284 77.6868 20.017C77.1868 19 76.9368 17.8295 76.9368 16.5057C76.9368 15.1761 77.1925 14.0028 77.7038 12.9858C78.2152 11.9631 78.9368 11.1676 79.8686 10.5994C80.8061 10.0256 81.9141 9.73864 83.1925 9.73864C84.255 9.73864 85.1953 9.93466 86.0135 10.3267C86.8374 10.7131 87.4936 11.2614 87.9822 11.9716C88.4709 12.6761 88.7493 13.5 88.8175 14.4432H85.8686C85.7493 13.8125 85.4652 13.2869 85.0163 12.8665C84.5732 12.4403 83.9794 12.2273 83.2351 12.2273C82.6044 12.2273 82.0504 12.3977 81.5732 12.7386C81.0959 13.0739 80.7237 13.5568 80.4567 14.1875C80.1953 14.8182 80.0646 15.5739 80.0646 16.4545C80.0646 17.3466 80.1953 18.1136 80.4567 18.7557C80.718 19.392 81.0845 19.8835 81.5561 20.2301C82.0334 20.571 82.593 20.7415 83.2351 20.7415C83.6896 20.7415 84.0959 20.6562 84.4538 20.4858C84.8175 20.3097 85.1214 20.0568 85.3658 19.7273C85.6101 19.3977 85.7777 18.9972 85.8686 18.5256H88.8175C88.7436 19.4517 88.4709 20.2727 87.9993 20.9886C87.5277 21.6989 86.8857 22.2557 86.0732 22.6591C85.2607 23.0568 84.3061 23.2557 83.2095 23.2557ZM97.8878 9.90909V12.2955H90.3622V9.90909H97.8878ZM92.2202 6.77273H95.3054V19.0625C95.3054 19.4773 95.3679 19.7955 95.4929 20.017C95.6236 20.233 95.794 20.3807 96.0043 20.4602C96.2145 20.5398 96.4474 20.5795 96.7031 20.5795C96.8963 20.5795 97.0724 20.5653 97.2315 20.5369C97.3963 20.5085 97.5213 20.483 97.6065 20.4602L98.1264 22.8722C97.9616 22.929 97.7259 22.9915 97.419 23.0597C97.1179 23.1278 96.7486 23.1676 96.3111 23.179C95.5384 23.2017 94.8423 23.0852 94.223 22.8295C93.6037 22.5682 93.1122 22.1648 92.7486 21.6193C92.3906 21.0739 92.2145 20.392 92.2202 19.5739V6.77273ZM109.123 23L105.424 9.90909H108.569L110.87 19.1136H110.989L113.342 9.90909H116.452L118.805 19.0625H118.933L121.2 9.90909H124.353L120.646 23H117.433L114.978 14.1534H114.799L112.344 23H109.123ZM126.507 23V9.90909H129.592V23H126.507ZM128.058 8.05114C127.57 8.05114 127.149 7.8892 126.797 7.56534C126.445 7.23579 126.268 6.84091 126.268 6.38068C126.268 5.91477 126.445 5.51989 126.797 5.19602C127.149 4.86648 127.57 4.7017 128.058 4.7017C128.553 4.7017 128.973 4.86648 129.32 5.19602C129.672 5.51989 129.848 5.91477 129.848 6.38068C129.848 6.84091 129.672 7.23579 129.32 7.56534C128.973 7.8892 128.553 8.05114 128.058 8.05114ZM139.302 9.90909V12.2955H131.776V9.90909H139.302ZM133.634 6.77273H136.719V19.0625C136.719 19.4773 136.782 19.7955 136.907 20.017C137.038 20.233 137.208 20.3807 137.418 20.4602C137.629 20.5398 137.862 20.5795 138.117 20.5795C138.31 20.5795 138.487 20.5653 138.646 20.5369C138.81 20.5085 138.935 20.483 139.021 20.4602L139.54 22.8722C139.376 22.929 139.14 22.9915 138.833 23.0597C138.532 23.1278 138.163 23.1676 137.725 23.179C136.952 23.2017 136.256 23.0852 135.637 22.8295C135.018 22.5682 134.526 22.1648 134.163 21.6193C133.805 21.0739 133.629 20.392 133.634 19.5739V6.77273ZM145.249 15.3295V23H142.163V5.54545H145.18V12.1335H145.334C145.641 11.3949 146.115 10.8125 146.757 10.3864C147.405 9.95455 148.229 9.73864 149.229 9.73864C150.138 9.73864 150.93 9.92898 151.607 10.3097C152.283 10.6903 152.805 11.2472 153.175 11.9801C153.55 12.7131 153.737 13.608 153.737 14.6648V23H150.652V15.142C150.652 14.2614 150.425 13.5767 149.97 13.0881C149.521 12.5937 148.891 12.3466 148.078 12.3466C147.533 12.3466 147.044 12.4659 146.612 12.7045C146.186 12.9375 145.851 13.2756 145.607 13.7188C145.368 14.1619 145.249 14.6989 145.249 15.3295ZM168.545 23.2557C167.267 23.2557 166.159 22.9744 165.222 22.4119C164.284 21.8494 163.557 21.0625 163.04 20.0511C162.528 19.0398 162.273 17.858 162.273 16.5057C162.273 15.1534 162.528 13.9687 163.04 12.9517C163.557 11.9347 164.284 11.1449 165.222 10.5824C166.159 10.0199 167.267 9.73864 168.545 9.73864C169.824 9.73864 170.932 10.0199 171.869 10.5824C172.807 11.1449 173.531 11.9347 174.043 12.9517C174.56 13.9687 174.818 15.1534 174.818 16.5057C174.818 17.858 174.56 19.0398 174.043 20.0511C173.531 21.0625 172.807 21.8494 171.869 22.4119C170.932 22.9744 169.824 23.2557 168.545 23.2557ZM168.562 20.7841C169.256 20.7841 169.835 20.5937 170.301 20.2131C170.767 19.8267 171.114 19.3097 171.341 18.6619C171.574 18.0142 171.69 17.2926 171.69 16.4972C171.69 15.696 171.574 14.9716 171.341 14.3239C171.114 13.6705 170.767 13.1506 170.301 12.7642C169.835 12.3778 169.256 12.1847 168.562 12.1847C167.852 12.1847 167.261 12.3778 166.79 12.7642C166.324 13.1506 165.974 13.6705 165.741 14.3239C165.514 14.9716 165.401 15.696 165.401 16.4972C165.401 17.2926 165.514 18.0142 165.741 18.6619C165.974 19.3097 166.324 19.8267 166.79 20.2131C167.261 20.5937 167.852 20.7841 168.562 20.7841ZM185.781 17.4943V9.90909H188.866V23H185.874V20.6733H185.738C185.442 21.4062 184.957 22.0057 184.281 22.4716C183.61 22.9375 182.783 23.1705 181.8 23.1705C180.942 23.1705 180.184 22.9801 179.525 22.5994C178.871 22.2131 178.36 21.6534 177.991 20.9205C177.621 20.1818 177.437 19.2898 177.437 18.2443V9.90909H180.522V17.767C180.522 18.5966 180.749 19.2557 181.204 19.7443C181.658 20.233 182.255 20.4773 182.994 20.4773C183.448 20.4773 183.888 20.3665 184.315 20.1449C184.741 19.9233 185.09 19.5938 185.363 19.1562C185.641 18.7131 185.781 18.1591 185.781 17.4943ZM192.038 23V9.90909H195.03V12.0909H195.166C195.405 11.3352 195.814 10.7528 196.393 10.3438C196.979 9.92898 197.646 9.72159 198.396 9.72159C198.567 9.72159 198.757 9.73011 198.967 9.74716C199.183 9.75852 199.362 9.77841 199.504 9.80682V12.6449C199.374 12.5994 199.166 12.5597 198.882 12.5256C198.604 12.4858 198.334 12.4659 198.072 12.4659C197.51 12.4659 197.004 12.5881 196.555 12.8324C196.112 13.071 195.763 13.4034 195.507 13.8295C195.251 14.2557 195.124 14.7472 195.124 15.304V23H192.038ZM207.507 23V9.90909H210.499V12.0909H210.635C210.874 11.3352 211.283 10.7528 211.862 10.3438C212.447 9.92898 213.115 9.72159 213.865 9.72159C214.036 9.72159 214.226 9.73011 214.436 9.74716C214.652 9.75852 214.831 9.77841 214.973 9.80682V12.6449C214.842 12.5994 214.635 12.5597 214.351 12.5256C214.072 12.4858 213.803 12.4659 213.541 12.4659C212.979 12.4659 212.473 12.5881 212.024 12.8324C211.581 13.071 211.232 13.4034 210.976 13.8295C210.72 14.2557 210.592 14.7472 210.592 15.304V23H207.507ZM222.279 23.2557C220.967 23.2557 219.833 22.983 218.879 22.4375C217.93 21.8864 217.2 21.108 216.688 20.1023C216.177 19.0909 215.921 17.9006 215.921 16.5312C215.921 15.1847 216.177 14.0028 216.688 12.9858C217.205 11.9631 217.927 11.1676 218.853 10.5994C219.779 10.0256 220.867 9.73864 222.117 9.73864C222.924 9.73864 223.685 9.86932 224.401 10.1307C225.123 10.3864 225.759 10.7841 226.31 11.3239C226.867 11.8636 227.305 12.5511 227.623 13.3864C227.941 14.2159 228.1 15.2045 228.1 16.3523V17.2983H217.37V15.2188H225.143C225.137 14.6278 225.009 14.1023 224.759 13.642C224.509 13.1761 224.16 12.8097 223.711 12.5426C223.268 12.2756 222.751 12.142 222.16 12.142C221.529 12.142 220.975 12.2955 220.498 12.6023C220.021 12.9034 219.648 13.3011 219.381 13.7955C219.12 14.2841 218.987 14.821 218.981 15.4062V17.2216C218.981 17.983 219.12 18.6364 219.398 19.1818C219.677 19.7216 220.066 20.1364 220.566 20.4261C221.066 20.7102 221.651 20.8523 222.322 20.8523C222.771 20.8523 223.177 20.7898 223.54 20.6648C223.904 20.5341 224.219 20.3438 224.487 20.0938C224.754 19.8438 224.955 19.5341 225.092 19.1648L227.972 19.4886C227.79 20.25 227.444 20.9148 226.933 21.483C226.427 22.0455 225.779 22.483 224.989 22.7955C224.2 23.1023 223.296 23.2557 222.279 23.2557ZM233.795 5.54545V23H230.71V5.54545H233.795ZM236.968 23V9.90909H240.053V23H236.968ZM238.519 8.05114C238.031 8.05114 237.61 7.8892 237.258 7.56534C236.906 7.23579 236.729 6.84091 236.729 6.38068C236.729 5.91477 236.906 5.51989 237.258 5.19602C237.61 4.86648 238.031 4.7017 238.519 4.7017C239.013 4.7017 239.434 4.86648 239.781 5.19602C240.133 5.51989 240.309 5.91477 240.309 6.38068C240.309 6.84091 240.133 7.23579 239.781 7.56534C239.434 7.8892 239.013 8.05114 238.519 8.05114ZM246.993 23.2642C246.163 23.2642 245.416 23.1165 244.751 22.821C244.092 22.5199 243.57 22.0767 243.183 21.4915C242.803 20.9062 242.612 20.1847 242.612 19.3267C242.612 18.5881 242.749 17.9773 243.021 17.4943C243.294 17.0114 243.666 16.625 244.138 16.3352C244.609 16.0455 245.141 15.8267 245.732 15.679C246.328 15.5256 246.945 15.4148 247.581 15.3466C248.348 15.267 248.97 15.196 249.447 15.1335C249.925 15.0653 250.271 14.9631 250.487 14.8267C250.709 14.6847 250.82 14.4659 250.82 14.1705V14.1193C250.82 13.4773 250.629 12.9801 250.249 12.6278C249.868 12.2756 249.32 12.0994 248.604 12.0994C247.848 12.0994 247.249 12.2642 246.805 12.5938C246.368 12.9233 246.072 13.3125 245.919 13.7614L243.038 13.3523C243.266 12.5568 243.641 11.892 244.163 11.358C244.686 10.8182 245.325 10.4148 246.081 10.1477C246.837 9.875 247.672 9.73864 248.587 9.73864C249.217 9.73864 249.845 9.8125 250.47 9.96023C251.095 10.108 251.666 10.3523 252.183 10.6932C252.7 11.0284 253.115 11.4858 253.428 12.0653C253.746 12.6449 253.905 13.3693 253.905 14.2386V23H250.939V21.2017H250.837C250.649 21.5653 250.385 21.9062 250.044 22.2244C249.709 22.5369 249.286 22.7898 248.774 22.983C248.268 23.1705 247.675 23.2642 246.993 23.2642ZM247.794 20.9972C248.413 20.9972 248.95 20.875 249.405 20.6307C249.859 20.3807 250.209 20.0511 250.453 19.642C250.703 19.233 250.828 18.7869 250.828 18.304V16.7614C250.732 16.8409 250.567 16.9148 250.334 16.983C250.107 17.0511 249.851 17.1108 249.567 17.1619C249.283 17.2131 249.001 17.2585 248.723 17.2983C248.445 17.3381 248.203 17.3722 247.999 17.4006C247.538 17.4631 247.126 17.5653 246.763 17.7074C246.399 17.8494 246.112 18.0483 245.902 18.304C245.692 18.554 245.587 18.8778 245.587 19.2756C245.587 19.8438 245.794 20.2727 246.209 20.5625C246.624 20.8523 247.152 20.9972 247.794 20.9972ZM257.143 23V5.54545H260.229V12.0739H260.357C260.516 11.7557 260.74 11.4176 261.03 11.0597C261.32 10.696 261.712 10.3864 262.206 10.1307C262.7 9.86932 263.331 9.73864 264.098 9.73864C265.109 9.73864 266.021 9.99716 266.834 10.5142C267.652 11.0256 268.3 11.7841 268.777 12.7898C269.26 13.7898 269.501 15.017 269.501 16.4716C269.501 17.9091 269.266 19.1307 268.794 20.1364C268.322 21.142 267.68 21.9091 266.868 22.4375C266.055 22.9659 265.135 23.2301 264.107 23.2301C263.357 23.2301 262.734 23.1051 262.24 22.8551C261.746 22.6051 261.348 22.304 261.047 21.9517C260.751 21.5937 260.521 21.2557 260.357 20.9375H260.178V23H257.143ZM260.169 16.4545C260.169 17.3011 260.288 18.0426 260.527 18.679C260.771 19.3153 261.121 19.8125 261.575 20.1705C262.036 20.5227 262.592 20.6989 263.246 20.6989C263.928 20.6989 264.499 20.517 264.959 20.1534C265.419 19.7841 265.766 19.2812 265.999 18.6449C266.237 18.0028 266.357 17.2727 266.357 16.4545C266.357 15.642 266.24 14.9205 266.007 14.2898C265.774 13.6591 265.428 13.1648 264.967 12.8068C264.507 12.4489 263.933 12.2699 263.246 12.2699C262.587 12.2699 262.027 12.4432 261.567 12.7898C261.107 13.1364 260.757 13.6222 260.518 14.2472C260.286 14.8722 260.169 15.608 260.169 16.4545ZM275.21 5.54545V23H272.124V5.54545H275.21ZM284.178 23.2557C282.865 23.2557 281.732 22.983 280.777 22.4375C279.828 21.8864 279.098 21.108 278.587 20.1023C278.075 19.0909 277.82 17.9006 277.82 16.5312C277.82 15.1847 278.075 14.0028 278.587 12.9858C279.104 11.9631 279.825 11.1676 280.751 10.5994C281.678 10.0256 282.766 9.73864 284.016 9.73864C284.822 9.73864 285.584 9.86932 286.3 10.1307C287.021 10.3864 287.658 10.7841 288.209 11.3239C288.766 11.8636 289.203 12.5511 289.521 13.3864C289.839 14.2159 289.999 15.2045 289.999 16.3523V17.2983H279.268V15.2188H287.041C287.036 14.6278 286.908 14.1023 286.658 13.642C286.408 13.1761 286.058 12.8097 285.609 12.5426C285.166 12.2756 284.649 12.142 284.058 12.142C283.428 12.142 282.874 12.2955 282.396 12.6023C281.919 12.9034 281.547 13.3011 281.28 13.7955C281.018 14.2841 280.885 14.821 280.879 15.4062V17.2216C280.879 17.983 281.018 18.6364 281.297 19.1818C281.575 19.7216 281.964 20.1364 282.464 20.4261C282.964 20.7102 283.55 20.8523 284.22 20.8523C284.669 20.8523 285.075 20.7898 285.439 20.6648C285.803 20.5341 286.118 20.3438 286.385 20.0938C286.652 19.8438 286.854 19.5341 286.99 19.1648L289.871 19.4886C289.689 20.25 289.342 20.9148 288.831 21.483C288.325 22.0455 287.678 22.483 286.888 22.7955C286.098 23.1023 285.195 23.2557 284.178 23.2557ZM441.087 23.1875C440.57 23.1875 440.127 23.0057 439.758 22.642C439.388 22.2784 439.207 21.8352 439.212 21.3125C439.207 20.8011 439.388 20.3636 439.758 20C440.127 19.6364 440.57 19.4545 441.087 19.4545C441.587 19.4545 442.022 19.6364 442.391 20C442.766 20.3636 442.957 20.8011 442.962 21.3125C442.957 21.6591 442.866 21.9744 442.69 22.2585C442.519 22.5426 442.292 22.7699 442.008 22.9403C441.729 23.1051 441.423 23.1875 441.087 23.1875Z" fill="white"/>
<path d="M304.272 23.2557C302.965 23.2557 301.843 22.9688 300.906 22.3949C299.974 21.821 299.255 21.0284 298.749 20.017C298.249 19 297.999 17.8295 297.999 16.5057C297.999 15.1761 298.255 14.0028 298.766 12.9858C299.278 11.9631 299.999 11.1676 300.931 10.5994C301.869 10.0256 302.977 9.73864 304.255 9.73864C305.317 9.73864 306.258 9.93466 307.076 10.3267C307.9 10.7131 308.556 11.2614 309.045 11.9716C309.533 12.6761 309.812 13.5 309.88 14.4432H306.931C306.812 13.8125 306.528 13.2869 306.079 12.8665C305.636 12.4403 305.042 12.2273 304.298 12.2273C303.667 12.2273 303.113 12.3977 302.636 12.7386C302.158 13.0739 301.786 13.5568 301.519 14.1875C301.258 14.8182 301.127 15.5739 301.127 16.4545C301.127 17.3466 301.258 18.1136 301.519 18.7557C301.781 19.392 302.147 19.8835 302.619 20.2301C303.096 20.571 303.656 20.7415 304.298 20.7415C304.752 20.7415 305.158 20.6562 305.516 20.4858C305.88 20.3097 306.184 20.0568 306.428 19.7273C306.673 19.3977 306.84 18.9972 306.931 18.5256H309.88C309.806 19.4517 309.533 20.2727 309.062 20.9886C308.59 21.6989 307.948 22.2557 307.136 22.6591C306.323 23.0568 305.369 23.2557 304.272 23.2557ZM318.124 23.2557C316.845 23.2557 315.737 22.9744 314.8 22.4119C313.862 21.8494 313.135 21.0625 312.618 20.0511C312.107 19.0398 311.851 17.858 311.851 16.5057C311.851 15.1534 312.107 13.9687 312.618 12.9517C313.135 11.9347 313.862 11.1449 314.8 10.5824C315.737 10.0199 316.845 9.73864 318.124 9.73864C319.402 9.73864 320.51 10.0199 321.447 10.5824C322.385 11.1449 323.109 11.9347 323.621 12.9517C324.138 13.9687 324.396 15.1534 324.396 16.5057C324.396 17.858 324.138 19.0398 323.621 20.0511C323.109 21.0625 322.385 21.8494 321.447 22.4119C320.51 22.9744 319.402 23.2557 318.124 23.2557ZM318.141 20.7841C318.834 20.7841 319.413 20.5937 319.879 20.2131C320.345 19.8267 320.692 19.3097 320.919 18.6619C321.152 18.0142 321.268 17.2926 321.268 16.4972C321.268 15.696 321.152 14.9716 320.919 14.3239C320.692 13.6705 320.345 13.1506 319.879 12.7642C319.413 12.3778 318.834 12.1847 318.141 12.1847C317.43 12.1847 316.839 12.3778 316.368 12.7642C315.902 13.1506 315.553 13.6705 315.32 14.3239C315.092 14.9716 314.979 15.696 314.979 16.4972C314.979 17.2926 315.092 18.0142 315.32 18.6619C315.553 19.3097 315.902 19.8267 316.368 20.2131C316.839 20.5937 317.43 20.7841 318.141 20.7841ZM330.1 5.54545V23H327.015V5.54545H330.1ZM336.358 5.54545V23H333.273V5.54545H336.358ZM343.298 23.2642C342.468 23.2642 341.721 23.1165 341.056 22.821C340.397 22.5199 339.874 22.0767 339.488 21.4915C339.107 20.9062 338.917 20.1847 338.917 19.3267C338.917 18.5881 339.053 17.9773 339.326 17.4943C339.599 17.0114 339.971 16.625 340.442 16.3352C340.914 16.0455 341.445 15.8267 342.036 15.679C342.633 15.5256 343.249 15.4148 343.886 15.3466C344.653 15.267 345.275 15.196 345.752 15.1335C346.229 15.0653 346.576 14.9631 346.792 14.8267C347.013 14.6847 347.124 14.4659 347.124 14.1705V14.1193C347.124 13.4773 346.934 12.9801 346.553 12.6278C346.173 12.2756 345.624 12.0994 344.908 12.0994C344.153 12.0994 343.553 12.2642 343.11 12.5938C342.673 12.9233 342.377 13.3125 342.224 13.7614L339.343 13.3523C339.57 12.5568 339.945 11.892 340.468 11.358C340.991 10.8182 341.63 10.4148 342.386 10.1477C343.141 9.875 343.977 9.73864 344.891 9.73864C345.522 9.73864 346.15 9.8125 346.775 9.96023C347.4 10.108 347.971 10.3523 348.488 10.6932C349.005 11.0284 349.42 11.4858 349.732 12.0653C350.05 12.6449 350.21 13.3693 350.21 14.2386V23H347.244V21.2017H347.141C346.954 21.5653 346.69 21.9062 346.349 22.2244C346.013 22.5369 345.59 22.7898 345.079 22.983C344.573 23.1705 343.979 23.2642 343.298 23.2642ZM344.099 20.9972C344.718 20.9972 345.255 20.875 345.71 20.6307C346.164 20.3807 346.513 20.0511 346.758 19.642C347.008 19.233 347.133 18.7869 347.133 18.304V16.7614C347.036 16.8409 346.871 16.9148 346.638 16.983C346.411 17.0511 346.156 17.1108 345.871 17.1619C345.587 17.2131 345.306 17.2585 345.028 17.2983C344.749 17.3381 344.508 17.3722 344.303 17.4006C343.843 17.4631 343.431 17.5653 343.067 17.7074C342.704 17.8494 342.417 18.0483 342.207 18.304C341.996 18.554 341.891 18.8778 341.891 19.2756C341.891 19.8438 342.099 20.2727 342.513 20.5625C342.928 20.8523 343.457 20.9972 344.099 20.9972ZM353.448 23V5.54545H356.533V12.0739H356.661C356.82 11.7557 357.045 11.4176 357.335 11.0597C357.624 10.696 358.016 10.3864 358.511 10.1307C359.005 9.86932 359.636 9.73864 360.403 9.73864C361.414 9.73864 362.326 9.99716 363.138 10.5142C363.957 11.0256 364.604 11.7841 365.082 12.7898C365.565 13.7898 365.806 15.017 365.806 16.4716C365.806 17.9091 365.57 19.1307 365.099 20.1364C364.627 21.142 363.985 21.9091 363.173 22.4375C362.36 22.9659 361.44 23.2301 360.411 23.2301C359.661 23.2301 359.039 23.1051 358.545 22.8551C358.05 22.6051 357.653 22.304 357.352 21.9517C357.056 21.5937 356.826 21.2557 356.661 20.9375H356.482V23H353.448ZM356.474 16.4545C356.474 17.3011 356.593 18.0426 356.832 18.679C357.076 19.3153 357.425 19.8125 357.88 20.1705C358.34 20.5227 358.897 20.6989 359.55 20.6989C360.232 20.6989 360.803 20.517 361.263 20.1534C361.724 19.7841 362.07 19.2812 362.303 18.6449C362.542 18.0028 362.661 17.2727 362.661 16.4545C362.661 15.642 362.545 14.9205 362.312 14.2898C362.079 13.6591 361.732 13.1648 361.272 12.8068C360.812 12.4489 360.238 12.2699 359.55 12.2699C358.891 12.2699 358.332 12.4432 357.871 12.7898C357.411 13.1364 357.062 13.6222 356.823 14.2472C356.59 14.8722 356.474 15.608 356.474 16.4545ZM374.139 23.2557C372.861 23.2557 371.753 22.9744 370.815 22.4119C369.878 21.8494 369.151 21.0625 368.634 20.0511C368.122 19.0398 367.866 17.858 367.866 16.5057C367.866 15.1534 368.122 13.9687 368.634 12.9517C369.151 11.9347 369.878 11.1449 370.815 10.5824C371.753 10.0199 372.861 9.73864 374.139 9.73864C375.418 9.73864 376.526 10.0199 377.463 10.5824C378.401 11.1449 379.125 11.9347 379.636 12.9517C380.153 13.9687 380.412 15.1534 380.412 16.5057C380.412 17.858 380.153 19.0398 379.636 20.0511C379.125 21.0625 378.401 21.8494 377.463 22.4119C376.526 22.9744 375.418 23.2557 374.139 23.2557ZM374.156 20.7841C374.849 20.7841 375.429 20.5937 375.895 20.2131C376.361 19.8267 376.707 19.3097 376.935 18.6619C377.168 18.0142 377.284 17.2926 377.284 16.4972C377.284 15.696 377.168 14.9716 376.935 14.3239C376.707 13.6705 376.361 13.1506 375.895 12.7642C375.429 12.3778 374.849 12.1847 374.156 12.1847C373.446 12.1847 372.855 12.3778 372.384 12.7642C371.918 13.1506 371.568 13.6705 371.335 14.3239C371.108 14.9716 370.994 15.696 370.994 16.4972C370.994 17.2926 371.108 18.0142 371.335 18.6619C371.568 19.3097 371.918 19.8267 372.384 20.2131C372.855 20.5937 373.446 20.7841 374.156 20.7841ZM383.031 23V9.90909H386.022V12.0909H386.158C386.397 11.3352 386.806 10.7528 387.386 10.3438C387.971 9.92898 388.638 9.72159 389.388 9.72159C389.559 9.72159 389.749 9.73011 389.96 9.74716C390.175 9.75852 390.354 9.77841 390.496 9.80682V12.6449C390.366 12.5994 390.158 12.5597 389.874 12.5256C389.596 12.4858 389.326 12.4659 389.065 12.4659C388.502 12.4659 387.996 12.5881 387.548 12.8324C387.104 13.071 386.755 13.4034 386.499 13.8295C386.244 14.2557 386.116 14.7472 386.116 15.304V23H383.031ZM396.079 23.2642C395.249 23.2642 394.502 23.1165 393.837 22.821C393.178 22.5199 392.656 22.0767 392.269 21.4915C391.888 20.9062 391.698 20.1847 391.698 19.3267C391.698 18.5881 391.835 17.9773 392.107 17.4943C392.38 17.0114 392.752 16.625 393.224 16.3352C393.695 16.0455 394.227 15.8267 394.817 15.679C395.414 15.5256 396.031 15.4148 396.667 15.3466C397.434 15.267 398.056 15.196 398.533 15.1335C399.011 15.0653 399.357 14.9631 399.573 14.8267C399.795 14.6847 399.906 14.4659 399.906 14.1705V14.1193C399.906 13.4773 399.715 12.9801 399.335 12.6278C398.954 12.2756 398.406 12.0994 397.69 12.0994C396.934 12.0994 396.335 12.2642 395.891 12.5938C395.454 12.9233 395.158 13.3125 395.005 13.7614L392.124 13.3523C392.352 12.5568 392.727 11.892 393.249 11.358C393.772 10.8182 394.411 10.4148 395.167 10.1477C395.923 9.875 396.758 9.73864 397.673 9.73864C398.303 9.73864 398.931 9.8125 399.556 9.96023C400.181 10.108 400.752 10.3523 401.269 10.6932C401.786 11.0284 402.201 11.4858 402.513 12.0653C402.832 12.6449 402.991 13.3693 402.991 14.2386V23H400.025V21.2017H399.923C399.735 21.5653 399.471 21.9062 399.13 22.2244C398.795 22.5369 398.371 22.7898 397.86 22.983C397.354 23.1705 396.761 23.2642 396.079 23.2642ZM396.88 20.9972C397.499 20.9972 398.036 20.875 398.491 20.6307C398.945 20.3807 399.295 20.0511 399.539 19.642C399.789 19.233 399.914 18.7869 399.914 18.304V16.7614C399.817 16.8409 399.653 16.9148 399.42 16.983C399.192 17.0511 398.937 17.1108 398.653 17.1619C398.369 17.2131 398.087 17.2585 397.809 17.2983C397.531 17.3381 397.289 17.3722 397.085 17.4006C396.624 17.4631 396.212 17.5653 395.849 17.7074C395.485 17.8494 395.198 18.0483 394.988 18.304C394.778 18.554 394.673 18.8778 394.673 19.2756C394.673 19.8438 394.88 20.2727 395.295 20.5625C395.71 20.8523 396.238 20.9972 396.88 20.9972ZM412.63 9.90909V12.2955H405.104V9.90909H412.63ZM406.962 6.77273H410.048V19.0625C410.048 19.4773 410.11 19.7955 410.235 20.017C410.366 20.233 410.536 20.3807 410.746 20.4602C410.957 20.5398 411.19 20.5795 411.445 20.5795C411.638 20.5795 411.815 20.5653 411.974 20.5369C412.138 20.5085 412.263 20.483 412.349 20.4602L412.869 22.8722C412.704 22.929 412.468 22.9915 412.161 23.0597C411.86 23.1278 411.491 23.1676 411.053 23.179C410.281 23.2017 409.585 23.0852 408.965 22.8295C408.346 22.5682 407.854 22.1648 407.491 21.6193C407.133 21.0739 406.957 20.392 406.962 19.5739V6.77273ZM420.78 23.2557C419.501 23.2557 418.393 22.9744 417.456 22.4119C416.518 21.8494 415.791 21.0625 415.274 20.0511C414.763 19.0398 414.507 17.858 414.507 16.5057C414.507 15.1534 414.763 13.9687 415.274 12.9517C415.791 11.9347 416.518 11.1449 417.456 10.5824C418.393 10.0199 419.501 9.73864 420.78 9.73864C422.058 9.73864 423.166 10.0199 424.104 10.5824C425.041 11.1449 425.766 11.9347 426.277 12.9517C426.794 13.9687 427.053 15.1534 427.053 16.5057C427.053 17.858 426.794 19.0398 426.277 20.0511C425.766 21.0625 425.041 21.8494 424.104 22.4119C423.166 22.9744 422.058 23.2557 420.78 23.2557ZM420.797 20.7841C421.49 20.7841 422.07 20.5937 422.536 20.2131C423.001 19.8267 423.348 19.3097 423.575 18.6619C423.808 18.0142 423.925 17.2926 423.925 16.4972C423.925 15.696 423.808 14.9716 423.575 14.3239C423.348 13.6705 423.001 13.1506 422.536 12.7642C422.07 12.3778 421.49 12.1847 420.797 12.1847C420.087 12.1847 419.496 12.3778 419.024 12.7642C418.558 13.1506 418.209 13.6705 417.976 14.3239C417.749 14.9716 417.635 15.696 417.635 16.4972C417.635 17.2926 417.749 18.0142 417.976 18.6619C418.209 19.3097 418.558 19.8267 419.024 20.2131C419.496 20.5937 420.087 20.7841 420.797 20.7841ZM429.671 23V9.90909H432.663V12.0909H432.799C433.038 11.3352 433.447 10.7528 434.026 10.3438C434.612 9.92898 435.279 9.72159 436.029 9.72159C436.2 9.72159 436.39 9.73011 436.6 9.74716C436.816 9.75852 436.995 9.77841 437.137 9.80682V12.6449C437.006 12.5994 436.799 12.5597 436.515 12.5256C436.237 12.4858 435.967 12.4659 435.705 12.4659C435.143 12.4659 434.637 12.5881 434.188 12.8324C433.745 13.071 433.396 13.4034 433.14 13.8295C432.884 14.2557 432.756 14.7472 432.756 15.304V23H429.671Z" fill="#D171FF"/>
</svg>
