<svg width="564" height="450" viewBox="0 0 564 450" fill="none" xmlns="http://www.w3.org/2000/svg">
<g clip-path="url(#clip0_1403_224)">
<path d="M429.739 398.544H218.594C214.247 398.544 210.724 395.102 210.724 390.856V366.971C210.724 362.725 214.247 359.282 218.594 359.282H429.739C434.086 359.282 437.61 362.725 437.61 366.971V390.856C437.61 395.102 434.086 398.544 429.739 398.544Z" fill="url(#paint0_linear_1403_224)"/>
<path d="M510.835 381.059H133.731C124.616 381.059 117.227 374.009 117.227 365.311V43.9945C117.227 35.298 124.616 28.2469 133.731 28.2469H510.835C519.951 28.2469 527.339 35.298 527.339 43.9945V204.134H450.987C444.288 204.134 438.857 209.317 438.857 215.709V357.899C438.857 364.291 444.288 369.473 450.987 369.473H526.757C524.844 376.151 518.44 381.059 510.835 381.059Z" fill="url(#paint1_linear_1403_224)"/>
<path d="M169.927 271.98C159.779 268.388 153.428 259.098 153.287 249.145C153.253 246.773 153.572 244.363 154.276 241.983C154.432 241.457 154.607 240.932 154.8 240.411C156.743 235.173 160.315 230.97 164.754 228.151C171.162 224.082 179.376 222.894 187.114 225.633C189.669 226.537 191.982 227.802 194.016 229.347C202.418 235.728 206.063 246.897 202.243 257.2C197.496 269.999 183.03 276.615 169.927 271.98V271.98ZM210.159 260.004C215.256 246.261 210.394 231.365 199.188 222.851C196.475 220.79 193.391 219.103 189.982 217.897C179.662 214.246 168.703 215.828 160.159 221.255C154.236 225.016 149.472 230.622 146.882 237.609C146.624 238.304 146.391 239.005 146.183 239.705C145.245 242.88 144.818 246.094 144.865 249.258C145.052 262.535 153.524 274.926 167.06 279.717C184.534 285.9 203.829 277.074 210.159 260.004" fill="white"/>
<path d="M164.753 228.151L160.158 221.256C168.702 215.829 179.662 214.246 189.982 217.898C193.39 219.104 196.475 220.791 199.188 222.852L194.016 229.347C191.982 227.803 189.669 226.537 187.113 225.634C179.376 222.895 171.161 224.083 164.753 228.151" fill="#1A598C"/>
<path d="M154.276 241.983L146.183 239.705C146.39 239.005 146.623 238.304 146.881 237.611C149.472 230.622 154.236 225.016 160.158 221.255L164.753 228.151C160.314 230.97 156.743 235.173 154.799 240.412C154.606 240.932 154.432 241.457 154.276 241.983" fill="#2273B5"/>
<path d="M144.865 249.258C144.818 246.094 145.245 242.879 146.183 239.705L154.276 241.983C153.572 244.363 153.253 246.773 153.287 249.146L144.865 249.258Z" fill="#3D96E0"/>
<path d="M266.818 273.027C256.211 271.076 248.414 262.904 246.637 253.102C246.214 250.767 246.131 248.337 246.436 245.878C246.504 245.333 246.589 244.789 246.695 244.243C247.75 238.768 250.584 234.06 254.502 230.581C260.156 225.558 268.07 223.096 276.158 224.585C278.828 225.076 281.319 225.962 283.581 227.166C292.923 232.146 298.358 242.599 296.282 253.368C293.703 266.745 280.511 275.546 266.818 273.027V273.027ZM304.558 254.891C307.326 240.528 300.079 226.588 287.617 219.945C284.601 218.337 281.278 217.155 277.717 216.501C266.93 214.516 256.373 217.799 248.832 224.496C243.606 229.137 239.827 235.417 238.418 242.721C238.278 243.448 238.163 244.176 238.072 244.899C237.669 248.18 237.776 251.419 238.343 254.535C240.711 267.609 251.112 278.509 265.258 281.113C283.523 284.473 301.117 272.735 304.558 254.891Z" fill="white"/>
<path d="M254.503 230.581L248.833 224.496C256.374 217.799 266.931 214.516 277.718 216.501C281.279 217.155 284.602 218.337 287.618 219.945L283.582 227.166C281.32 225.962 278.829 225.076 276.159 224.585C268.071 223.096 260.157 225.558 254.503 230.581" fill="#4B59C7"/>
<path d="M246.437 245.877L238.073 244.899C238.164 244.176 238.279 243.447 238.419 242.721C239.828 235.417 243.607 229.137 248.833 224.495L254.503 230.58C250.585 234.059 247.751 238.768 246.695 244.243C246.59 244.789 246.505 245.333 246.437 245.877Z" fill="#6F5BE0"/>
<path d="M238.343 254.535C237.776 251.419 237.669 248.18 238.072 244.899L246.436 245.878C246.131 248.337 246.214 250.767 246.637 253.103L238.343 254.535" fill="#B487FE"/>
<path d="M386.731 260.383C381.661 269.693 371.352 274.525 361.244 273.259C358.835 272.959 356.438 272.31 354.125 271.292C353.614 271.068 353.107 270.825 352.606 270.565C347.57 267.948 343.815 263.901 341.583 259.21C338.363 252.44 338.317 244.327 342.183 237.23C343.459 234.886 345.067 232.828 346.92 231.077C354.57 223.851 366.403 221.899 376.307 227.046C388.609 233.441 393.275 248.366 386.731 260.383ZM380.262 219.784C367.054 212.919 351.274 215.522 341.066 225.16C338.596 227.494 336.451 230.24 334.748 233.364C329.593 242.832 329.653 253.654 333.948 262.683C336.924 268.941 341.934 274.337 348.651 277.828C349.318 278.175 349.994 278.5 350.676 278.799C353.76 280.156 356.959 281.02 360.171 281.421C373.652 283.11 387.404 276.663 394.165 264.248C402.895 248.219 396.67 228.313 380.262 219.784" fill="white"/>
<path d="M341.583 259.21L333.948 262.684C329.653 253.654 329.593 242.833 334.748 233.365C336.451 230.24 338.596 227.494 341.066 225.16L346.92 231.077C345.067 232.828 343.459 234.887 342.183 237.231C338.317 244.328 338.363 252.44 341.583 259.21" fill="#1A598C"/>
<path d="M354.124 271.292L350.675 278.799C349.994 278.5 349.317 278.175 348.65 277.828C341.934 274.337 336.923 268.94 333.947 262.683L341.583 259.209C343.814 263.901 347.569 267.947 352.605 270.565C353.106 270.825 353.614 271.068 354.124 271.292Z" fill="#2273B5"/>
<path d="M360.17 281.421C356.958 281.02 353.759 280.156 350.675 278.8L354.124 271.292C356.437 272.31 358.833 272.959 361.243 273.259L360.17 281.421" fill="#3788CC"/>
<path d="M144.86 302.381H212.181V297.308H144.86V302.381Z" fill="#FAF9FD"/>
<path d="M144.86 313.16H195.24V308.087H144.86V313.16Z" fill="#FAF9FD"/>
<path d="M237.828 302.381H274.949V297.308H237.828V302.381Z" fill="#C4C4C4"/>
<path d="M237.828 313.16H292.929V308.087H237.828V313.16Z" fill="#C4C4C4"/>
<path d="M378.162 302.381H336.905V297.308H378.162V302.381Z" fill="#FAF9FD"/>
<path d="M384.693 313.16H336.905V308.087H384.693V313.16" fill="#FAF9FD"/>
<path d="M490.29 100.526H441.336V95.7276H490.29V100.526Z" fill="#B8D6FF"/>
<path d="M489.864 160.509H440.91V155.711H489.864V160.509Z" fill="#B8D6FF"/>
<path d="M497.603 115.635H441.336V110.835H497.603V115.635Z" fill="#B8D6FF"/>
<path d="M474.329 130.518H440.91V125.719H474.329V130.518Z" fill="#B8D6FF"/>
<path d="M470.363 175.505H441.253V170.707H470.363V175.505Z" fill="#B8D6FF"/>
<path d="M480.058 145.514H440.91V140.715H480.058V145.514Z" fill="#B8D6FF"/>
<path d="M144.86 337.226H359.072V332.318H144.86V337.226Z" fill="white"/>
<path d="M144.86 348.677H376.32V343.769H144.86V348.677Z" fill="white"/>
<path d="M144.86 360.128H295.046V355.22H144.86V360.128Z" fill="white"/>
<path d="M144.86 337.226H256.399V332.318H144.86V337.226Z" fill="#FFA347"/>
<path d="M144.86 348.677H265.38V343.769H144.86V348.677Z" fill="#FFA347"/>
<path d="M223.061 360.128H144.86V355.22H223.061V360.128Z" fill="#FFA347"/>
<path d="M219.786 177.285H176.153V172.034H219.786V177.285Z" fill="white"/>
<path d="M230.373 167.934H165.566V162.682H230.373V167.934Z" fill="white"/>
<path d="M209.335 90.5961C209.335 96.6744 204.291 101.602 198.068 101.602C191.846 101.602 186.803 96.6744 186.803 90.5961C186.803 84.5179 191.846 79.5896 198.068 79.5896C204.291 79.5896 209.335 84.5179 209.335 90.5961Z" fill="url(#paint2_linear_1403_224)"/>
<path d="M218.392 126.476V147.408C212.169 150.172 205.252 151.708 197.97 151.708C190.689 151.708 183.771 150.172 177.549 147.408V126.476C177.549 115.462 186.688 106.526 197.97 106.526C209.253 106.526 218.392 115.462 218.392 126.476" fill="url(#paint3_linear_1403_224)"/>
<path d="M373.417 80.9272H268.476V74.3189H373.417V80.9272Z" fill="white"/>
<path d="M425.475 80.9272H384.692V74.3189H425.475V80.9272Z" fill="white"/>
<path d="M317.754 65.877H268.476V59.2685H317.754V65.877Z" fill="white"/>
<path d="M270.007 178.39H269.126V100.072H270.007V178.39Z" fill="#BDE1FF"/>
<path d="M292.343 178.39H291.462V100.072H292.343V178.39Z" fill="#BDE1FF"/>
<path d="M314.678 178.39H313.797V100.072H314.678V178.39Z" fill="#BDE1FF"/>
<path d="M337.015 178.39H336.134V100.072H337.015V178.39Z" fill="#BDE1FF"/>
<path d="M359.351 178.39H358.469V100.072H359.351V178.39Z" fill="#BDE1FF"/>
<path d="M381.685 178.39H380.805V100.072H381.685V178.39Z" fill="#BDE1FF"/>
<path d="M404.02 178.39H403.14V100.072H404.02V178.39Z" fill="#BDE1FF"/>
<path d="M426.356 178.39H425.475V100.072H426.356V178.39Z" fill="#BDE1FF"/>
<path d="M269.566 152.456L284.778 137.596L292.182 144.829L308.367 129.019L321.19 141.546L337.602 125.513L348.847 136.499L377.478 108.528L398.937 129.491L411.931 116.796L425.916 130.458V178.39H269.566V152.456" fill="#2D90DE"/>
<path d="M269.566 162.298L281.727 150.42L289.412 157.927L298.307 149.235L315.071 165.61L336.028 145.136L343.545 152.48L365.167 131.357L384.915 150.648L425.88 110.628V178.39H269.566V162.298" fill="#2A50D3"/>
<path d="M278.487 93.4734H269.126V95.4102H278.487V93.4734Z" fill="#BDE1FF"/>
<path d="M297.869 93.4734H291.462V95.4102H297.869V93.4734Z" fill="#BDE1FF"/>
<path d="M321.71 93.4734H313.797V95.4102H321.71V93.4734Z" fill="#BDE1FF"/>
<path d="M342.028 93.4734H336.134V95.4102H342.028V93.4734Z" fill="#BDE1FF"/>
<path d="M363.392 93.4734H358.469V95.4102H363.392V93.4734Z" fill="#BDE1FF"/>
<path d="M390.372 93.4734H380.805V95.4102H390.372V93.4734Z" fill="#BDE1FF"/>
<path d="M409.807 93.4734H403.14V95.4102H409.807V93.4734Z" fill="#BDE1FF"/>
<path d="M429.683 93.4734H425.475V95.4102H429.683V93.4734Z" fill="#BDE1FF"/>
<path d="M551.279 369.473H449.878C443.335 369.473 438.029 364.291 438.029 357.899V215.708C438.029 209.316 443.335 204.134 449.878 204.134H551.279C557.819 204.13 563.128 209.316 563.128 215.708V357.896C563.128 364.293 557.819 369.471 551.279 369.473Z" fill="url(#paint4_linear_1403_224)"/>
<path d="M471.271 342.426H467.586V231.182H471.271V342.426" fill="white"/>
<path d="M492.037 342.426H488.353V231.182H492.037V342.426" fill="white"/>
<path d="M512.919 342.081H509.234V230.836H512.919V342.081Z" fill="white"/>
<path d="M533.565 342.426H529.881V231.182H533.565V342.426Z" fill="white"/>
<path d="M493.655 294.002H486.733V248.851H493.655V294.002Z" fill="url(#paint5_linear_1403_224)"/>
<path d="M472.658 309.583H465.736V264.432H472.658V309.583Z" fill="url(#paint6_linear_1403_224)"/>
<path d="M514.421 319.357H507.499V274.206H514.421V319.357Z" fill="url(#paint7_linear_1403_224)"/>
<path d="M535.184 314.124H528.262V268.971H535.184V314.124Z" fill="url(#paint8_linear_1403_224)"/>
<path d="M197.969 56.4723C171.461 56.4723 149.895 77.5405 149.895 103.436C149.895 121.817 160.967 138.608 178.102 146.216C184.351 148.992 191.036 150.4 197.969 150.4C204.903 150.4 211.588 148.992 217.836 146.216C234.971 138.608 246.043 121.817 246.043 103.436C246.043 77.5405 224.478 56.4723 197.969 56.4723V56.4723ZM197.969 153.017C190.65 153.017 183.593 151.531 176.992 148.599C158.905 140.567 147.216 122.84 147.216 103.436C147.216 76.0968 169.983 53.8551 197.969 53.8551C225.954 53.8551 248.723 76.0968 248.723 103.436C248.723 122.84 237.034 140.567 218.945 148.599C212.346 151.531 205.289 153.017 197.969 153.017Z" fill="white"/>
<path d="M178.517 281.691C174.713 281.691 170.842 281.055 167.059 279.717C165.944 279.323 164.863 278.877 163.819 278.382C163.868 275.311 164.099 272.283 164.507 269.309C166.161 270.386 167.974 271.288 169.927 271.98C172.765 272.984 175.665 273.461 178.519 273.461C188.839 273.461 198.524 267.228 202.242 257.201C206.063 246.897 202.418 235.728 194.016 229.347L197.796 224.599C198.799 224.57 199.912 224.552 201.124 224.552C201.165 224.552 201.206 224.552 201.249 224.552C210.972 233.255 214.932 247.136 210.159 260.004C205.2 273.378 192.283 281.692 178.517 281.691V281.691ZM187.114 225.634C187.083 225.623 187.052 225.611 187.022 225.601C187.052 225.611 187.083 225.623 187.114 225.634ZM187.003 225.595C186.976 225.584 186.947 225.576 186.92 225.565C186.947 225.576 186.976 225.584 187.003 225.595Z" fill="#F8F8F8"/>
<path d="M271.527 281.687C269.461 281.687 267.364 281.5 265.26 281.113C251.113 278.509 240.713 267.609 238.345 254.535L246.639 253.103C246.387 251.715 246.256 250.295 246.254 248.856C246.256 250.295 246.387 251.715 246.639 253.103C248.416 262.904 256.212 271.076 266.819 273.027C268.397 273.318 269.967 273.458 271.516 273.458C278.41 273.458 284.868 270.685 289.521 266.048C291.13 268.276 292.683 270.628 294.167 273.098C288.093 278.502 280.063 281.688 271.527 281.687V281.687ZM300.617 232.343C296.747 227.808 292.331 223.733 287.467 220.216L287.619 219.945C287.026 219.628 286.42 219.329 285.803 219.046C286.42 219.329 287.026 219.628 287.619 219.945C293.094 222.864 297.562 227.19 300.617 232.343Z" fill="#F8F8F8"/>
<path d="M287.466 220.216C286.917 219.818 286.363 219.428 285.802 219.046C286.419 219.329 287.025 219.628 287.618 219.945L287.466 220.216" fill="#5663C5"/>
<path d="M246.437 245.877L238.073 244.899C238.164 244.176 238.279 243.447 238.419 242.721C239.205 238.647 240.728 234.891 242.829 231.56C245.46 232.494 248.109 233.546 250.767 234.734C248.795 237.503 247.376 240.714 246.695 244.243C246.59 244.789 246.505 245.333 246.437 245.877" fill="#7664DC"/>
<path d="M238.344 254.535C238.008 252.685 237.832 250.792 237.831 248.872C237.83 247.558 237.909 246.232 238.073 244.899L246.437 245.878C246.313 246.877 246.254 247.871 246.254 248.856C246.255 250.295 246.387 251.715 246.638 253.103L238.344 254.535" fill="#B48CF7"/>
<path d="M237.828 302.381H274.949V297.308H237.828V302.381Z" fill="#FAF9FD"/>
<path d="M237.828 313.16H292.929V308.087H237.828V313.16Z" fill="#FAF9FD"/>
<path d="M294.685 337.226H256.398V332.319H185.228H299.868C298.219 334.029 296.487 335.668 294.685 337.226Z" fill="#F8F8F8"/>
<path d="M277.189 348.677H265.38V343.769H199.143H285.953C283.151 345.582 280.228 347.221 277.189 348.677Z" fill="#F8F8F8"/>
<path d="M242.547 356.502C237.632 356.502 232.822 356.062 228.156 355.22H256.938C252.272 356.062 247.462 356.502 242.547 356.502" fill="#F8F8F8"/>
<path d="M256.398 337.226H190.411C188.609 335.668 186.877 334.029 185.228 332.319H256.398V337.226" fill="#F8A553"/>
<path d="M265.38 348.677H207.907C204.869 347.221 201.945 345.582 199.143 343.769H265.38V348.677" fill="#F8A553"/>
<path d="M294.165 273.098C292.682 270.628 291.128 268.276 289.52 266.048C292.894 262.686 295.323 258.342 296.282 253.368C298.358 242.599 292.923 232.146 283.581 227.167L287.612 219.946C292.655 222.594 297.301 226.797 300.615 232.343C304.513 238.919 306.11 246.838 304.558 254.891C303.151 262.185 299.38 268.459 294.165 273.098ZM254.585 230.508C259.122 226.512 265.099 224.157 271.446 224.155C265.099 224.158 259.122 226.512 254.585 230.508ZM249.109 224.252C255.144 219.011 263.049 215.928 271.442 215.927C263.05 215.929 255.142 219.011 249.109 224.252Z" fill="#D6DCE8"/>
<path d="M254.503 230.581L248.833 224.496C248.877 224.457 248.92 224.418 248.964 224.38C249.013 224.338 249.061 224.295 249.11 224.252C255.143 219.011 263.051 215.929 271.443 215.927C271.446 215.927 271.449 215.927 271.451 215.927C271.453 215.927 271.454 215.927 271.454 215.927C273.481 215.927 275.535 216.106 277.599 216.478C277.614 216.482 277.629 216.484 277.642 216.486C277.668 216.491 277.693 216.495 277.718 216.501C280.578 217.026 283.285 217.892 285.802 219.046C286.363 219.428 286.917 219.818 287.467 220.216L283.582 227.166C281.32 225.962 278.829 225.076 276.159 224.585C276.146 224.583 276.134 224.581 276.121 224.579C276.096 224.574 276.069 224.568 276.044 224.564C274.506 224.288 272.973 224.155 271.462 224.155C271.461 224.155 271.461 224.155 271.459 224.155C271.455 224.155 271.451 224.155 271.447 224.155C265.1 224.157 259.123 226.512 254.586 230.508C254.571 230.52 254.555 230.533 254.54 230.547C254.527 230.558 254.516 230.569 254.503 230.581" fill="#6474C4"/>
<path d="M250.766 234.735C248.108 233.547 245.459 232.494 242.828 231.561C244.493 228.921 246.521 226.548 248.832 224.496L254.502 230.581C253.109 231.817 251.854 233.208 250.766 234.735" fill="#7B74D4"/>
<path d="M21.7461 431.051C21.7461 431.051 20.9466 436.691 20.8467 437.539C20.7467 438.387 11.9552 437.04 11.9552 437.04L11.2431 430.323C11.2431 430.323 20.6468 430.254 21.7461 431.051Z" fill="#5C544D"/>
<path d="M21.1287 436.285C21.1287 436.285 23.8577 439.314 26.495 440.635C29.1323 441.955 33.279 442.479 34.8386 443.846C35.964 444.832 38.9401 449.081 27.9837 448.995C17.0272 448.909 11.7441 449.594 10.5698 447.965C9.39677 446.338 12.2689 435.945 12.2689 435.945C12.2689 435.945 14.8633 436.809 21.1287 436.285" fill="#1C1E26"/>
<path d="M81.8994 431.051C81.8994 431.051 81.1736 436.691 81.0828 437.539C80.9919 438.387 72.9986 437.04 72.9986 437.04L72.3513 430.323C72.3513 430.323 80.9 430.254 81.8994 431.051Z" fill="#5C544D"/>
<path d="M82.1364 436.286C82.1364 436.286 84.8377 439.327 87.4518 440.652C90.0658 441.977 99.682 443.067 101.228 444.437C102.345 445.429 104.199 449.415 88.9254 449.042C78.0742 448.777 72.8377 449.644 71.6755 448.009C70.5121 446.375 73.3576 435.945 73.3576 435.945C73.3576 435.945 75.7801 436.87 82.1364 436.286" fill="#1C1E26"/>
<path d="M24.8558 299.108C24.8558 299.108 20.3099 311.834 20.9092 322.8C21.5074 333.766 18.5592 345.766 17.3545 357.223C16.0115 369.994 10.5121 400.228 10.3131 407.06C10.1129 413.892 11.166 435.705 11.166 435.705L22.1734 435.945C22.1734 435.945 31.4168 383.088 33.8104 377.695C36.2041 372.301 48.0764 333.851 48.4756 329.536C48.8735 325.223 24.8558 299.108 24.8558 299.108Z" fill="#20284D"/>
<path d="M70.545 300.979C70.545 300.979 76.5479 331.123 77.3392 337.855C78.1318 344.587 78.6606 370.431 79.0568 374.638C79.4531 378.846 81.697 429.693 83.8096 435.945H69.8404C69.8404 435.945 59.1172 398.98 59.1172 381.49C59.1172 364.001 50.833 343.469 45.4864 331.929C40.1375 320.39 27.8967 320.117 24.6109 298.707C24.6109 298.707 66.0946 294.188 70.545 300.979" fill="#20284D"/>
<path d="M42.7728 198.819C42.7728 198.819 53.4833 195.02 58.4214 202.762C63.3607 210.503 62.885 226.002 57.4865 227.907C52.0868 229.814 43.9761 228.816 41.2123 223.972C38.4498 219.128 35.9532 212.125 36.0727 207.445C36.1934 202.765 39.9611 200.17 42.7728 198.819" fill="#EEA886"/>
<path d="M55.8063 228.068C55.8063 228.068 55.3695 230.789 56.0927 232.127C56.8148 233.467 42.4814 233.501 42.4814 233.501C42.4814 233.501 41.3167 226.214 39.1114 220.056C36.9062 213.899 55.8063 228.068 55.8063 228.068" fill="#EEA886"/>
<path d="M39.1695 220.218C39.1695 220.218 40.1618 221.785 44.2105 221.177C48.2603 220.569 53.2004 215.41 54.8906 214.844C56.582 214.277 56.5975 213.326 56.5975 213.326L57.6562 214.807L59.4521 214.916C59.4521 214.916 57.8141 210.302 60.2853 208.419C62.7566 206.537 57.7215 193.483 44.7339 197.83C44.7339 197.83 34.76 200.461 35.1232 205.894C35.484 211.326 36.938 217.513 39.1695 220.218" fill="black"/>
<path d="M57.0742 231.309C57.0742 231.309 57.0288 228.977 55.809 228.753C54.5879 228.529 42.3403 227.51 40.8423 228.019V230.735C40.8423 230.735 43.7273 232.275 57.0742 231.309" fill="#E2D2CA"/>
<path d="M55.8225 211.117C55.6115 210.204 53.3591 207.597 52.4974 210.388C51.6358 213.18 53.7998 216.933 55.0084 216.612C56.2147 216.291 56.3583 213.429 55.8225 211.117" fill="#EEA886"/>
<path d="M57.0247 231.33C57.0247 231.33 63.8057 233.662 71.6593 236.857C71.6593 236.857 80.6942 240.084 81.6741 249.632C82.1924 254.699 87.8319 281.596 88.889 283.873C89.946 286.148 102.451 322.709 102.892 323.468C103.332 324.226 92.6856 328.456 91.9805 328.118C91.2767 327.78 79.8734 294.771 78.7284 292.327C78.7284 292.327 72.1643 272.535 71.9884 269.584C71.9884 269.584 71.7992 277.993 71.4472 280.353C71.0941 282.714 77.2844 328.544 77.1084 329.809C76.9325 331.073 48.9794 332.679 37.7907 331.5C26.6032 330.319 17.5756 327.857 17.5756 327.857C17.5756 327.857 26.379 291.688 26.109 287.677C25.5196 278.94 22.4678 262.483 22.4678 262.483L13.3462 278.94L25.0242 307.685L22.3485 316.422C22.3485 316.422 0.650879 285.048 -0.0542162 282.181C-0.758106 279.315 1.01006 275.665 2.15509 273.304C3.30012 270.945 10.8211 252.98 12.5832 250.451C14.3453 247.922 17.3224 237.796 24.5192 234.978C30.536 232.621 40.634 230.69 40.634 230.69L57.0247 231.33" fill="#313D75"/>
<path d="M71.931 339.409L122.956 327.065L113.829 293.485L62.8026 305.828L71.931 339.409" fill="#C4C4C4"/>
<path d="M107.215 330.974C107.215 330.974 108.874 332.723 109.48 333.222C110.085 333.72 107.991 334.034 107.094 333.529C106.195 333.023 107.215 330.974 107.215 330.974Z" fill="#C98462"/>
<path d="M97.0718 338.303C97.0718 338.303 96.221 337.451 96.038 336.903C96.038 336.903 95.785 335.886 95.5592 335.171C95.4867 334.944 95.419 334.75 95.3608 334.627C95.1196 334.119 94.4304 333.068 94.2082 331.688C93.986 330.309 93.3574 324.119 93.3574 324.119L97.2619 323.175L100.398 322.539C100.398 322.539 107.172 329.028 107.534 330.289C107.568 330.414 107.598 330.536 107.616 330.654C107.814 331.752 107.483 332.648 107.519 333.236C107.53 333.451 107.498 335.604 106.976 336.004C106.251 336.566 105.513 336.671 104.906 336.484C104.906 336.484 103.438 337.521 102.213 337.458C102.213 337.458 100.89 338.456 99.3888 337.961C99.3888 337.961 97.9285 338.828 97.0718 338.303" fill="#DE9D7D"/>
<path d="M80.9445 298.482C80.9445 298.482 90.1472 325.342 91.8369 328.162C91.8369 328.162 98.587 326.796 102.905 323.411L92.8003 294.422L80.9445 298.482Z" fill="#313D75"/>
<path d="M95.779 273.384C95.779 273.384 105.18 252.578 94.2737 254.3C94.2737 254.3 90.561 257.299 86.7507 263.407C83.864 268.034 77.8635 280.279 78.0861 284.421C78.3075 288.562 81.3239 291.651 84.58 298.302C84.58 298.302 91.348 310.647 91.6337 312.135L98.7896 308.506C98.7896 308.506 92.726 296.702 88.4522 286.324L95.779 273.384" fill="#5B70E0"/>
<path d="M150.195 449.648H151.97C151.97 449.648 151.378 443.102 153.021 443.039C154.661 442.974 158.733 448.365 161.164 449.2C163.593 450.032 176.072 450.737 176.138 448.492C176.204 446.248 171.345 445.347 169.834 444.707C168.324 444.066 160.967 437.072 159.653 436.238C158.34 435.403 156.098 429.604 156.098 429.604L149.132 429.303C149.132 429.303 148.739 434.723 148.317 437.592C148.16 438.655 148.046 439.622 148.029 440.281C147.963 442.719 150.195 449.648 150.195 449.648" fill="#EEA886"/>
<path d="M105.32 448.354H106.799V442.262C108.029 442.364 112.168 446.189 113.449 447.297C114.728 448.403 116.485 448.354 121.881 448.688C127.274 449.025 127.782 445.87 126.929 444.796C126.075 443.722 123.316 443.252 121.881 442.582C120.444 441.911 114.779 435.669 113.268 434.192C111.758 432.717 110.838 428.488 110.838 428.488L104.532 429.025C104.532 429.025 104.573 432.894 103.854 436.139V436.14L103.848 436.164C103.787 436.441 103.72 436.713 103.646 436.977C102.71 440.35 105.32 448.354 105.32 448.354" fill="#EEA886"/>
<path d="M128.634 310.28C128.634 310.28 131.017 315.786 131.228 317.176C131.438 318.567 137.016 331.738 138.629 340.619C139.595 345.935 142.262 362.578 142.478 364.693C142.847 368.314 144.593 376.309 144.862 380.007C145.012 382.075 155.437 413.815 157.96 430.385C157.96 430.385 151.964 431.252 147.46 430.089C147.46 430.089 138.308 412.964 133.227 388.671C130.167 374.041 127.459 366.24 125.089 360.214C122.718 354.189 109.289 337.123 107.887 335.206C106.485 333.289 97.702 322.693 106.019 311.214C114.335 299.735 128.634 310.28 128.634 310.28" fill="#1D3B54"/>
<path d="M98.6111 359.037C99.3718 363.98 98.5721 370.472 96.983 388.54C95.3928 406.608 99.7641 428.487 99.7641 428.487C105.254 430.323 111.577 428.487 111.577 428.487C111.431 427.217 111.577 384.445 111.577 380.634C111.577 376.823 112.697 372.498 112.985 368.123C113.182 365.142 114.602 359.646 116.2 354.035C116.678 352.353 117.173 350.664 117.653 349.027V349.026C117.925 348.108 118.189 347.205 118.447 346.333C120.697 338.711 123.723 309.278 123.723 309.278C123.723 309.278 106.953 296.082 98.7889 308.505C90.6234 320.927 94.8157 329.959 95.1037 331.513C95.3928 333.067 97.8504 354.097 98.6111 359.037" fill="#1D3B54"/>
<path d="M105.564 332.492C105.695 332.774 114.05 350.892 116.2 354.034C116.679 352.353 117.173 350.664 117.654 349.026V349.025C117.654 349.025 105.844 332.89 105.564 332.492" fill="#122536"/>
<path d="M105.32 448.354H106.799V442.262C108.029 442.364 112.168 446.189 113.449 447.297C114.728 448.403 116.485 448.354 121.881 448.688C127.274 449.025 127.782 445.87 126.929 444.796C126.075 443.722 123.316 443.251 121.881 442.582C116.109 442.883 109.068 434.958 105.688 434.974C103.892 434.983 103.909 435.955 103.854 436.139V436.14L103.848 436.164C103.787 436.441 103.72 436.713 103.646 436.977C102.71 440.35 105.32 448.354 105.32 448.354" fill="#172F42"/>
<path d="M150.195 449.648H151.97C151.97 449.648 151.378 443.102 153.021 443.039C154.661 442.974 158.733 448.365 161.164 449.2C163.593 450.032 176.072 450.737 176.138 448.492C176.204 446.248 171.345 445.347 169.834 444.707C164.687 444.695 156.317 439.162 153.721 438.04C151.127 436.919 148.317 437.592 148.317 437.592C148.16 438.655 148.046 439.622 148.029 440.281C147.963 442.719 150.195 449.648 150.195 449.648" fill="#172F42"/>
<path d="M113.827 241.185C113.827 241.185 111.152 248.102 113.233 253.446C113.233 253.446 103.421 252.823 103.049 251.705C102.678 250.585 103.444 240.223 102.095 237.16C100.745 234.098 113.827 241.185 113.827 241.185" fill="#EEA886"/>
<path d="M114.775 251.107C114.775 251.107 120.572 253.12 123.193 253.681C125.812 254.24 131.294 256.777 130.848 266.326C130.403 275.874 128.766 284.155 128.172 288.258C127.578 292.362 127.95 302.807 128.916 307.878C128.916 307.878 115.017 311.309 98.6641 307.878C98.6641 307.878 101.563 299.225 101.489 296.986C101.414 294.749 91.826 276.323 91.3797 273.413C90.9334 270.503 89.0013 257.672 93.3875 254.838C97.7726 252.002 101.34 252.375 103.198 251.107C105.056 249.839 112.063 250.197 114.775 251.107Z" fill="#5B70E0"/>
<path d="M92.4051 322.885C116.151 329.039 135.049 322.909 135.049 322.909C133.326 319.448 132.058 315.996 131.14 312.655L131.139 312.652C130.488 310.289 130.014 307.986 129.676 305.77V305.769C127.746 293.13 130.263 283.453 130.263 283.453C127.522 261.415 93.3883 254.837 90.6543 261.823C87.9202 268.809 95.9515 298.831 96.3588 301.405C96.7661 303.977 92.4051 322.885 92.4051 322.885" fill="#5B70E0"/>
<path d="M105.275 213.437C109.22 212.116 119.882 210.709 122.613 226.696C125.344 242.683 119.396 242.958 113.284 242.503C107.173 242.049 97.6136 231.257 96.8816 227.977C96.1496 224.697 94.0213 217.209 105.275 213.437" fill="#EEA886"/>
<path d="M120.415 219.577C120.415 219.577 117.159 226.383 112.886 228.756C112.886 228.756 110.21 235.987 104.415 238.913C104.415 238.913 89.0365 228.96 97.9604 217.134C106.884 205.307 119.407 214.725 120.415 219.577Z" fill="black"/>
<path d="M113.266 226.397C112.919 225.565 110.614 224.212 109.58 226.494C108.547 228.776 112.258 232.795 113.276 232.579C114.292 232.362 114.578 229.553 113.266 226.397" fill="#EEA886"/>
<path d="M98.4805 218.961C98.1443 218.449 87.9607 213.844 85.8427 223.467C83.7247 233.092 94.0438 244.282 95.852 249.094C97.6613 253.905 95.0362 265.183 95.0362 265.183C95.0362 265.183 101.246 259.449 103.124 253.446C105.187 246.855 105.88 230.235 98.4805 218.961Z" fill="black"/>
<path d="M97.9678 218.633C97.9678 218.633 101.085 221.042 101.487 224.844C101.487 224.844 102.072 221.879 100.814 220.067C99.558 218.255 97.9678 218.633 97.9678 218.633" fill="#E54242"/>
<path d="M131.139 312.651C130.488 310.288 130.015 307.985 129.676 305.769V305.768C129.676 305.768 128.112 302.516 127.583 300.962C127.054 299.408 123.124 280.303 123.124 280.303C123.124 280.303 118.965 298.246 131.139 312.651" fill="#1D3B54"/>
<path d="M148.621 313.761C148.621 313.761 151.682 316.73 152.672 317.03C153.663 317.33 155.572 315.682 162.604 315.172C163.221 315.127 164.306 315.67 164.05 316.467C163.795 317.264 160.735 319.431 159.424 319.762C158.115 320.093 151.936 322.491 148.924 321.314C145.912 320.136 143.863 316.394 143.863 316.394L148.621 313.761Z" fill="#EEA886"/>
<path d="M124.833 254.205C124.833 254.205 132.966 257.353 133.446 268.393C133.928 279.436 134.37 285.2 134.812 286.904C135.252 288.609 136.097 295.457 138.142 299.579C140.128 303.577 153.158 316.231 153.158 316.231L146.853 322.025C146.853 322.025 128.687 304.217 127.583 300.962C126.48 297.707 121.939 275.051 121.577 271.231C121.285 268.151 117.129 254.433 124.833 254.205Z" fill="#5B70E0"/>
<g clip-path="url(#clip1_1403_224)">
<path d="M526.143 16.4667L505.428 29.4574L505.878 53.3625L527.706 63.6008L547.758 51.2862L547.334 28.7091L526.143 16.4667Z" fill="#FEFEFE"/>
<path fill-rule="evenodd" clip-rule="evenodd" d="M512.519 26.0912C513.143 25.3745 522.348 20.3172 524.193 19.094C525.177 18.4422 524.748 17.3384 526.666 17.539C527.397 17.6152 528.291 18.1117 527.759 18.9466C527.345 19.5953 526.473 19.3143 525.655 19.6418C523.104 20.6609 517.589 24.4725 514.971 26.0475C515.604 27.057 516.537 26.6982 517.674 27.0626C518.949 27.4718 518.551 28.7278 517.186 28.8751C515.158 29.094 515.676 28.1261 514.839 27.5113C514.313 27.1246 512.804 26.6653 512.519 26.0912V26.0912ZM504.356 28.1633L506.669 29.4303C507.159 29.0367 509.6 27.6841 510.248 27.4232C511.203 27.6134 511.839 28.2535 512.73 28.6167C513.887 29.0884 515.077 28.5005 515.194 29.9785C514.835 30.6691 514.278 30.8853 513.326 30.7762C511.73 30.5928 511.625 28.2963 509.9 28.9915C509.426 29.1826 508.235 29.8284 507.952 30.1329L513.273 33.0481L521.886 27.8062C520.373 26.6074 518.62 27.2175 518.443 26.1564C518.625 24.741 520.839 24.6526 521.509 25.7327C522.408 27.1842 523.209 26.6643 524.311 27.7629C524.06 28.1631 524.283 27.898 523.875 28.195L514.461 33.6983L523.026 38.3906C523.971 37.8983 528.185 35.6539 528.555 35.0443C528.068 34.6703 523.817 32.3381 523.492 32.3256C523.194 32.3148 522.518 32.6781 522.256 32.8736C521.544 33.4037 521.966 33.5602 521.373 34.0538C519.867 35.3061 516.684 33.0261 520.204 32.3897C520.938 32.2569 521.294 32.0437 521.885 31.6798C524.048 30.3499 523.381 30.8835 528.071 33.3158L531.027 35.2131L524.547 39.2231L526.793 40.4532L535.521 35.2841C534.927 34.6928 531.732 33.0811 530.719 32.5272C529.846 32.0494 526.077 30.152 525.636 29.621C525.992 28.9463 527.786 28.1705 528.509 27.7344C529.499 27.1367 530.58 26.4219 531.595 25.9964C531.01 24.7067 529.25 25.1891 528.189 24.5101L528.155 23.5163C529.471 22.8514 530.518 22.5797 531.316 23.8863C531.879 24.809 533.255 24.9854 533.999 25.7077C533.756 26.2302 531.666 27.3079 531.074 27.6547C530.349 28.0794 528.464 29.0423 528.047 29.578C528.262 29.8471 536.04 34.2478 536.801 34.5256L538.838 33.3196C538.54 32.8282 534.046 30.5812 533.084 30.4472C530.031 30.0219 531.96 27.9294 533.872 28.5932C534.763 28.9024 534.374 29.4868 535.586 30.1604L539.993 32.6357L542.063 31.4093C541.668 30.9374 537.232 28.7112 536.75 28.6026C535.506 28.3221 535.808 28.8073 534.728 27.9516C534.677 26.8155 535.471 26.4554 536.691 26.6155C538.101 26.8005 537.44 27.4772 538.697 28.1931L543.286 30.6442L545.284 29.5018C543.949 28.5177 536.943 25.0565 534.789 23.8259C534.144 23.458 529.958 21.1307 529.696 21.1159C529.386 21.0985 525.253 23.5637 524.654 23.9923C525.649 25.5896 527.479 24.1994 528.099 25.813C527.797 27.1429 525.765 27.2798 525.011 26.1616C524.536 25.4572 524.611 25.5096 523.699 25.0631C523.08 24.7602 522.443 24.5301 522.192 24.0363C522.693 23.594 524.455 22.6289 525.069 22.2809C530.897 18.9754 528.243 18.8975 534.242 22.1214L546.506 28.7914L548.77 27.4367L526.479 15.132L504.356 28.1633Z" fill="#F9C309"/>
<path fill-rule="evenodd" clip-rule="evenodd" d="M543.69 53.272C541.346 54.6172 538.919 56.1129 536.512 57.5152C535.263 58.2432 534.099 58.8846 532.911 59.6316C532.258 60.0413 531.664 60.2947 531.278 60.7656C530.697 61.4767 530.7 62.0687 529.423 61.8704C529.049 61.2334 529.035 60.686 529.499 59.9172C530.124 58.8792 530.358 59.3475 531.554 59.0064L542.448 52.6109C542.488 52.1442 542.548 51.4975 542.456 51.0392C542.273 50.1304 542.024 50.6206 541.916 49.8401C541.798 48.9763 542.567 47.8714 543.263 47.7677C544.853 47.5312 543.948 49.4055 543.789 49.9736C543.561 50.7831 543.827 52.2663 543.69 53.272ZM538.918 52.3802C538.841 52.2732 538.816 52.317 538.736 52.04C538.568 51.4606 538.734 51.2427 538.94 50.7577C539.313 49.881 539.18 49.725 539.135 48.7038C539.043 46.6264 539.341 46.9172 540.89 46.0582C542.066 45.4061 545.787 42.9106 546.778 42.7321C546.846 44.6346 546.71 47.1137 546.908 48.9181C547.032 50.0482 547.985 49.7673 547.281 51.2949C546.478 53.0343 544.528 52.6894 545.391 50.6813C545.943 49.3968 545.67 46.2958 545.545 44.8482C545.101 44.9081 540.925 47.3338 540.632 47.6773C539.687 48.7852 541.049 49.7648 541.001 50.7002C540.951 51.6787 540.015 52.892 538.918 52.3802ZM536.619 43.305C535.582 43.4909 535.651 43.1558 534.806 43.6276C534.169 43.9833 530.755 45.962 530.657 46.222L530.794 55.6437C531.301 55.5344 535.539 53.066 535.94 52.5736C536.436 50.7709 535.307 50.8375 535.424 49.6469C535.617 47.671 538.11 47.2034 537.643 49.1725C537.536 49.6278 537.317 49.7954 537.237 50.3064C536.655 54.0366 539.09 52.4053 533.457 55.6204C532.659 56.076 530.313 57.6809 529.63 57.7L529.356 45.5207C530.161 44.7753 533.416 43.0806 534.67 42.3259C535.85 41.6163 535.832 40.3012 536.97 40.5756C537.583 40.7234 537.634 41.3633 537.466 41.9544C537.287 42.5782 536.925 42.7872 536.619 43.305ZM546.503 28.7885L546.633 40.2316L542.27 42.7115L542.06 31.4056L539.99 32.6318C539.8 34.5163 540.602 43.2047 540.203 43.989C539.655 44.7908 535.02 47.0832 533.924 47.9744C533.662 50.7011 534.873 49.5861 534.406 51.2909C534.097 52.4145 533.201 52.9599 532.291 52.3628C531.942 51.0083 532.603 51.1242 532.692 50.019C532.879 47.7147 532.017 47.5296 533.585 46.6684L535.876 45.3218C536.609 44.895 538.524 43.8614 539.044 43.4059L538.835 33.3156L536.799 34.5214L536.878 38.5587C536.77 38.9077 533.435 40.736 532.834 41.0846C532.178 41.4653 531.268 41.9483 530.888 42.4266C530.497 42.9185 530.017 44.0012 529.135 43.3906C528.361 42.8302 528.872 41.6785 529.386 41.1594C530.237 40.3013 530.508 41.1192 531.716 40.3549L535.566 37.8914L535.519 35.2797L526.792 40.4481L527.21 65.599L549.241 52.752C549.241 52.752 549.138 47.0045 549.097 45.0857C549.04 42.4402 549.067 39.1994 548.937 36.5665L548.765 27.4339L546.503 28.7885Z" fill="#F76200"/>
<path fill-rule="evenodd" clip-rule="evenodd" d="M511.606 53.1455C512.752 53.7684 519.402 57.5521 520.134 57.6117L520.029 51.9601C518.535 50.583 518.32 51.4375 517.301 50.9509C516.63 50.6311 515.694 49.2646 516.515 48.3956C517.696 47.8326 518.063 49.2166 518.696 49.7048C519.323 50.1879 520.512 50.6442 521.212 51.1134L521.407 59.6572C520.289 59.6327 512.243 54.5973 510.378 53.8754C510.005 51.2109 510.607 48.0284 509.915 46.4877C508.853 44.1216 511.208 44.2654 511.845 45.9137C512.309 47.1142 511.704 47.1081 511.525 47.8692C511.403 48.3866 511.521 52.4584 511.606 53.1455ZM508.31 50.5974C508.412 51.2066 508.677 51.3174 508.796 51.8617C509.117 53.3305 507.719 53.2323 507.078 52.5288C505.888 51.2238 506.761 50.8122 506.967 49.9231C507.195 48.9395 506.65 41.875 506.887 39.7517C507.428 39.8451 514.075 43.4897 514.651 43.9304L514.85 51.1975C516.337 52.3797 516.786 51.6511 517.644 52.1692C518.418 52.6375 518.793 53.7396 518.359 54.6978C516.811 55.018 516.857 53.8574 515.927 53.2335C512.794 51.1316 513.6 54.0037 513.358 44.5334L508.137 41.8011L508.31 50.5974ZM521.62 49.0804C520.133 49.5992 520.058 48.3497 519.12 47.6986C518.422 47.2144 516.898 46.8277 516.719 46.0049L516.543 37.8217C517.683 37.8099 518.361 39.067 519.874 39.0684C521.198 39.0693 521.871 40.4103 521.523 41.746C519.367 42.3001 520.53 40.6104 517.831 39.8197L518.036 45.6662C519.512 46.8211 519.74 46.0977 520.729 46.5593C521.62 46.9749 521.88 48.1128 521.62 49.0804ZM504.662 53.4796L527.204 65.6023L526.786 40.4514L524.54 39.2214C524.537 40.2556 524.501 58.9189 524.719 59.7192C524.984 60.6973 525.564 60.8684 524.941 61.9507C523.844 62.1324 523.269 61.5236 522.968 60.6529C522.541 59.4187 523.399 59.6866 523.395 58.2352L523.02 38.3891L514.456 33.6976L514.602 41.4049L506.822 37.2663L506.666 29.4303L504.353 28.1635L504.508 40.8216L504.662 53.4796Z" fill="#FD8C0A"/>
<path fill-rule="evenodd" clip-rule="evenodd" d="M513.375 39.4266L513.27 33.0489L507.95 30.1342L508.066 36.559L513.375 39.4266Z" fill="#FD8C0A"/>
<path fill-rule="evenodd" clip-rule="evenodd" d="M543.286 30.6408L543.475 40.64L545.428 39.5731L545.283 29.4986L543.286 30.6408Z" fill="#F76200"/>
<path d="M562.368 10.8906C546.868 9.20501 538.584 6.91927 526.448 0.351061L526.599 15.1928L548.412 27.8143L548.667 52.9669L527.111 65.6691L505.195 53.3691L527.21 75.3924L527.332 87.4666C546.457 75.2834 564.247 60.0053 562.368 10.8906Z" fill="#07203D"/>
<path d="M490.899 11.589C506.725 9.52386 515.611 6.23472 526.454 0.351082L526.604 15.1928L504.98 28.2388L505.235 53.3914L527.215 75.3924L527.338 87.4667C500.527 71.2919 490.346 52.8775 490.899 11.589Z" fill="#0D3B6F"/>
</g>
<g clip-path="url(#clip2_1403_224)">
<path d="M157.28 132.859C149.711 122.72 146.321 110.149 147.789 97.6616C149.256 85.174 155.472 73.6906 165.194 65.5089C174.915 57.3272 187.425 53.0506 200.221 53.5346C213.016 54.0186 225.154 59.2275 234.205 68.1193C243.256 77.0111 248.553 88.93 249.037 101.491C249.521 114.053 245.155 126.33 236.813 135.868C228.472 145.405 216.77 151.499 204.048 152.93C191.326 154.362 178.523 151.025 168.2 143.587H168.208C167.973 143.894 167.723 144.186 167.442 144.47L137.346 174.013C135.881 175.453 133.892 176.262 131.819 176.263C129.745 176.264 127.756 175.456 126.289 174.017C124.823 172.578 123.998 170.626 123.998 168.591C123.997 166.555 124.82 164.603 126.286 163.163L156.381 133.619C156.661 133.341 156.961 133.085 157.28 132.852L157.28 132.859ZM155.264 103.362C155.264 108.904 156.376 114.393 158.536 119.513C160.697 124.634 163.863 129.286 167.856 133.205C171.848 137.125 176.587 140.233 181.803 142.354C187.019 144.475 192.61 145.567 198.256 145.567C203.902 145.567 209.492 144.475 214.709 142.354C219.925 140.233 224.664 137.125 228.657 133.205C232.649 129.286 235.816 124.634 237.976 119.513C240.137 114.393 241.249 108.904 241.249 103.362C241.25 92.1685 236.72 81.4335 228.658 73.5185C220.595 65.6036 209.66 61.157 198.257 61.157C186.855 61.157 175.92 65.6036 167.857 73.5185C159.794 81.4335 155.264 92.1685 155.264 103.362Z" fill="white"/>
</g>
<path d="M228.001 65.0225C229.228 66.4564 230.345 67.9669 231.344 69.543C232.197 71.0253 232.552 72.0304 233.175 73.8164C233.557 74.8032 233.903 75.0977 234.645 75.0977C235.454 75.0977 235.822 74.5966 236.105 73.8218C236.694 72.1351 237.156 70.8479 237.886 69.6317C239.316 67.2835 241.094 65.1969 242.841 63.1914C243.314 62.6239 246.372 59.3172 247.748 56.7082C247.748 56.7082 249.44 53.8421 249.44 49.8394C249.44 46.0953 247.772 43.4985 247.772 43.4985L242.968 44.678L240.051 51.7226L239.329 52.694L239.185 52.87L238.993 53.0903L238.656 53.4421L238.174 53.8835L235.576 55.8239L229.081 59.2621L228.001 65.0225V65.0225Z" fill="#EA4335"/>
<path d="M221.297 56.2259C222.882 59.5455 225.939 62.4636 228.007 65.0244L238.992 53.0945C238.992 53.0945 237.444 54.9501 234.637 54.9501C231.51 54.9501 228.984 52.6608 228.984 49.7741C228.984 47.7945 230.283 46.4346 230.283 46.4346L222.826 48.2665L221.297 56.2259Z" fill="#EA4335"/>
<path d="M239.117 36.815C242.765 37.8935 245.888 40.1576 247.776 43.4962L238.997 53.088C238.997 53.088 240.296 51.7035 240.296 49.7362C240.296 46.7823 237.583 44.5755 234.652 44.5755C231.881 44.5755 230.289 46.4281 230.289 46.4281L230.289 40.3854L239.117 36.8149L239.117 36.815Z" fill="#EA4335"/>
<path d="M223.313 41.0533C225.492 38.663 229.326 36.2017 234.612 36.2017C237.177 36.2017 239.109 36.819 239.109 36.819L230.282 46.4335L224.028 46.4335L223.313 41.0534L223.313 41.0533Z" fill="#EA4335"/>
<path d="M221.299 56.2264C221.299 56.2264 219.841 53.6081 219.841 49.815C219.841 46.23 221.361 43.0963 223.311 41.0532L230.286 46.4343L221.299 56.2264Z" fill="#EA4335"/>
</g>
<defs>
<linearGradient id="paint0_linear_1403_224" x1="324.167" y1="433.88" x2="324.167" y2="338.334" gradientUnits="userSpaceOnUse">
<stop stop-color="#EDFAFF"/>
<stop offset="1" stop-color="#323E9D"/>
</linearGradient>
<linearGradient id="paint1_linear_1403_224" x1="211.93" y1="470.414" x2="409.236" y2="7.06427" gradientUnits="userSpaceOnUse">
<stop offset="0.265625" stop-color="#2A3ABB"/>
<stop offset="0.885417" stop-color="#3F89BE"/>
</linearGradient>
<linearGradient id="paint2_linear_1403_224" x1="198.069" y1="61.6193" x2="198.069" y2="179.429" gradientUnits="userSpaceOnUse">
<stop stop-color="#40D5E6"/>
<stop offset="1" stop-color="#8B55FF"/>
</linearGradient>
<linearGradient id="paint3_linear_1403_224" x1="197.97" y1="61.6197" x2="197.97" y2="179.429" gradientUnits="userSpaceOnUse">
<stop stop-color="#40D5E6"/>
<stop offset="1" stop-color="#6D55FF"/>
</linearGradient>
<linearGradient id="paint4_linear_1403_224" x1="437.814" y1="369.539" x2="558.405" y2="201.248" gradientUnits="userSpaceOnUse">
<stop stop-color="#40A1FF"/>
<stop offset="1" stop-color="#1C3BA9"/>
</linearGradient>
<linearGradient id="paint5_linear_1403_224" x1="490.195" y1="274.371" x2="490.195" y2="376.729" gradientUnits="userSpaceOnUse">
<stop offset="0.15625" stop-color="#1300EA"/>
<stop offset="0.265625" stop-color="#363DE0"/>
<stop offset="0.703125" stop-color="#796FEE"/>
</linearGradient>
<linearGradient id="paint6_linear_1403_224" x1="469.198" y1="289.952" x2="469.198" y2="392.31" gradientUnits="userSpaceOnUse">
<stop offset="0.15625" stop-color="#1300EA"/>
<stop offset="0.265625" stop-color="#363DE0"/>
<stop offset="0.703125" stop-color="#796FEE"/>
</linearGradient>
<linearGradient id="paint7_linear_1403_224" x1="510.959" y1="274.368" x2="510.959" y2="376.727" gradientUnits="userSpaceOnUse">
<stop stop-color="#1301EA"/>
<stop offset="1" stop-color="#1301EA"/>
</linearGradient>
<linearGradient id="paint8_linear_1403_224" x1="531.723" y1="274.369" x2="531.723" y2="376.731" gradientUnits="userSpaceOnUse">
<stop stop-color="#1301EA"/>
<stop offset="1" stop-color="#1301EA"/>
</linearGradient>
<clipPath id="clip0_1403_224">
<rect width="563.43" height="450" fill="white"/>
</clipPath>
<clipPath id="clip1_1403_224">
<rect width="71.6111" height="87.1632" fill="white" transform="matrix(0.999952 -0.00977058 0.0101419 0.999949 490.725 0.700195)"/>
</clipPath>
<clipPath id="clip2_1403_224">
<rect width="125.07" height="122.778" fill="white" transform="matrix(-1 0 -1.89338e-05 1 249.067 53.4834)"/>
</clipPath>
</defs>
</svg>
