<svg width="30" height="30" viewBox="0 0 30 30" fill="none" xmlns="http://www.w3.org/2000/svg">
<g clip-path="url(#clip0_1237_2)">
<path fill-rule="evenodd" clip-rule="evenodd" d="M16.68 26.89C16.63 26.89 16.57 26.86 16.46 26.79C7.51003 21.44 5.41003 14.74 5.41003 3.41C9.85003 2.94 12.88 2.11 16.68 0C20.48 2.11 23.51 2.94 27.95 3.41C27.95 14.74 25.85 21.44 16.9 26.79C16.79 26.86 16.73 26.89 16.68 26.9V26.89V26.89Z" fill="#0D3B6F"/>
<path fill-rule="evenodd" clip-rule="evenodd" d="M16.68 26.89C16.63 26.89 16.57 26.86 16.46 26.79C7.51003 21.44 5.41003 14.74 5.41003 3.41C9.85003 2.94 12.88 2.11 16.68 0V26.89Z" fill="#0D3B6F"/>
<path fill-rule="evenodd" clip-rule="evenodd" d="M16.6801 26.9C16.7301 26.89 16.7901 26.86 16.9001 26.79C25.8501 21.44 27.9501 14.74 27.9501 3.41C23.5101 2.94 20.4801 2.11 16.6801 0V26.9Z" fill="#07203D"/>
<path fill-rule="evenodd" clip-rule="evenodd" d="M9.78003 16.36L23.54 8.45996L27.28 12.2L16.68 23.26L9.78003 16.36Z" fill="#07203D"/>
<path fill-rule="evenodd" clip-rule="evenodd" d="M23.1 16.1398L19.89 18.0498L16.67 19.9698L13.47 18.1398L10.26 16.3098L10.27 12.5698L10.28 8.82977L13.5 6.91977L16.71 5.00977L19.91 6.82977L23.12 8.65977L23.11 12.3998L23.1 16.1398Z" fill="#FEFEFE"/>
<path fill-rule="evenodd" clip-rule="evenodd" d="M29.9501 29.9303C30.4201 27.4603 27.3601 21.8103 24.7301 21.0203C23.4101 20.6203 9.92006 19.4703 10.2101 22.8303C10.5101 26.2903 15.8901 24.2303 17.9501 24.9603C17.8601 26.2003 16.2001 25.9303 15.5201 25.9203C13.7301 25.8903 8.30006 26.3803 9.53006 22.1003C7.85006 20.3603 6.09006 18.6403 4.38006 16.9303C1.89006 14.4403 0.0700574 16.4303 5.73655e-05 17.8903C-0.0799426 19.4703 8.66006 28.4703 10.9901 29.3703C13.4401 30.3103 26.6501 29.9103 29.9501 29.9303V29.9303Z" fill="#ECC5B0"/>
<path fill-rule="evenodd" clip-rule="evenodd" d="M21.6014 9.6979L21.6017 12.6702L22.1882 12.3635L22.2014 9.36914L21.6014 9.6979Z" fill="#F76200"/>
<path fill-rule="evenodd" clip-rule="evenodd" d="M12.487 8.1817C12.6763 7.97206 15.4391 6.51844 15.9943 6.16483C16.2901 5.97643 16.1689 5.64623 16.7377 5.71599C16.9543 5.74253 17.217 5.89479 17.0543 6.13998C16.9279 6.33054 16.6703 6.2424 16.4253 6.33533C15.6618 6.62459 14.0021 7.72771 13.2155 8.1817C13.398 8.48501 13.6773 8.3833 14.013 8.49761C14.3895 8.62597 14.2643 8.997 13.858 9.0335C13.2543 9.08777 13.4135 8.80295 13.1681 8.61588C13.0141 8.49821 12.5684 8.35377 12.487 8.1817V8.1817ZM10.0502 8.75396L10.7303 9.14264C10.878 9.02833 11.6107 8.63941 11.8048 8.56533C12.0875 8.62693 12.2727 8.8205 12.5355 8.93312C12.8766 9.07937 13.2335 8.91102 13.2598 9.35073C13.1493 9.55401 12.9826 9.61525 12.7005 9.57779C12.2275 9.51487 12.2091 8.83202 11.6925 9.02942C11.5507 9.08369 11.1933 9.2692 11.1074 9.35818L12.6721 10.2525L15.26 8.74088C14.8174 8.3767 14.2932 8.54864 14.2464 8.23249C14.3085 7.81295 14.9666 7.79843 15.1596 8.12286C15.4188 8.55885 15.6596 8.40864 15.9808 8.74088C15.9039 8.85843 15.9718 8.78086 15.8487 8.86695L13.0213 10.4519L15.5398 11.8914C15.8232 11.7502 17.0876 11.1057 17.201 10.9266C17.0584 10.8129 15.8085 10.0975 15.7121 10.0921C15.6236 10.0873 15.4206 10.1916 15.3417 10.2483C15.1272 10.402 15.2517 10.4507 15.0727 10.5942C14.6183 10.9583 13.6854 10.264 14.7347 10.0936C14.9536 10.0581 15.0604 9.9966 15.2382 9.89166C15.8883 9.50802 15.687 9.66305 17.0669 10.4105L17.9343 10.9899L15.9867 12.1468L16.6472 12.5241L19.2691 11.0348C19.0959 10.856 18.1556 10.3602 17.8579 10.1903C17.6011 10.0437 16.492 9.46 16.3641 9.29995C16.4736 9.10134 17.0109 8.88041 17.228 8.75469C17.5255 8.58239 17.8508 8.37574 18.1545 8.25471C17.988 7.86843 17.4626 8.00243 17.151 7.79507L17.1465 7.49968C17.5413 7.30912 17.8537 7.23397 18.0835 7.62637C18.2457 7.9035 18.6534 7.96317 18.8703 8.1817C18.7954 8.33564 18.1684 8.64471 17.9906 8.74461C17.7728 8.86696 17.2075 9.14301 17.0806 9.29995C17.1428 9.38099 19.4291 10.7296 19.6537 10.8162L20.2654 10.4687C20.1796 10.3212 18.8572 9.62978 18.5722 9.58487C17.6674 9.44235 18.2524 8.83094 18.8167 9.03831C19.0795 9.13484 18.9607 9.30643 19.3169 9.51296L20.6123 10.2717L21.2343 9.91832C21.1195 9.77604 19.814 9.09114 19.6715 9.05632C19.3037 8.96638 19.3906 9.11215 19.0744 8.85219C19.0656 8.51443 19.3036 8.41164 19.6651 8.46567C20.083 8.52811 19.8827 8.72563 20.2524 8.945L21.6018 9.6975L22.2017 9.36874C21.8107 9.06928 19.7488 8.00388 19.1155 7.62685C18.9262 7.5141 17.6954 6.80049 17.6179 6.79473C17.5258 6.78789 16.2843 7.49836 16.1037 7.62252C16.3904 8.10233 16.9418 7.69901 17.117 8.1817C17.02 8.57518 16.4155 8.60508 16.1978 8.26888C16.0606 8.05707 16.0826 8.07304 15.8142 7.93555C15.6318 7.84226 15.4439 7.77057 15.3722 7.62252C15.5233 7.4938 16.0523 7.21643 16.2366 7.11629C17.9866 6.16519 17.1984 6.12797 18.9627 7.11761L22.5688 9.16426L23.2489 8.77378L16.6953 5L10.0502 8.75396V8.75396Z" fill="#F9C309"/>
<path fill-rule="evenodd" clip-rule="evenodd" d="M21.5956 16.4239L19.4391 17.6466C19.0637 17.8563 18.7144 18.0407 18.3572 18.2563C18.161 18.3746 17.9828 18.4468 17.8658 18.5846C17.689 18.7928 17.6866 18.9687 17.3082 18.9031C17.2006 18.7118 17.1996 18.5491 17.3417 18.3231C17.5334 18.018 17.6002 18.1584 17.9574 18.0634L21.2302 16.2209C21.2449 16.0824 21.2663 15.8905 21.2414 15.7539C21.1921 15.4829 21.1153 15.6272 21.0878 15.3948C21.0574 15.1374 21.292 14.8132 21.4996 14.7861C21.9733 14.7243 21.6939 15.2764 21.6433 15.4443C21.5713 15.6837 21.6422 16.1258 21.5956 16.4239V16.4239ZM20.1825 16.1336C20.1605 16.1014 20.1526 16.1142 20.1303 16.0315C20.0837 15.8585 20.1342 15.7946 20.1982 15.6516C20.3141 15.3931 20.2754 15.346 20.2677 15.0423C20.252 14.4246 20.3388 14.5126 20.8039 14.2656C21.1572 14.078 22.2767 13.3563 22.5722 13.3085C22.5815 13.8742 22.5274 14.6101 22.5762 15.1473C22.6067 15.4837 22.8915 15.4053 22.6737 15.8555C22.4255 16.3681 21.8481 16.2552 22.1157 15.6631C22.2869 15.2844 22.2232 14.3615 22.1941 13.9307C22.0617 13.9462 20.8074 14.6448 20.7185 14.7453C20.4315 15.0695 20.8307 15.3677 20.8112 15.6455C20.7907 15.9359 20.5059 16.2915 20.1825 16.1336V16.1336ZM19.5502 13.4248C19.241 13.4745 19.2635 13.3754 19.0097 13.5111C18.8185 13.6134 17.7931 14.1832 17.7625 14.2599L17.7504 17.0602C17.9017 17.0304 19.1747 16.3194 19.2967 16.1752C19.4541 15.6422 19.1183 15.656 19.1596 15.3029C19.2281 14.7168 19.9715 14.5911 19.8218 15.1737C19.7873 15.3084 19.7213 15.3571 19.6948 15.5085C19.5011 16.6137 20.2338 16.142 18.5418 17.0674C18.3022 17.1985 17.5961 17.6629 17.393 17.665L17.3797 14.0447C17.623 13.8274 18.5997 13.3411 18.9766 13.1236C19.3311 12.919 19.3331 12.5281 19.6698 12.6157C19.8512 12.6629 19.8628 12.8533 19.8094 13.028C19.753 13.2124 19.6439 13.2726 19.5502 13.4248V13.4248ZM22.5683 9.16392L22.5431 12.5647L21.2327 13.2785L21.2338 9.91798L20.6119 10.2714C20.5448 10.8303 20.7346 13.4162 20.6116 13.6471C20.4443 13.8824 19.0543 14.539 18.7236 14.798C18.6306 15.6068 18.9967 15.2819 18.8482 15.786C18.7502 16.1182 18.4809 16.2755 18.2139 16.0932C18.1177 15.6889 18.3134 15.7269 18.3461 15.399C18.4145 14.7153 18.1593 14.6557 18.6302 14.4081L19.3184 14.0202C19.5385 13.8972 20.1134 13.6003 20.2705 13.4677L20.2649 10.4684L19.6532 10.8159L19.6541 12.0159C19.62 12.119 18.6189 12.6446 18.4383 12.745C18.2413 12.8546 17.9684 12.9933 17.8528 13.1334C17.7337 13.2775 17.5849 13.5967 17.3263 13.4105C17.0996 13.2399 17.2578 12.9005 17.4136 12.7489C17.6711 12.4985 17.7471 12.7429 18.1101 12.5222L19.2681 11.8107L19.2686 11.0344L16.6467 12.5238L16.6301 19.9992L23.2852 16.2635C23.3772 15.7787 23.3073 14.4955 23.3059 13.9252L23.2889 11.5364L23.2484 8.77344L22.5683 9.16392V9.16392Z" fill="#F76200"/>
<path fill-rule="evenodd" clip-rule="evenodd" d="M12.0653 16.2164C12.4022 16.4075 14.3571 17.5671 14.5744 17.5887L14.5747 15.9089C14.1385 15.4917 14.0698 15.7445 13.7696 15.5945C13.5721 15.4959 13.3017 15.0849 13.5505 14.8311C13.9045 14.67 14.0057 15.0832 14.1913 15.2316C14.3749 15.3785 14.7255 15.5204 14.9308 15.6635L14.941 18.2032C14.6089 18.19 12.2463 16.6511 11.6964 16.4267C11.6005 15.633 11.7969 14.6906 11.6 14.2291C11.2976 13.5205 11.9967 13.5757 12.1767 14.0688C12.3079 14.428 12.1281 14.4229 12.0707 14.6482C12.0316 14.8013 12.0439 16.0117 12.0653 16.2164V16.2164ZM11.1001 15.4418C11.1271 15.6233 11.2051 15.6577 11.2374 15.82C11.3246 16.2581 10.9099 16.2215 10.7233 16.0091C10.3771 15.615 10.6386 15.4974 10.7048 15.2343C10.7781 14.9432 10.6556 12.8412 10.7378 12.2116C10.8981 12.2422 12.8529 13.3604 13.0215 13.4944L13.0401 15.6548C13.4754 16.0139 13.6128 15.7998 13.8647 15.9583C14.0922 16.1016 14.1975 16.431 14.0633 16.7135C13.6014 16.8004 13.6216 16.4558 13.3487 16.2655C12.4294 15.6243 12.653 16.482 12.6339 13.6667L11.0979 12.8272L11.1001 15.4418V15.4418ZM15.0634 15.0616C14.6187 15.2079 14.6035 14.8362 14.3283 14.6378C14.1236 14.4902 13.6731 14.3672 13.6243 14.1218L13.6179 11.6894C13.9565 11.6919 14.151 12.069 14.6005 12.0774C14.9941 12.0848 15.1865 12.4868 15.0756 12.8818C14.432 13.035 14.7871 12.5391 13.9894 12.2898L14.0176 14.0281C14.4496 14.3791 14.5216 14.1654 14.8129 14.3078C15.0751 14.436 15.1462 14.7755 15.0634 15.0616V15.0616ZM10 16.2788L16.6302 20.0005L16.6468 12.5251L15.9863 12.1477L15.9248 18.2392C15.9983 18.5313 16.1694 18.5852 15.9782 18.9035C15.6515 18.9516 15.4839 18.7677 15.3993 18.5074C15.2794 18.1384 15.5329 18.2225 15.5397 17.7912L15.5394 11.8923L13.0209 10.4528L13.021 12.7437L10.7326 11.4727L10.7299 9.14356L10.0498 8.75488L10 16.2788V16.2788ZM12.6673 12.149L12.6717 10.2534L11.107 9.35909L11.1058 11.2687L12.6673 12.149Z" fill="#FD8C0A"/>
</g>
<defs>
<clipPath id="clip0_1237_2">
<rect width="30" height="30" fill="white"/>
</clipPath>
</defs>
</svg>
