                    <svg
                      xmlns="http://www.w3.org/2000/svg"
                      width="30"
                      height="30"
                      fill="none"
                      fillRule="evenodd"
                    >
                      <g fill="#0d3b6f">
                        <path d="M16.68 26.89c-.05 0-.11-.03-.22-.1C7.51 21.44 5.41 14.74 5.41 3.41c4.44-.47 7.47-1.3 11.27-3.41 3.8 2.11 6.83 2.94 11.27 3.41 0 11.33-2.1 18.03-11.05 23.38-.11.07-.17.1-.22.11v-.01h0z" />
                        <path d="M16.68 26.89c-.05 0-.11-.03-.22-.1C7.51 21.44 5.41 14.74 5.41 3.41c4.44-.47 7.47-1.3 11.27-3.41v26.89z" />
                      </g>
                      <g fill="#07203d">
                        <path d="M16.68 26.9c.05-.01.11-.04.22-.11 8.95-5.35 11.05-12.05 11.05-23.38-4.44-.47-7.47-1.3-11.27-3.41v26.9z" />
                        <path d="M9.78 16.36l13.76-7.9 3.74 3.74-10.6 11.06-6.9-6.9z" />
                      </g>
                      <path
                        d="M23.1 16.14l-3.21 1.91-3.22 1.92-3.2-1.83-3.21-1.83.01-3.74.01-3.74 3.22-1.91 3.21-1.91 3.2 1.82 3.21 1.83-.01 3.74-.01 3.74z"
                        fill="#fefefe"
                      />
                      <path
                        d="M29.95 29.93c.47-2.47-2.59-8.12-5.22-8.91-1.32-.4-14.81-1.55-14.52 1.81.3 3.46 5.68 1.4 7.74 2.13-.09 1.24-1.75.97-2.43.96-1.79-.03-7.22.46-5.99-3.82-1.68-1.74-3.44-3.46-5.15-5.17-2.49-2.49-4.31-.5-4.38.96-.08 1.58 8.66 10.58 10.99 11.48 2.45.94 15.66.54 18.96.56h0z"
                        fill="#ecc5b0"
                      />
                      <path
                        d="M21.601 9.698v2.972l.586-.307.013-2.994-.6.329z"
                        fill="#f76200"
                      />
                      <path
                        d="M12.487 8.182c.189-.21 2.952-1.663 3.507-2.017.296-.188.175-.519.743-.449.217.027.479.179.317.424-.126.191-.384.102-.629.195-.764.289-2.423 1.392-3.21 1.846.182.303.462.202.797.316.377.128.251.499-.155.536-.604.054-.444-.231-.69-.418-.154-.118-.6-.262-.681-.434h0zm-2.437.572l.68.389c.148-.114.88-.503 1.075-.577.283.062.468.255.731.368.341.146.698-.022.724.418-.111.203-.277.265-.559.227-.473-.063-.491-.746-1.008-.548-.142.054-.499.24-.585.329l1.565.894 2.588-1.512c-.443-.364-.967-.192-1.014-.508.062-.42.72-.434.913-.11.259.436.5.286.821.618-.077.118-.009.04-.132.126l-2.827 1.585 2.518 1.44c.283-.141 1.548-.786 1.661-.965-.143-.114-1.392-.829-1.489-.835-.088-.005-.291.099-.37.156-.214.154-.09.202-.269.346-.454.364-1.387-.33-.338-.501.219-.036.326-.097.504-.202.65-.384.449-.229 1.829.519l.867.579-1.948 1.157.661.377 2.622-1.489c-.173-.179-1.114-.675-1.411-.844l-1.494-.89c.11-.199.647-.42.864-.545.297-.172.623-.379.926-.5-.166-.386-.692-.252-1.003-.46l-.005-.295c.395-.191.707-.266.937.127.162.277.57.337.787.555-.075.154-.702.463-.88.563-.218.122-.783.398-.91.555.062.081 2.348 1.43 2.573 1.516l.612-.348c-.086-.148-1.408-.839-1.693-.884-.905-.143-.32-.754.245-.547.263.097.144.268.5.475l1.295.759.622-.353c-.115-.142-1.42-.827-1.563-.862-.368-.09-.281.056-.597-.204-.009-.338.229-.441.591-.387.418.062.218.26.587.479l1.349.752.6-.329c-.391-.299-2.453-1.365-3.086-1.742l-1.498-.832c-.092-.007-1.334.704-1.514.828.287.48.838.076 1.013.559-.097.393-.701.423-.919.087-.137-.212-.115-.196-.384-.333-.182-.093-.37-.165-.442-.313.151-.129.68-.406.864-.506 1.75-.951.962-.988 2.726.001l3.606 2.047.68-.39L16.695 5 10.05 8.754h0z"
                        fill="#f9c309"
                      />
                      <path
                        d="M21.596 16.424l-2.157 1.223-1.082.61c-.196.118-.374.191-.491.328-.177.208-.179.384-.558.319-.108-.191-.109-.354.034-.58.192-.305.259-.165.616-.26l3.273-1.843c.015-.139.036-.33.011-.467-.049-.271-.126-.127-.154-.359-.03-.257.204-.582.412-.609.474-.062.194.49.144.658-.072.239-.001.682-.048.98h0zm-1.413-.29c-.022-.032-.03-.019-.052-.102-.047-.173.004-.237.068-.38.116-.258.077-.306.07-.609-.016-.618.071-.53.536-.777.353-.188 1.473-.909 1.768-.957l.004 1.839c.03.336.315.258.098.708-.248.513-.826.4-.558-.192.171-.379.107-1.302.078-1.732-.132.015-1.387.714-1.476.815-.287.324.112.622.093.9-.02.29-.305.646-.629.488h0zm-.632-2.709c-.309.05-.287-.049-.541.086l-1.247.749-.012 2.8c.151-.03 1.424-.741 1.546-.885.157-.533-.178-.519-.137-.872.069-.586.812-.712.662-.129-.035.135-.101.183-.127.335-.194 1.105.539.633-1.153 1.559-.24.131-.946.596-1.149.598l-.013-3.62c.243-.217 1.22-.704 1.597-.921.354-.205.357-.595.693-.508.181.047.193.238.14.412-.056.184-.166.245-.259.397h0zm3.018-4.261l-.025 3.401-1.31.714.001-3.361-.622.353c-.067.559.123 3.145 0 3.376-.167.235-1.557.892-1.888 1.151-.093.809.273.484.125.988-.098.332-.367.49-.634.307-.096-.404.1-.366.132-.694.068-.684-.187-.743.284-.991l.688-.388.952-.553-.006-2.999-.612.347.001 1.2c-.034.103-1.035.629-1.216.729-.197.11-.47.248-.586.388s-.268.463-.526.277c-.227-.171-.069-.51.087-.662.258-.25.334-.006.697-.227l1.158-.711v-.776l-2.622 1.489-.017 7.475 6.655-3.736c.092-.485.022-1.768.021-2.338l-.017-2.389-.041-2.763-.68.39h0z"
                        fill="#f76200"
                      />
                      <path
                        d="M12.065 16.216l2.509 1.372v-1.68c-.436-.417-.505-.164-.805-.314-.197-.099-.468-.51-.219-.763.354-.161.455.252.641.401s.534.289.739.432l.01 2.54c-.332-.013-2.695-1.552-3.245-1.776-.096-.794.101-1.736-.096-2.198-.302-.709.397-.653.577-.16.131.359-.049.354-.106.579-.039.153-.027 1.364-.005 1.568h0zm-.965-.775c.027.181.105.216.137.378.087.438-.327.401-.514.189-.346-.394-.085-.512-.018-.775.073-.291-.049-2.393.033-3.023.16.031 2.115 1.149 2.284 1.283l.019 2.16c.435.359.573.145.825.303a.6.6 0 0 1 .199.755c-.462.087-.442-.258-.715-.448-.919-.641-.696.216-.715-2.599l-1.536-.84.002 2.615h0zm3.963-.38c-.445.146-.46-.225-.735-.424-.205-.148-.655-.271-.704-.516l-.006-2.432c.339.003.533.38.983.388.394.007.586.409.475.804-.644.153-.288-.343-1.086-.592l.028 1.738c.432.351.504.137.795.28.262.128.333.468.25.754h0zM10 16.279l6.63 3.722.017-7.475-.66-.377-.062 6.092c.074.292.245.346.053.664-.327.048-.494-.136-.579-.396-.12-.369.134-.285.14-.716v-5.899l-2.519-1.44v2.291l-2.288-1.271-.003-2.329-.68-.389-.05 7.524h0zm2.667-4.13l.004-1.896-1.565-.894-.001 1.91 1.561.88z"
                        fill="#fd8c0a"
                      />
                    </svg>
