<svg
                      xmlns="http://www.w3.org/2000/svg"
                      width="101"
                      height="25"
                      shapeRendering="geometricPrecision"
                      imageRendering="optimizeQuality"
                      fillRule="nonzero"
                    >
                      <path
                        d="M9.75 12.3c0 3.06-2.48 4.29-5.21 4.29H.63c-.49 0-.74-.34-.74-.81V2.44c0-.46.25-.8.74-.8h3.4c2.58 0 4.78.84 4.78 3.77 0 1.42-.67 2.61-1.99 3.18 1.83.35 2.93 1.88 2.93 3.71zM6.77 5.61c0-1.85-1.17-2.36-2.84-2.36H1.88V8.1h2.26c1.6 0 2.63-.85 2.63-2.49zm.9 6.81c0-2.12-1.54-2.74-3.42-2.74H1.88v5.28h2.88c1.6 0 2.91-.8 2.91-2.54zm6.79 3.88c0 .13-.08.22-.2.27-.31.12-1.21.12-1.52 0-.13-.06-.2-.13-.2-.27V.87c0-.54 1.92-.52 1.92 0V16.3zm13.17-5.32c0 3.36-1.77 5.82-5.31 5.82-3.55 0-5.08-2.26-5.08-5.61 0-3.38 1.73-5.82 5.3-5.82 3.53 0 5.09 2.26 5.09 5.61zm-1.99.12c0-2.15-.68-4.14-3.18-4.14-2.42 0-3.23 1.96-3.23 4.09 0 2.16.68 4.14 3.19 4.14 2.44 0 3.22-1.96 3.22-4.09zm12.16 4.36c-.48.86-2.52 1.34-3.45 1.34-3.38 0-4.63-2.52-4.63-5.57 0-2.24.67-4.61 2.94-5.49 1.37-.52 4.14-.48 5.08.9.21.36.25 1.6-.22 1.6-.36 0-1.37-1.23-2.97-1.23-2.31 0-2.85 2.21-2.85 4.11 0 1.96.57 4.02 2.89 4.02 1.58 0 2.69-1.32 3.03-1.32.43 0 .34 1.34.18 1.64zm11.15.99c-.2.29-1.83.39-2.2-.16l-4.38-5.76v5.77c0 .51-1.92.52-1.92 0V.87c0-.54 1.92-.52 1.92 0v9.4l3.91-4.32c.43-.52 1.95-.55 2.24-.23.18.22-.12.61-.28.77l-3.74 3.77 4.22 5.48c.12.18.38.49.23.71zm10.99-4.35c0 3.25-2.63 4.75-5.54 4.75-1.12 0-3.1-.35-3.95-1.17-.42-.44-.45-2.52.16-2.52.37 0 2.01 1.23 3.81 1.23 1.21 0 2.37-.52 2.37-1.89 0-2.71-6.36-1.89-6.36-6.82 0-2.93 2.32-4.3 5.01-4.3.79 0 3.09.33 3.5 1.09.15.29.33 2.29-.27 2.29-.34 0-1.77-1.02-3.19-1.02-1.03 0-1.98.46-1.98 1.61 0 2.62 6.44 2 6.44 6.75zm14.35 4.38c-.28.26-2.75.29-3.01-.05-.18-.23-.94-2.77-1.09-3.25h-5.64l-1.07 3.2c-.24.38-2.5.38-2.76.08-.43-.5 4.18-12.81 4.7-14.3.31-.92 3.86-.95 4.16.04.51 1.44 5.15 13.84 4.71 14.28zm-6.95-12h-.01l-2.08 6.36h4.2l-2.11-6.36zm16.91-.36h-4.9v4.02h4.59c.66 0 .63 2.44 0 2.44h-4.59v5.57c0 .72-3.05.72-3.05 0V2.59c0-.58.3-.95.9-.95h7.05c.64 0 .62 2.48 0 2.48zm15.09 6.9c0 3.89-2.43 5.83-6.19 5.83-3.74 0-6.02-1.85-6.02-5.71V2.05c0-.69 3.03-.68 3.03 0v8.83c0 1.99.91 3.48 3.11 3.48 2.04 0 3.07-1.35 3.07-3.3V2.05c0-.69 3-.69 3 0v8.97z"
                        fill="#07203d"
                      />
                      <path
                        d="M84.02 22.84h-3.41c0 1.16.44 1.89 1.69 1.89.71 0 1.44-.39 1.71-.39.23 0 .19.6.06.74-.27.27-1.5.42-1.86.42-1.83 0-2.6-1.09-2.6-2.83 0-1.57.79-2.88 2.5-2.88 1.52 0 2.28 1.01 2.28 2.46 0 .28 0 .59-.37.59zm-.59-.7c.02-.92-.38-1.61-1.37-1.61-.92 0-1.43.75-1.45 1.61h2.82zm6.34 3.12c0 .24-.82.25-.82 0v-.52c-1.13 1.2-3.45 1-3.45-.82 0-1.77 2.07-1.73 3.32-1.73 0-.92-.01-1.63-1.19-1.63-.76 0-1.5.54-1.68.54-.27 0-.22-.61-.07-.75.37-.36 1.34-.56 1.84-.56 1.37 0 2.05.56 2.05 1.96v3.51zm-.95-2.38c-.77 0-2.34-.17-2.34.99 0 1.38 1.61.93 2.34.11v-1.1zm5.59-2.04a.26.26 0 0 1-.11-.03c-.27-.1-.57-.18-.84-.06-.4.17-.76.73-.98 1.08v3.42c0 .26-.96.26-.96 0v-5.2c0-.26.86-.26.86 0v.76c.25-.37.64-.85 1.09-.98.24-.06.81-.05 1.01.11.11.09.15.9-.07.9zm5.7 4.41c0 .26-.95.26-.95 0v-3.04c0-.75-.18-1.59-1.1-1.59-.6 0-1.12.57-1.46 1v3.63c0 .26-.96.26-.96 0v-5.2c0-.26.87-.26.87 0v.69c.45-.51 1.03-.95 1.75-.95 1.43 0 1.85 1.03 1.85 2.29v3.17z"
                        fill="#fd8c0a"
                      />
                    </svg>