<svg width="18" height="20" viewBox="0 0 18 20" fill="none" xmlns="http://www.w3.org/2000/svg">
<path d="M11 7V2H2V18H8.056C8.384 18.417 8.78 18.785 9.236 19.085L10.626 20H0.993C0.729813 20 0.477391 19.8955 0.291196 19.7095C0.105001 19.5235 0.000265042 19.2712 0 19.008V0.992C0 0.455 0.449 0 1.002 0H11.997L18 6V7H11ZM9 9H18V14.949C18 15.939 17.499 16.865 16.664 17.414L13.5 19.498L10.336 17.414C9.92663 17.1461 9.59023 16.7807 9.35703 16.3506C9.12383 15.9205 9.00115 15.4392 9 14.95V9ZM11 14.949C11 15.265 11.162 15.563 11.436 15.744L13.5 17.104L15.564 15.744C15.6969 15.6581 15.8064 15.5404 15.8825 15.4016C15.9586 15.2628 15.999 15.1073 16 14.949V11H11V14.949Z" fill="url(#paint0_linear_683_2249)"/>
<defs>
<linearGradient id="paint0_linear_683_2249" x1="9" y1="0" x2="9" y2="20" gradientUnits="userSpaceOnUse">
<stop stop-color="#EFBAD3"/>
<stop offset="1" stop-color="#D171FF"/>
</linearGradient>
</defs>
</svg>
