<svg width="100" height="100" viewBox="0 0 100 100" fill="none" xmlns="http://www.w3.org/2000/svg">
<path fill-rule="evenodd" clip-rule="evenodd" d="M27.9327 52.7653L28.0415 50.7289L28.5614 42.7537C28.5614 41.8147 28.8033 37.0711 28.9363 36.6931C29.4321 36.5589 49.2147 36.6565 50.303 36.6565H71.3794C71.5729 36.7053 71.5124 36.7053 71.585 36.7906C71.7301 36.9857 72.2863 44.4122 72.4314 45.8389C72.4677 46.1681 72.4193 46.4974 72.4798 46.8144L72.6974 48.5583C72.7579 49.0582 72.7579 50.7654 72.8909 51.4361C73.0239 51.8995 73.6527 59.3625 73.5923 59.6308C72.9151 59.582 73.0481 58.9113 72.6733 58.5943C72.6007 58.5333 71.3069 57.9967 71.198 57.9601C70.6176 58.5699 70.6055 58.7894 70.0735 58.704C69.1907 58.5577 69.3359 58.3991 69.0577 57.7406C68.7192 56.9236 68.9126 57.1431 68.2718 56.6432C67.9815 56.3993 68.042 56.3749 67.5583 56.3993L66.5668 56.4237C66.6272 56.887 68.2355 58.6552 68.308 59.0576C67.1956 59.6674 66.7361 59.082 66.2282 59.1552C66.0347 59.4357 66.0347 59.6552 65.805 59.8991C65.2729 59.7405 64.9464 59.4235 64.3418 59.2406C62.6006 58.7284 63.5438 59.1552 62.1895 58.2894C61.9718 58.1431 60.944 57.8748 60.5933 57.7894C60.1459 57.6675 60.1943 57.5577 59.904 57.8382C60.0129 58.204 60.8472 58.765 60.8593 59.2406C60.6417 59.265 58.9609 58.9845 58.6102 58.9235C57.135 58.643 57.7275 58.765 56.7601 58.0577C56.2039 57.6431 55.9258 57.2163 55.2002 56.9114L51.621 55.1432C50.968 54.7286 50.3513 54.7408 49.4323 54.6189C47.5943 54.3872 48.3561 54.3628 46.24 55.1067C44.8253 55.6066 45.321 55.5213 45.5991 54.3994C43.0961 55.1554 41.246 57.9358 37.4975 57.7528L37.2677 56.8505L32.5035 57.9601C31.3305 57.0578 32.6244 56.6797 29.7827 57.7528C29.2265 57.9602 28.2229 58.1796 27.6545 58.1675C27.5578 57.7163 27.8601 53.497 27.9327 52.7653V52.7653ZM53.3622 30.3764V26.9132C53.3622 26.2425 53.459 26.462 54.1361 26.462L65.5994 26.3888C66.7361 26.3522 67.0626 26.3034 68.2959 26.3278L69.2391 26.34C69.5293 27.0595 69.094 28.2667 69.9646 28.6935C70.6055 29.0106 70.8595 28.5106 70.9199 29.2301C70.9441 29.3642 70.9441 29.5106 70.9562 29.6447C71.0529 30.9495 71.1497 30.4617 68.562 30.413C67.776 30.413 68.1387 31.4251 67.2923 31.4495L54.6198 31.4373C53.2171 31.4373 53.3622 31.7421 53.3622 30.3764V30.3764ZM29.3595 30.5471C29.287 30.2666 29.3595 29.9252 29.3595 29.6203C29.3716 29.4618 29.3716 28.8765 29.4925 28.7545C29.9399 28.4862 30.4478 28.6813 30.7622 28.218C31.0282 27.8521 30.8589 26.9741 30.9194 26.4742L46.3247 26.5229C47.8483 26.4864 47.3525 26.0474 47.3767 30.791C47.3888 31.4007 47.425 31.4251 47.0018 31.4495C45.2485 31.5105 41.9232 31.4373 40.1214 31.4373C39.1057 31.4373 33.2894 31.5105 32.8178 31.4129L32.4551 30.291C31.8868 30.2422 29.8916 30.5959 29.3595 30.5471V30.5471ZM7.06176 25.6327C7.64218 25.6449 8.27097 25.8401 8.91185 25.8401C9.31088 25.8522 9.43181 25.901 9.78247 25.9498L14.6435 26.1815C15.5867 26.2303 22.201 26.3156 22.4429 26.4376C22.6726 26.6205 22.2615 27.3522 22.5154 27.9497C22.6968 28.3887 23.12 28.4375 23.5795 28.6326L23.4223 30.4983C22.9628 30.6812 20.6895 30.1935 19.9035 30.3032L19.8189 31.4251L6.8441 31.4373C6.77155 31.8031 6.71109 32.3519 6.68691 32.6933C6.49344 35.0834 5.91302 35.0346 7.09804 36.4858C7.4608 36.9248 7.47289 36.7175 8.85139 36.7175L22.6847 36.7784L20.8346 55.692L20.5565 58.7406C20.4598 58.7894 20.5444 58.765 20.3751 58.8016C19.9398 58.9113 17.4005 58.6674 16.6024 58.6796C15.502 58.704 15.6955 58.7406 14.7886 58.9967C13.7003 59.3137 12.6604 59.7039 11.5963 60.0698C11.1247 60.2283 6.67482 59.5088 5.79209 59.5454C4.60707 60.2039 3.25276 60.5088 2.10402 61.0941L1.97101 61.2283C2.20075 61.838 2.33377 62.7038 2.55142 63.3745L3.15603 65.4719C3.99038 68.1791 5.51398 71.5935 6.81992 74.0324C7.69055 75.6664 9.55272 78.5565 10.5443 79.8491L11.7172 81.3856L13.6157 83.6172C13.8308 83.8552 14.0526 84.087 14.2807 84.3123C14.9458 85.0196 16.3606 86.4829 16.9893 87.0073C17.739 87.6292 18.4404 88.3608 19.2143 88.9096L19.964 89.5193C20.8709 90.2144 22.1406 91.1899 23.0837 91.7997C23.2409 91.8972 23.3619 91.9582 23.5191 92.0557C23.6762 92.1533 23.7488 92.2265 23.9181 92.324L26.5058 93.8605C27.5941 94.5434 30.871 96.0311 32.056 96.4945C33.6643 97.1286 34.4624 97.3481 36.0585 97.8969L42.7212 99.409C42.9752 99.4577 42.9873 99.4822 43.2896 99.5187C45.841 99.7748 47.4613 100.043 50.303 99.9943C52.0321 99.9577 53.7734 99.9943 55.4663 99.7504C56.1434 99.6407 57.2196 99.6163 57.8605 99.4456C58.5497 99.2627 59.4687 99.2261 60.158 99.0432C61.609 98.6651 63.1205 98.4334 64.4869 97.97L66.5184 97.2993L69.5051 96.1653C69.6623 96.0921 69.8195 96.0433 69.9888 95.9702C70.0856 95.9214 70.2669 95.8238 70.4362 95.7506C71.2464 95.4336 73.29 94.3849 74.0397 93.9459C74.6805 93.58 75.2005 93.3362 75.8051 92.9337C76.0711 92.763 76.3734 92.6167 76.6516 92.4338C76.7846 92.3362 76.9176 92.2509 77.0506 92.1533L82.891 87.7755C83.1571 87.495 83.3264 87.4097 83.6166 87.1536C83.6287 87.1414 83.6408 87.1292 83.6529 87.1292C83.6529 87.117 83.677 87.1048 83.677 87.0926L86.0229 84.8245C86.6396 84.0196 87.0507 83.8245 87.6432 82.9953C87.8851 82.6417 87.9939 82.6904 88.2357 82.349C88.2478 82.3368 88.272 82.288 88.2841 82.2758L90.0737 80.0077C90.1705 79.8613 90.2672 79.776 90.3639 79.6174C91.1499 78.4834 91.428 78.1663 92.3108 76.7518L93.8102 74.1909C95.5273 70.9228 96.2407 69.3985 97.5345 65.6426C97.7522 64.9841 98.6833 61.9355 98.6833 61.338C97.7764 61.1307 96.7485 61.1307 95.8175 60.8746L94.5599 60.521C94.185 60.4112 93.5442 60.143 93.1935 60.2405C92.9033 60.3746 91.9843 60.0698 91.5973 59.9722C90.9081 59.7893 90.4728 59.8137 89.7473 59.7649C88.5018 59.6918 86.0713 59.4235 85.0434 58.5455C84.8016 58.3382 83.9068 58.1187 83.5319 58.0455C82.4437 57.8138 81.8632 57.3992 80.4001 57.1187C80.255 56.6797 80.1824 55.4847 80.1462 54.9237C80.0373 54.6555 78.6105 43.0708 78.3807 41.3757L78.1026 39.1198C78.0905 38.9247 77.7519 37.0345 77.8729 36.9126C78.0059 36.7784 89.2757 36.8394 91.2104 36.8516C92.5647 36.8638 91.7666 36.8394 93.0605 35.9858C93.2419 35.8639 93.3386 35.8517 93.4111 35.6566C93.5321 35.3273 92.9275 32.1202 92.8428 31.5105C92.0931 31.4495 82.9999 31.4983 81.174 31.5105C80.5452 31.5105 80.4485 31.5714 80.388 31.2544C80.1945 30.3032 80.92 30.2422 78.7193 30.5349C78.151 30.6203 77.4859 30.6081 76.8934 30.6812L76.6878 29.1935C76.6878 29.1569 76.6636 28.9862 76.6757 28.9496C76.6878 28.2302 77.498 28.8399 77.8729 28.0107C78.1268 27.4253 77.8124 26.7546 77.9333 26.1571C78.5258 26.023 82.6734 26.0108 83.6045 25.9742C84.1849 25.962 84.7774 25.8401 85.4183 25.8401C86.6154 25.8401 87.9455 25.6449 89.1185 25.6449C89.7521 25.6408 90.3854 25.6124 91.0169 25.5596C91.5248 25.523 92.3108 25.4742 92.8307 25.4132L93.3628 24.8279C93.5624 24.5681 93.7764 24.3197 94.0037 24.0841C94.4873 23.5719 94.3543 23.9255 94.5236 23.1085L94.7534 21.9256C94.8864 21.0111 94.8017 21.3037 95.5273 21.2062L98.0182 18.4015C98.4173 17.9137 98.3447 17.999 98.4898 17.4503C98.6349 16.865 98.7921 16.2308 98.8888 15.6333L96.3495 16.1699C94.572 16.5479 92.6614 16.7674 90.8355 17.0235C90.3035 17.0967 88.4171 17.3405 87.9818 17.3162C86.567 17.4869 84.9225 17.6454 83.4594 17.7064L81.2223 17.9015C80.8233 17.9381 80.4243 17.8771 80.0252 17.9259C79.6262 17.9625 79.4085 18.0478 78.949 18.0478C77.4013 18.0478 75.8172 18.2063 74.2936 18.2551L69.5777 18.4258C66.4459 18.56 63.2415 18.5844 60.0733 18.5844C58.4651 18.5844 56.9173 18.6575 55.2849 18.6575H50.436C48.7915 18.6575 47.1953 18.5844 45.5871 18.5844C44.0151 18.5844 42.3343 18.6453 40.7986 18.56C39.9763 18.5234 39.1904 18.5234 38.3681 18.5234C37.4007 18.5234 27.449 18.2429 26.6388 18.1454C25.9254 18.0722 25.0547 18.0966 24.2809 18.0478C23.4465 17.999 22.8056 18.0234 21.9955 17.9381C21.5843 17.9015 21.1853 17.9137 20.7742 17.9137C20.23 17.9137 19.6133 17.7795 18.4767 17.7795L15.1151 17.5113C14.4621 17.4625 13.531 17.4381 12.9022 17.3162C11.8744 17.3527 10.5926 16.9625 9.589 16.9381C8.70628 16.9137 4.18385 16.0357 3.15603 15.865C2.62398 15.7797 2.04356 15.6455 1.60824 15.5114C1.26967 15.4138 0.326486 15.2065 0 15.1821C0.108829 15.7553 0.665063 17.5966 1.03992 18.06L2.75699 20.3404C3.44624 21.2062 3.08347 21.1086 4.52243 21.2184C4.89728 21.9988 4.78845 23.267 5.30841 23.8767C5.44143 24.0231 5.56235 24.2182 5.69536 24.3889L6.49344 25.3401C6.73528 25.5962 6.67482 25.5352 7.06176 25.6327V25.6327Z" fill="#222556"/>
<path fill-rule="evenodd" clip-rule="evenodd" d="M12.9019 17.3161C13.5307 17.438 14.4618 17.4624 15.1148 17.5112L18.4764 17.7795C19.613 17.7795 20.2297 17.9136 20.7739 17.9136L21.9952 17.938C22.8053 18.0234 23.4462 17.999 24.2806 18.0477L26.6385 18.1453C27.4487 18.2428 37.4005 18.5233 38.3678 18.5233L40.7983 18.5599C42.334 18.6453 44.0148 18.5843 45.5868 18.5843L50.4357 18.6575H55.2846L60.0731 18.5843L69.5774 18.4258L74.2933 18.255L78.9488 18.0477C79.4083 18.0477 79.6259 17.9624 80.025 17.9258C80.424 17.877 80.823 17.938 81.2221 17.9014L83.4591 17.7063L87.9815 17.3161L86.6151 15.7796C86.0589 15.2552 86.2645 15.3772 85.9984 15.1089L85.551 14.6699L85.1157 14.2309L84.2451 13.4139C83.58 12.6822 83.5437 12.8163 82.8666 12.1456L75.3816 6.7801L73.7492 5.84113L72.5883 5.2436C70.315 4.02416 66.506 2.56083 64.003 1.86575C61.8748 1.28041 59.0573 0.658499 56.9049 0.41461L55.4297 0.219499C55.1576 0.216503 54.8864 0.187926 54.6195 0.134139C54.2931 0.0853611 54.0512 0.146333 53.7368 0.134139L52.189 0L46.3969 0.134139L41.0643 0.877998C40.6048 0.999942 40.1454 1.04872 39.6617 1.15847L35.6229 2.25597L33.0594 3.13397L30.6168 4.13391L26.6385 6.1094L23.9178 7.71907L22.9021 8.38976L21.8622 9.09704L16.2394 13.7675L12.9019 17.3161ZM80.1459 54.9237C84.0758 56.7528 88.6829 58.8137 92.7458 60.0331C92.9635 60.0941 93.0602 60.0941 93.1932 60.2404C93.5439 60.1429 94.1848 60.4112 94.5596 60.5209L95.8172 60.8745C96.7483 61.1306 97.7761 61.1306 98.683 61.3379C98.9007 60.5575 98.9974 59.8014 99.1667 59.0698C99.9164 55.7407 100.279 48.168 99.7471 44.8877C99.5415 43.656 99.469 42.5341 99.2271 41.1927C99.1546 40.7903 99.082 40.4367 99.0337 40.0221L98.2356 36.693C97.8245 35.1931 97.365 33.8639 96.8934 32.4615C96.6515 31.7787 96.3251 31.1689 96.0953 30.4739L93.3625 24.8278L92.8304 25.4132C88.2113 25.9985 82.0927 25.2424 77.933 26.157C77.8121 26.7546 78.1265 27.4252 77.8726 28.0106C77.4977 28.8398 76.6875 28.2301 76.6755 28.9496C76.6634 29.4007 76.8206 30.1934 76.8931 30.6812C77.4856 30.608 78.1507 30.6202 78.719 30.5348C80.9198 30.2422 80.1942 30.3031 80.3877 31.2543C80.4482 31.5713 80.5449 31.5104 81.1737 31.5104H92.8425C92.9272 32.1201 93.5318 35.3272 93.4109 35.6565C93.3383 35.8516 93.2416 35.8638 93.0602 35.9857C91.7663 36.8393 92.5644 36.8637 91.2101 36.8515C89.2754 36.8393 78.0056 36.7784 77.8726 36.9125C77.7396 37.0345 80.0733 54.7407 80.1459 54.9237V54.9237ZM2.10374 61.094C2.59951 60.8501 3.40968 60.5941 3.9901 60.3502L5.79181 59.5453C5.9732 59.0698 8.83901 58.2283 9.18968 58.1796C9.98776 58.0332 10.5924 58.0454 11.4146 58.0332C13.954 58.021 18.5248 56.4236 20.8343 55.6919L22.6844 36.7784C22.3579 36.632 11.0156 36.7174 8.85111 36.7174C7.47261 36.7174 7.46052 36.9247 7.09776 36.4857C5.91274 35.0346 6.49315 35.0833 6.68663 32.6932C6.71081 32.3518 6.77127 31.803 6.84382 31.4372L19.8186 31.425L19.9032 30.3031C20.6892 30.1934 22.9625 30.6812 23.422 30.4982L23.5792 28.6325C23.1197 28.4374 22.6965 28.3886 22.5151 27.9496C22.2612 27.3521 22.6723 26.6204 22.4426 26.4375C22.37 26.4009 8.53671 25.6449 7.06148 25.6327C7.06148 25.8278 6.78336 26.2058 6.66244 26.4741C5.56207 28.852 4.7519 30.1202 3.79663 33.0347C2.80508 36.0223 2.75671 36.1686 2.007 39.2416C1.91026 39.6563 1.88608 39.9855 1.80144 40.4001C1.39031 42.3756 1.1001 44.3267 1.02754 46.351C1.01545 46.7534 0.906623 47.0705 0.894531 47.4973V48.863V51.5824C0.906623 53.4603 1.29357 56.9601 1.65633 58.8259L1.99491 60.5575C2.04328 60.8502 2.11583 60.8501 2.10374 61.094V61.094Z" fill="#D14051"/>
<path fill-rule="evenodd" clip-rule="evenodd" d="M27.9334 52.7657L27.6553 58.1678C28.2236 58.18 29.2272 57.9605 29.7835 57.7532C32.6251 56.6801 31.3313 57.0581 32.5042 57.9605L33.6771 57.6556L37.2685 56.8508L37.4982 57.7532C41.2467 57.9361 43.0968 55.1558 45.5999 54.3997C45.3218 55.5216 44.826 55.607 46.2408 55.107C48.3569 54.3631 47.5951 54.3875 49.4331 54.6192C50.3521 54.7412 50.9688 54.729 51.6217 55.1436L55.201 56.9118C55.9265 57.2166 56.2046 57.6434 56.7609 58.0581C57.7282 58.7653 57.1357 58.6434 58.6109 58.9239L60.8601 59.2409C60.848 58.7653 60.0136 58.2044 59.9048 57.8386C60.195 57.5581 60.1466 57.6678 60.594 57.7898C60.9447 57.8751 61.9725 58.1434 62.1902 58.2897C63.5445 59.1555 62.6013 58.7287 64.3426 59.2409C64.9472 59.4238 65.2737 59.7409 65.8057 59.8994C66.0355 59.6555 66.0355 59.436 66.2289 59.1555C66.7368 59.0824 67.1963 59.6677 68.3088 59.058C68.2362 58.6556 66.628 56.8874 66.5675 56.424L67.5591 56.3996C68.0427 56.3752 67.9823 56.3996 68.2725 56.6435C68.9134 57.1435 68.7199 56.924 69.0585 57.741C69.3366 58.3995 69.1915 58.558 70.0742 58.7044C70.6063 58.7897 70.6184 58.5702 71.1988 57.9605C71.3076 57.9971 72.6015 58.5336 72.674 58.5946C73.0489 58.9117 72.9158 59.5824 73.593 59.6311C73.6535 59.3629 73.0247 51.8999 72.8917 51.4365C69.9049 50.656 58.4175 43.3028 56.8334 43.0833C56.1442 42.9858 55.8539 43.6564 55.2856 43.4491C54.1732 43.0223 52.843 43.1809 51.5734 43.1931C50.9809 43.2052 50.5697 42.937 49.8321 42.9492C49.4814 42.9614 49.0945 42.9736 48.7438 42.9492C48.3448 42.9248 48.1997 42.7297 47.9457 42.7541L46.6156 43.4613C46.0836 43.6321 46.2408 42.937 45.1283 43.5833C39.5297 46.8636 33.7255 49.8512 27.9334 52.7657V52.7657Z" fill="#FBDDD3"/>
<path fill-rule="evenodd" clip-rule="evenodd" d="M27.9326 52.7651C33.6159 49.8995 39.6498 46.7899 45.1275 43.5827C46.24 42.9364 46.0828 43.6315 46.6148 43.4608L47.945 42.7535C48.1989 42.7291 48.344 42.9242 48.743 42.9486C49.0937 42.973 49.4807 42.9608 49.8313 42.9486C50.5689 42.9364 50.9801 43.2047 51.5726 43.1925C52.8423 43.1803 54.1724 43.0218 55.2848 43.4486C55.8532 43.6559 56.1434 42.9852 56.8326 43.0828C58.4167 43.3023 69.9041 50.6555 72.8909 51.4359C72.7579 50.7653 72.7579 49.058 72.6974 48.5581L72.4798 46.8143C72.4193 46.4972 72.4677 46.168 72.4314 45.8387L71.5849 36.7905C71.5124 36.7051 71.5729 36.7051 71.3794 36.6563H50.3029C49.2146 36.6563 29.432 36.5588 28.9363 36.6929C28.8032 37.0709 28.5614 41.8146 28.5614 42.7535L28.0414 50.7287C27.981 51.3018 27.9568 52.1798 27.9326 52.7651V52.7651ZM29.3595 30.5469C29.8915 30.5957 31.8867 30.2421 32.455 30.2908L32.8178 31.4127C34.8493 31.7907 44.2932 31.5347 47.0018 31.4493C47.425 31.4249 47.3887 31.4005 47.3766 30.7908C47.3525 26.0472 47.8482 26.4862 46.3246 26.5228L30.9194 26.474C30.8589 26.9739 31.0282 27.8519 30.7622 28.2178C30.4478 28.6812 29.9399 28.4861 29.4925 28.7543C29.3595 28.8885 29.299 30.3274 29.3595 30.5469V30.5469ZM53.3622 30.3762C53.3622 31.742 53.2171 31.4371 54.6198 31.4371L67.2923 31.4493C68.1387 31.4249 67.7759 30.4128 68.5619 30.4128C71.1496 30.4616 71.0529 30.9493 70.9562 29.6445L70.9199 29.2299C70.8594 28.5104 70.6055 29.0104 69.9646 28.6934C69.094 28.2666 69.5293 27.0593 69.2391 26.3398C64.1967 26.2423 59.1785 26.4252 54.1361 26.4618C53.4589 26.4618 53.3622 26.2423 53.3622 26.913V30.3762Z" fill="#D14051"/>
<path fill-rule="evenodd" clip-rule="evenodd" d="M5.79199 59.5455C6.67471 59.5089 11.1246 60.2284 11.5962 60.0699L13.144 59.5211L14.7885 58.9968C15.6954 58.7407 15.5019 58.7041 16.6023 58.6797L18.6942 58.7163C19.1537 58.7407 19.8188 58.9358 20.375 58.8017C20.5443 58.7651 20.4597 58.7895 20.5564 58.7407L20.8345 55.6921L17.2794 56.8262L15.4173 57.3383L14.4378 57.57C13.5188 57.7407 12.358 58.0334 11.4148 58.0334L10.1935 58.0578C9.56471 58.0212 9.68563 58.0822 9.18986 58.1797C8.83919 58.2285 5.97337 59.0699 5.79199 59.5455V59.5455ZM93.1934 60.2406C93.0604 60.0943 92.9636 60.0943 92.746 60.0333C90.6299 59.3992 87.6915 58.2163 85.6842 57.3749L84.8499 57.0457L83.2658 56.3384C82.2259 55.936 81.065 55.3506 80.146 54.9238C80.1823 55.4848 80.2549 56.6798 80.4 57.1188C81.8631 57.3993 82.4435 57.8139 83.5318 58.0456C83.9067 58.1188 84.8015 58.3383 85.0433 58.5456C86.0712 59.4236 88.5017 59.6918 89.7471 59.765C90.4727 59.8138 90.908 59.7894 91.5972 59.9723C91.9842 60.0699 92.9032 60.3747 93.1934 60.2406V60.2406Z" fill="#FBDDD3"/>
</svg>
