<svg width="20" height="20" viewBox="0 0 20 20" fill="none" xmlns="http://www.w3.org/2000/svg">
<g clip-path="url(#clip0_2521_2)">
<path d="M12.2655 9.68527L13.5506 7.50454L17.0147 12.9L17.0163 13.9354L17.005 6.81026C16.9968 6.63609 16.9044 6.47675 16.7568 6.3828L10.5201 2.79539C10.3743 2.72371 10.1893 2.72447 10.0436 2.79763C10.024 2.80751 10.0055 2.81821 9.98779 2.82988L9.96612 2.84357L3.91245 6.35163L3.88893 6.36228C3.85874 6.37618 3.82821 6.39383 3.79955 6.41435C3.68479 6.49668 3.60854 6.61839 3.58388 6.75493C3.58019 6.77562 3.57747 6.79668 3.57617 6.81792L3.58567 12.6242L6.81231 7.6231C7.21853 6.95993 8.10366 6.74634 8.92529 6.75797L9.88962 6.78343L4.20767 15.8957L4.87746 16.2814L10.6275 6.79267L13.169 6.78343L7.43381 16.5115L9.82379 17.8862L10.1094 18.0504C10.2301 18.0995 10.3725 18.102 10.4944 18.058L16.8186 14.393L15.6095 15.0937L12.2655 9.68527ZM12.7558 16.7475L10.3418 12.9588L11.8154 10.4584L14.9856 15.4552L12.7558 16.7475Z" fill="#2D374B"/>
<path d="M10.3418 12.9584L12.7558 16.7472L14.9857 15.4548L11.8155 10.458L10.3418 12.9584Z" fill="#28A0F0"/>
<path d="M17.0165 13.9348L17.0149 12.8994L13.5508 7.50391L12.2656 9.68461L15.6097 15.093L16.8189 14.3924C16.9375 14.2961 17.0092 14.1548 17.0167 14.0022L17.0165 13.9348Z" fill="#28A0F0"/>
<path d="M2.50006 14.9111L4.20752 15.895L9.8895 6.78275L8.92517 6.75728C8.10349 6.74566 7.21842 6.95926 6.81215 7.62241L3.58552 12.6235L2.5 14.2914L2.50006 14.9111Z" fill="white"/>
<path d="M13.1685 6.7832L10.6271 6.79244L4.87695 16.2811L6.88675 17.4383L7.43331 16.5113L13.1685 6.7832Z" fill="white"/>
<path d="M18.0872 6.77044C18.0659 6.23892 17.7782 5.75232 17.3274 5.46904L11.009 1.83554C10.563 1.61097 10.0059 1.6107 9.55937 1.83537C9.50653 1.86198 3.41482 5.39497 3.41482 5.39497C3.33054 5.43537 3.24935 5.48354 3.17293 5.53817C2.77051 5.82661 2.5252 6.27477 2.5 6.76717V14.2922L3.58552 12.6243L3.57602 6.81807C3.57732 6.79683 3.57998 6.77597 3.58372 6.75534C3.60822 6.6187 3.68452 6.49683 3.79938 6.4145C3.82806 6.39397 10.0238 2.80766 10.0435 2.79777C10.1891 2.72462 10.3742 2.72386 10.52 2.79555L16.7566 6.38295C16.9042 6.4769 16.9967 6.63624 17.0049 6.81041V14.003C16.9973 14.1555 16.937 14.2968 16.8184 14.3932L15.6093 15.0938L14.9854 15.4553L12.7555 16.7476L10.4941 18.0582C10.3724 18.1022 10.2299 18.0997 10.1092 18.0506L7.4336 16.5117L6.88704 17.4387L9.29153 18.823C9.37103 18.8682 9.44187 18.9082 9.49995 18.941C9.59003 18.9915 9.65137 19.0252 9.67303 19.0357C9.84395 19.1187 10.0898 19.167 10.3114 19.167C10.5145 19.167 10.7126 19.1297 10.9 19.0562L17.4684 15.2523C17.8454 14.9602 18.0672 14.5197 18.0872 14.0426V6.77044Z" fill="#96BEDC"/>
</g>
<defs>
<clipPath id="clip0_2521_2">
<rect width="20" height="20" fill="white"/>
</clipPath>
</defs>
</svg>
