<svg width="20" height="20" viewBox="0 0 20 20" fill="none" xmlns="http://www.w3.org/2000/svg">
<path d="M10.0003 3.2224C10.3305 3.22136 10.6545 3.31277 10.9354 3.48629C11.2164 3.65982 11.4432 3.90852 11.5902 4.20427L16.5902 14.2043C16.7258 14.4753 16.79 14.7765 16.7764 15.0793C16.7629 15.3821 16.6722 15.6765 16.5129 15.9343C16.3536 16.1922 16.131 16.405 15.8662 16.5526C15.6015 16.7002 15.3034 16.7777 15.0003 16.7776H5.0003C4.69724 16.7776 4.39922 16.7 4.13456 16.5524C3.86989 16.4048 3.64737 16.1919 3.48812 15.9341C3.32887 15.6762 3.23818 15.382 3.22468 15.0792C3.21118 14.7764 3.2753 14.4753 3.41097 14.2043L8.41043 4.20427C8.55738 3.90852 8.78418 3.65982 9.06515 3.48629C9.34613 3.31277 9.67006 3.22136 10.0003 3.2224ZM10.0003 2C9.44326 1.99994 8.8972 2.15498 8.4233 2.44775C7.94939 2.74051 7.56636 3.15944 7.3171 3.6576L2.3171 13.6576C2.08823 14.115 1.98011 14.6233 2.00301 15.1343C2.0259 15.6452 2.17905 16.1419 2.4479 16.577C2.71676 17.0121 3.09239 17.3712 3.53912 17.6203C3.98584 17.8693 4.48883 18.0001 5.0003 18H15.0003C15.5117 18 16.0146 17.8692 16.4613 17.6201C16.908 17.371 17.2835 17.0118 17.5523 16.5767C17.8211 16.1416 17.9742 15.6451 17.9971 15.1342C18.0199 14.6232 17.9118 14.115 17.683 13.6576L12.6835 3.6576C12.4342 3.15944 12.0512 2.74051 11.5773 2.44775C11.1034 2.15498 10.5573 1.99994 10.0003 2Z" fill="#79D74B"/>
</svg>
