<svg width="20" height="20" viewBox="0 0 20 20" fill="none" xmlns="http://www.w3.org/2000/svg">
<g clip-path="url(#clip0_2416_35)">
<path fill-rule="evenodd" clip-rule="evenodd" d="M19.1428 10.4053C19.1428 15.2315 15.2305 19.1437 10.4043 19.1437C5.57832 19.1437 1.66602 15.2315 1.66602 10.4053C1.66602 5.57929 5.57832 1.66699 10.4043 1.66699C15.2305 1.66699 19.1428 5.57929 19.1428 10.4053ZM7.92817 13.8827H6.23231C5.87595 13.8827 5.69993 13.8827 5.5926 13.8142C5.47667 13.739 5.40584 13.6145 5.39725 13.4771C5.39081 13.3505 5.47883 13.1958 5.65485 12.8867L9.84218 5.506C10.0203 5.19258 10.1105 5.03587 10.2243 4.97791C10.3466 4.91566 10.4926 4.91566 10.615 4.97791C10.7288 5.03587 10.8189 5.19258 10.9971 5.506L11.8579 7.00867L11.8623 7.01633C12.0548 7.35258 12.1523 7.52308 12.1949 7.70203C12.2422 7.89738 12.2422 8.10347 12.1949 8.29882C12.152 8.47916 12.0554 8.65091 11.86 8.99216L9.66052 12.8802L9.65485 12.8902C9.46118 13.2292 9.36302 13.4011 9.22693 13.5307C9.07877 13.6724 8.9006 13.7754 8.70527 13.8334C8.5271 13.8827 8.32747 13.8827 7.92817 13.8827ZM12.2108 13.8827H14.6408C14.9993 13.8827 15.1797 13.8827 15.287 13.8121C15.4029 13.7369 15.4758 13.6102 15.4824 13.4728C15.4886 13.3503 15.4024 13.2017 15.2338 12.9106C15.2279 12.9007 15.2221 12.8906 15.2162 12.8803L13.999 10.7981L13.9851 10.7746C13.8141 10.4854 13.7278 10.3393 13.6168 10.2828C13.4946 10.2206 13.3507 10.2206 13.2283 10.2828C13.1167 10.3408 13.0265 10.4932 12.8483 10.8002L11.6355 12.8825L11.6313 12.8897C11.4538 13.1962 11.3651 13.3493 11.3714 13.475C11.38 13.6124 11.4508 13.739 11.5668 13.8142C11.672 13.8827 11.8523 13.8827 12.2108 13.8827Z" fill="#E84142"/>
</g>
<defs>
<clipPath id="clip0_2416_35">
<rect width="20" height="20" fill="white"/>
</clipPath>
</defs>
</svg>
