<svg width="20" height="20" viewBox="0 0 20 20" fill="none" xmlns="http://www.w3.org/2000/svg">
<g clip-path="url(#clip0_2730_2)">
<path d="M5.35378 4.11505L9.99869 1.43457L14.6437 4.11505L12.9359 5.1053L9.99869 3.41505L7.06147 5.1053L5.35378 4.11505ZM14.6437 7.49555L12.9359 6.5053L9.99869 8.19558L7.06147 6.5053L5.35378 7.49555V9.47604L8.29104 11.1663V14.5468L9.99869 15.537L11.7064 14.5468V11.1663L14.6437 9.47604V7.49555ZM14.6437 12.8565V10.876L12.9359 11.8663V13.8468L14.6437 12.8565ZM15.8561 13.5565L12.9189 15.2468V17.2272L17.5638 14.5468V9.18579L15.8561 10.176V13.5565ZM14.1484 5.8053L15.8561 6.79555V8.77604L17.5638 7.78579V5.8053L15.8561 4.81505L14.1484 5.8053ZM8.29104 15.9639V17.9443L9.99869 18.9345L11.7064 17.9443V15.9639L9.99869 16.9541L8.29104 15.9639ZM5.35378 12.8565L7.06147 13.8468V11.8663L5.35378 10.876V12.8565ZM8.29104 5.8053L9.99869 6.79555L11.7064 5.8053L9.99869 4.81505L8.29104 5.8053ZM4.14128 6.79555L5.84899 5.8053L4.14128 4.81505L2.43359 5.8053V7.78579L4.14128 8.77604V6.79555ZM4.14128 10.176L2.43359 9.18579V14.5468L7.07851 17.2272V15.2468L4.14128 13.5565V10.176Z" fill="#BABABA"/>
</g>
<defs>
<clipPath id="clip0_2730_2">
<rect width="20" height="20" fill="white"/>
</clipPath>
</defs>
</svg>
