<svg width="20" height="20" viewBox="0 0 20 20" fill="none" xmlns="http://www.w3.org/2000/svg">
<path d="M10 2C5.58173 2 2 5.58173 2 10C2 14.4183 5.58173 18 10 18C14.4183 18 18 14.4183 18 10C18 5.58173 14.4183 2 10 2Z" fill="url(#paint0_linear_2629_177)" stroke="black" stroke-width="0.515376"/>
<path d="M3.7521 9.47664L3.34187 9.88686L2.93164 9.47664L3.34187 9.06641L3.7521 9.47664Z" fill="black"/>
<path d="M17.0607 9.38289L16.6505 9.79311L16.2402 9.38289L16.6505 8.97266L17.0607 9.38289Z" fill="black"/>
<path d="M2.6875 10.8507L4.30977 10.4463L4.59868 11.605L4.36693 11.6628L4.42471 11.8946L4.19296 11.9524L4.25073 12.1841L3.55548 12.3575L3.49769 12.1257L3.26594 12.1835L3.20816 11.9518L2.97641 12.0095L2.6875 10.8507ZM3.03482 11.2565L3.15038 11.72L3.38214 11.6622L3.43991 11.894L4.13517 11.7206L4.07739 11.4889L4.30914 11.4311L4.19357 10.9675L3.03482 11.2565Z" fill="black"/>
<path d="M3.46875 13.3656L3.66906 13.2356L3.53898 13.0352L4.54055 12.3848L4.67063 12.5851L4.87095 12.4551L5.52137 13.4566L5.32106 13.5866L5.45114 13.787L4.44957 14.4374L4.31949 14.2372L4.11918 14.3672L3.46875 13.3656ZM3.79915 13.4358L4.1894 14.0368L5.19097 13.3864L4.80072 12.7854L3.79915 13.4358Z" fill="black"/>
<path d="M5.08429 15.4165L5.2346 15.2309L5.04898 15.0806L5.1993 14.895L5.01367 14.7447L5.46461 14.1879L5.65022 14.3381L5.80053 14.1526L5.98616 14.3029L6.13647 14.1172L7.06457 14.8687L6.91426 15.0544L6.17177 14.4531L6.02147 14.6387L5.83585 14.4884L5.38491 15.0454L5.57053 15.1956L5.42022 15.3812L5.79146 15.6819L6.09208 15.3107L5.90646 15.1604L6.05677 14.9747L6.61363 15.4257L6.01238 16.1681L5.08429 15.4165Z" fill="black"/>
<path d="M6.87305 16.6053L7.44488 15.0342L9.01598 15.606L8.93428 15.8304L7.81207 15.422L7.64869 15.8708L8.54647 16.1976L8.46477 16.4221L7.567 16.0953L7.40362 16.5442L8.52584 16.9526L8.44415 17.177L6.87305 16.6053Z" fill="black"/>
<path d="M9.59098 17.292V17.0533H9.35213V16.8144H9.11328V16.0979H9.35213V15.859H9.59098V15.6201H10.5464V15.859H10.7852V16.0979H10.3075V15.859H9.82982V16.0979H9.59098V16.8144H9.82982V17.0533H10.3075V16.8144H10.7852V17.0533H10.5464V17.292H9.59098Z" fill="black"/>
<path d="M11.6895 17.1228L11.1094 15.5547L11.5574 15.389L11.806 16.061L12.478 15.8124L12.2294 15.1403L12.6774 14.9746L13.2575 16.5426L12.8095 16.7084L12.5609 16.0364L11.8889 16.285L12.1375 16.9571L11.6895 17.1228Z" fill="black"/>
<path d="M13.9957 16.1261L13.2441 15.198L13.4297 15.0477L13.2793 14.862L13.4651 14.7117L13.3147 14.5262L13.8715 14.0752L14.0219 14.2608L14.2074 14.1105L14.3578 14.2962L14.5435 14.1458L15.295 15.0739L14.9238 15.3745L14.6232 15.0033L14.0663 15.4542L14.3669 15.8255L13.9957 16.1261ZM13.916 15.2686L14.4729 14.8177L14.1721 14.4464L13.9866 14.5967L13.8363 14.4112L13.6507 14.5614L13.801 14.747L13.6154 14.8974L13.916 15.2686Z" fill="black"/>
<path d="M15.7732 14.4787L15.573 14.3487L15.8331 13.948L14.8316 13.2976L14.5714 13.6982L14.3711 13.5682L15.1516 12.3662L15.3519 12.4964L15.0917 12.897L16.0933 13.5474L16.3535 13.1468L16.5538 13.2768L15.7732 14.4787Z" fill="black"/>
<path d="M16.8781 12.4868L15.2559 12.0823L15.3714 11.6188L15.6032 11.6766L15.661 11.4448L15.8927 11.5025L15.9504 11.2708L16.1822 11.3286L16.24 11.0969L15.5447 10.9235L15.6603 10.46L17.2826 10.8645L17.167 11.328L16.7035 11.2124L16.6457 11.4441L16.4139 11.3864L16.3562 11.6182L16.1245 11.5604L16.0667 11.7921L16.9937 12.0233L16.8781 12.4868Z" fill="black"/>
<path d="M10.9481 4.95674C10.9007 5.00701 10.8607 5.05027 10.8302 5.08359C10.4779 5.00668 10.0525 4.96688 9.69498 4.96688C9.42488 4.96688 9.15995 4.98956 8.90203 5.03316C8.51391 4.91714 8.20819 4.80663 7.83617 4.41566C7.80688 4.38488 7.7756 4.35147 7.74258 4.31621C7.55182 4.11247 7.3032 3.84696 7.04786 3.6704C6.89721 3.56625 6.72677 3.4801 6.5489 3.46373C6.36026 3.44637 6.17961 3.50925 6.02789 3.67031C5.76005 3.95466 5.5232 4.51925 5.38511 5.24346C5.24756 5.96484 5.20337 6.86829 5.33557 7.86757C5.10049 8.42889 4.9707 9.04507 4.9707 9.69115C4.9707 10.6561 5.26018 11.554 5.75705 12.3019C6.5106 13.9095 8.14351 15.0233 10.0369 15.0233C12.2445 15.0233 14.0981 13.5091 14.6166 11.4629C14.9044 10.9421 15.0655 10.3622 15.0655 9.7508C15.0655 8.50641 14.3998 7.39902 13.3625 6.64639C13.0634 6.07226 13.0502 5.66954 13.0358 5.23025C13.0331 5.14849 13.0303 5.06545 13.0257 4.97981C13.021 4.89239 13.0187 4.81604 13.0164 4.74188C13.0147 4.68736 13.0131 4.63402 13.0106 4.57837C13.0052 4.45765 12.9957 4.33827 12.9682 4.23426C12.9402 4.12801 12.8894 4.02258 12.7905 3.94678C12.6921 3.87143 12.5688 3.84268 12.4306 3.84268C12.3407 3.84268 12.25 3.87452 12.1698 3.91322C12.0867 3.95325 11.9996 4.00824 11.9128 4.07038C11.7393 4.19474 11.5535 4.35793 11.3851 4.51742C11.2159 4.67759 11.0608 4.83732 10.9481 4.95674Z" fill="url(#paint1_linear_2629_177)" stroke="black" stroke-width="0.557057"/>
<path fill-rule="evenodd" clip-rule="evenodd" d="M5.30859 10.9401C5.43954 11.4007 5.64108 11.8316 5.90078 12.2203C6.62572 13.7777 8.20467 14.8573 10.0358 14.8573C12.1733 14.8573 13.9672 13.3862 14.4602 11.4013C14.7418 10.8985 14.8988 10.3396 14.8988 9.75063C14.8988 9.16094 14.7414 8.60128 14.4591 8.0981C14.2842 8.03921 14.1332 8.03895 14.0141 8.10517C13.8303 8.20733 13.7428 8.45641 13.742 8.81273C13.7416 9.03832 13.5091 9.21634 13.2931 9.15107C12.6646 8.96107 12.0551 8.98619 11.5448 9.26984C11.4163 9.3413 11.2986 9.42668 11.1917 9.52451C10.703 9.97189 9.59571 10.2608 9.08135 9.84317C8.08719 9.03604 7.02098 8.73835 6.2467 9.16883C5.68388 9.48175 5.37089 10.1262 5.30859 10.9401Z" fill="white"/>
<path fill-rule="evenodd" clip-rule="evenodd" d="M9.73234 13.8315C8.2888 13.9645 6.8417 12.9179 5.83008 12.0591C6.51878 13.7026 8.1427 14.8572 10.0363 14.8572C12.1688 14.8572 13.9592 13.393 14.4571 11.415L14.3622 11.629C14.2661 11.8454 13.9967 11.9206 13.8024 11.7855C13.7728 11.9437 13.7094 12.0921 13.6187 12.2252C13.3644 12.547 13.0338 12.7566 12.6242 12.8325C12.5315 12.848 12.4358 12.8562 12.3377 12.8562C12.0678 12.8562 11.8147 12.7943 11.5966 12.6861C11.6485 12.8584 11.176 13.6986 9.73234 13.8315Z" fill="#F7ECDF"/>
<path d="M6.42344 6.72759C6.16263 5.87359 6.22937 4.82806 6.42345 4.22461C6.76326 5.36195 7.58634 6.03137 7.58634 6.03137C7.24307 6.10589 6.75265 6.39446 6.42344 6.72759Z" fill="black"/>
<path d="M11.762 9.74734C12.02 9.19688 13.5363 9.09857 13.7753 9.74734C13.9083 10.1082 13.3726 10.9291 13.0156 10.9819C12.5027 11.0579 11.4771 10.3551 11.762 9.74734Z" fill="black"/>
<path opacity="0.5" d="M10.2349 7.10577C10.0289 7.2658 9.26249 7.27931 9.18571 7.04508C9.10892 6.81086 9.60324 6.30673 9.96327 6.46613C10.2635 6.59905 10.5013 6.8989 10.2349 7.10577Z" fill="white"/>
<path opacity="0.5" d="M12.6322 6.79691C12.4892 7.01117 12.1052 6.98737 11.9524 6.79691C11.7997 6.60645 11.8232 6.24471 12.2216 6.27415C12.5537 6.2987 12.7282 6.6529 12.6322 6.79691Z" fill="white"/>
<path d="M11.5175 12.8347C11.4318 12.7585 11.539 12.6607 11.6433 12.7083C11.8506 12.8028 12.087 12.8564 12.3381 12.8564C12.9833 12.8564 13.5323 12.5026 13.7364 12.0085C13.7549 11.9638 13.8214 11.9683 13.8214 12.0167C13.8214 12.6624 13.2198 13.1859 12.4777 13.1859C12.1015 13.1859 11.7613 13.0514 11.5175 12.8347Z" fill="black"/>
<path fill-rule="evenodd" clip-rule="evenodd" d="M15.5582 6.80371L6.12695 7.91935L6.1805 8.37205L7.61403 8.20248L7.66758 8.65517L8.12026 8.60162L8.17382 9.05431L8.62662 9.00075L8.6801 9.45347L10.1891 9.27497L10.1356 8.82227L10.5882 8.76871L10.5347 8.31601L10.9874 8.26246L10.9338 7.80978L15.6117 7.25641L15.5582 6.80371ZM11.8392 7.70267L15.1591 7.30997L15.2126 7.76267L11.8928 8.15537L11.8392 7.70267ZM14.7599 7.81623L12.3454 8.10183L12.399 8.55453L12.8519 8.50096L12.8518 8.50101L12.9053 8.95371L14.4143 8.7752L14.3608 8.3225L14.3606 8.32249L14.8134 8.26893L14.7599 7.81623Z" fill="black"/>
<path d="M14.2539 7.41683L14.7067 7.36328L14.7602 7.81598L14.3075 7.86952L14.2539 7.41683Z" fill="white"/>
<path d="M13.8535 7.92269L14.3063 7.86914L14.3598 8.32184L13.9071 8.37539L13.8535 7.92269Z" fill="white"/>
<path d="M10.0293 7.91683L10.482 7.86328L10.5355 8.31598L10.0828 8.36953L10.0293 7.91683Z" fill="white"/>
<path d="M9.62891 8.42269L10.0816 8.36914L10.1352 8.82184L9.68246 8.87539L9.62891 8.42269Z" fill="white"/>
<path d="M14.1579 10.0713C14.532 10.5645 14.1221 11.4579 13.4118 11.4447C13.2569 11.4418 13.0988 11.4996 12.9926 11.6123C12.4318 12.2081 11.2497 12.2829 10.8836 11.4589C10.8467 11.3758 10.7878 11.3018 10.7064 11.2612L10.416 11.116" stroke="black" stroke-width="0.557057" stroke-linecap="round"/>
<path d="M12.2012 12.1188C13.1154 12.4859 13.6538 11.7794 13.6067 11.5146L12.972 11.5872L12.2012 12.1188Z" fill="black"/>
<defs>
<linearGradient id="paint0_linear_2629_177" x1="10" y1="18.1533" x2="10" y2="1.84669" gradientUnits="userSpaceOnUse">
<stop stop-color="#7774F4"/>
<stop offset="0.714952" stop-color="#9157F9"/>
<stop offset="1" stop-color="#B133FF"/>
</linearGradient>
<linearGradient id="paint1_linear_2629_177" x1="10.0181" y1="3.62665" x2="10.0181" y2="14.8575" gradientUnits="userSpaceOnUse">
<stop stop-color="#FBF476"/>
<stop offset="0.449777" stop-color="#FFA725"/>
<stop offset="1" stop-color="#FFA725"/>
</linearGradient>
</defs>
</svg>
