<svg width="20" height="20" viewBox="0 0 20 20" fill="none" xmlns="http://www.w3.org/2000/svg">
<g clip-path="url(#clip0_2416_38)">
<path d="M9.17109 0.506843C9.63692 0.262042 10.3458 0.262042 10.8116 0.506843L15.565 3.00482C15.8456 3.15225 15.9997 3.37195 16.0273 3.59874H16.0318V16.1549C16.0256 16.4023 15.8701 16.6479 15.565 16.8084L10.8116 19.3063C10.3458 19.5511 9.63692 19.5511 9.17109 19.3063L4.41759 16.8084C4.1138 16.6487 3.96802 16.4012 3.9608 16.1549C3.96008 16.1306 3.95999 16.1104 3.96068 16.0936L3.96065 3.67939C3.96017 3.6658 3.96013 3.65222 3.96052 3.63869L3.9608 3.59874L3.96293 3.59873C3.98404 3.36945 4.13113 3.15537 4.41759 3.00482L9.17109 0.506843ZM15.2835 10.6038L10.8116 12.9538C10.3458 13.1986 9.63692 13.1986 9.17109 12.9538L4.70889 10.6089V16.13L9.17109 18.4625C9.423 18.5965 9.6845 18.7271 9.94025 18.7437L9.99134 18.7454C10.2578 18.7463 10.5165 18.6116 10.7788 18.4842L15.2835 16.1099V10.6038ZM3.18765 15.8819C3.18765 16.3629 3.24384 16.6791 3.35542 16.9019C3.4479 17.0865 3.58666 17.2276 3.84002 17.3994L3.85449 17.4091C3.91009 17.4464 3.97134 17.4854 4.04589 17.5313L4.13383 17.5849L4.40382 17.747L4.01658 18.384L3.71438 18.2024L3.66359 18.1714C3.57621 18.1177 3.50379 18.0717 3.43624 18.0263C2.71414 17.5419 2.44484 17.0139 2.43953 15.9153L2.43945 15.8819H3.18765ZM9.61709 7.23832C9.5825 7.25015 9.55009 7.26382 9.5205 7.27937L4.76703 9.77737C4.76204 9.77995 4.75728 9.78253 4.75275 9.78512L4.74873 9.78745L4.75619 9.7917L4.76703 9.79753L9.5205 12.2955C9.55009 12.311 9.5825 12.3248 9.61709 12.3365V7.23832ZM10.3655 7.23832V12.3365C10.4002 12.3248 10.4326 12.311 10.4621 12.2955L15.2156 9.79753C15.2206 9.79495 15.2253 9.79237 15.2298 9.78978L15.2339 9.78745L15.2264 9.7832L15.2156 9.77737L10.4621 7.27937C10.4326 7.26382 10.4002 7.25015 10.3655 7.23832ZM15.2835 4.48944L11.0193 6.73028L15.2835 8.97112V4.48944ZM4.70889 4.49468V8.96587L8.96317 6.73028L4.70889 4.49468ZM10.4621 1.1651C10.2149 1.0352 9.76767 1.0352 9.5205 1.1651L4.76703 3.66309C4.76204 3.66571 4.75728 3.6683 4.75275 3.67086L4.74873 3.67318L4.75619 3.67743L4.76703 3.68329L9.5205 6.18127C9.76767 6.31117 10.2149 6.31117 10.4621 6.18127L15.2156 3.68329C15.2206 3.68067 15.2253 3.67807 15.2298 3.6755L15.2339 3.67318L15.2264 3.66892L15.2156 3.66309L10.4621 1.1651ZM15.986 1.43903L16.2882 1.62062L16.339 1.65165C16.4263 1.70531 16.4988 1.75141 16.5663 1.79672C17.2884 2.28108 17.5578 2.80917 17.563 3.90772L17.5631 3.94118H16.8149C16.8149 3.4601 16.7588 3.14391 16.6472 2.92114C16.5547 2.73652 16.4159 2.59542 16.1626 2.42372L16.1481 2.41397C16.0925 2.37667 16.0313 2.33761 15.9567 2.29168L15.8688 2.23811L15.5988 2.076L15.986 1.43903Z" fill="#1969FF"/>
</g>
<defs>
<clipPath id="clip0_2416_38">
<rect width="20" height="20" fill="white"/>
</clipPath>
</defs>
</svg>
