<svg width="20" height="20" viewBox="0 0 20 20" fill="none" xmlns="http://www.w3.org/2000/svg">
<path d="M10 2C5.6 2 2 5.6 2 10C2 14.4 5.6 18 10 18C14.4 18 18 14.4 18 10C18 5.6 14.4 2 10 2Z" fill="#01943F"/>
<path d="M8.02386 7.49609C8.02929 7.49283 8.03508 7.49019 8.04111 7.48822C8.10548 7.45834 8.16992 7.43009 8.2343 7.40497V6.13422C8.23446 6.02321 8.19055 5.91668 8.1122 5.83804C8.03385 5.75941 7.92749 5.71509 7.81648 5.71484H6.08398V9.36209C6.50708 8.54315 7.18911 7.88709 8.02386 7.49609Z" fill="white"/>
<path d="M9.78708 9.71842H10.1735C10.3067 9.71848 10.4387 9.69227 10.5618 9.6413C10.685 9.59033 10.7968 9.51559 10.8911 9.42136C10.9853 9.32712 11.06 9.21524 11.111 9.09211C11.162 8.96897 11.1882 8.837 11.1881 8.70374V7.6168C10.9792 7.58067 10.0242 7.56055 9.80277 7.56055C8.85863 7.55996 7.94945 7.91765 7.25879 8.56137C6.56813 9.20509 6.14746 10.0869 6.0817 11.0287C6.07545 11.1151 6.07227 11.2015 6.07227 11.2895C6.07227 11.3775 6.07539 11.4639 6.0817 11.5502V13.8684C6.08168 13.9232 6.09247 13.9776 6.11346 14.0283C6.13445 14.079 6.16522 14.1251 6.20402 14.1639C6.24282 14.2027 6.28889 14.2334 6.3396 14.2544C6.3903 14.2754 6.44464 14.2862 6.49952 14.2862H8.23202V11.269C8.23288 10.8573 8.39714 10.4627 8.68872 10.172C8.9803 9.88133 9.37535 9.71827 9.78708 9.71867V9.71842Z" fill="white"/>
<path d="M11.98 12.5047C11.9745 12.508 11.9687 12.5106 11.9627 12.5126C11.8983 12.5424 11.8339 12.5707 11.7695 12.5959V13.8666C11.7694 13.9776 11.8133 14.0841 11.8916 14.1628C11.97 14.2414 12.0763 14.2857 12.1873 14.286H13.9186V10.6387C13.4956 11.4573 12.8141 12.1133 11.98 12.5047Z" fill="white"/>
<path d="M13.919 8.45109V6.13266C13.919 6.07778 13.9082 6.02344 13.8872 5.97274C13.8663 5.92203 13.8355 5.87597 13.7967 5.83716C13.7579 5.79836 13.7118 5.76759 13.6611 5.7466C13.6104 5.72561 13.5561 5.71482 13.5012 5.71484H11.7687V8.73234C11.7678 9.14378 11.6038 9.53807 11.3125 9.82866C11.0213 10.1193 10.6266 10.2824 10.2152 10.2823H9.82719C9.6939 10.2823 9.56191 10.3085 9.43876 10.3595C9.31561 10.4105 9.20372 10.4852 9.10948 10.5795C9.01524 10.6738 8.94051 10.7857 8.88955 10.9088C8.83859 11.032 8.81241 11.164 8.8125 11.2973V12.3842C9.02144 12.4203 9.97644 12.4405 10.1979 12.4405C10.2229 12.4405 10.2466 12.4405 10.2717 12.4389C10.7911 12.43 11.3027 12.3118 11.7733 12.0918L11.7828 12.0871C12.3847 11.8057 12.9004 11.3683 13.2763 10.8203C13.6522 10.2723 13.8745 9.63366 13.9203 8.97072C13.9265 8.88434 13.9297 8.79791 13.9297 8.70997C13.9284 8.62384 13.9253 8.53747 13.919 8.45109Z" fill="white"/>
</svg>
