<svg width="20" height="20" viewBox="0 0 20 20" fill="none" xmlns="http://www.w3.org/2000/svg">
<path d="M13.7248 3.41708C15.6403 4.22972 16.9173 6.23232 16.7722 8.26393C13.3475 8.26393 9.92277 8.29295 6.49805 8.23491C6.49805 6.87082 6.96242 5.47772 7.9492 4.51996C9.40035 3.03978 11.8093 2.57541 13.7248 3.41708Z" fill="#5FC0C1"/>
<path d="M13.5811 16.4775C13.7843 16.4775 13.9584 16.5936 13.9584 16.7387C13.9584 16.8839 13.7843 17 13.5811 17H8.06675C7.86359 17 7.68945 16.8839 7.68945 16.7387C7.68945 16.5936 7.86359 16.4775 8.06675 16.4775H13.5811Z" fill="#E1177C"/>
<path d="M6.87535 16.9997C7.08372 16.9997 7.25264 16.8308 7.25264 16.6224C7.25264 16.414 7.08372 16.2451 6.87535 16.2451C6.66697 16.2451 6.49805 16.414 6.49805 16.6224C6.49805 16.8308 6.66697 16.9997 6.87535 16.9997Z" fill="#E1177C"/>
<path d="M10.1839 15.6062C10.3923 15.6062 10.5612 15.4372 10.5612 15.2289C10.5612 15.0205 10.3923 14.8516 10.1839 14.8516C9.97556 14.8516 9.80664 15.0205 9.80664 15.2289C9.80664 15.4372 9.97556 15.6062 10.1839 15.6062Z" fill="#E1177C"/>
<path d="M16.6565 14.8516C16.8596 14.8516 17.0338 15.0257 17.0338 15.2289C17.0338 15.432 16.8596 15.6062 16.6565 15.6062H11.2582C11.055 15.6062 10.8809 15.432 10.8809 15.2289C10.8809 15.0257 11.055 14.8516 11.2582 14.8516H16.6565Z" fill="#E1177C"/>
<path d="M3.10386 14.2136C3.31224 14.2136 3.48116 14.0447 3.48116 13.8363C3.48116 13.6279 3.31224 13.459 3.10386 13.459C2.89549 13.459 2.72656 13.6279 2.72656 13.8363C2.72656 14.0447 2.89549 14.2136 3.10386 14.2136Z" fill="#E1177C"/>
<path d="M8.47213 13.459C8.67529 13.459 8.84942 13.6331 8.84942 13.8363C8.84942 14.0394 8.67529 14.2136 8.47213 14.2136H4.0316C3.82844 14.2136 3.6543 14.0394 3.6543 13.8363C3.6543 13.6331 3.82844 13.459 4.0316 13.459H8.47213Z" fill="#E1177C"/>
<path d="M18.4269 13.459C18.63 13.459 18.8042 13.6331 18.8042 13.8363C18.8042 14.0394 18.63 14.2136 18.4269 14.2136H9.60386C9.4007 14.2136 9.22656 14.0394 9.22656 13.8363C9.22656 13.6331 9.4007 13.459 9.60386 13.459H18.4269Z" fill="#E1177C"/>
<path d="M16.7732 12.0664C16.9764 12.0664 17.1505 12.2405 17.1505 12.4437C17.1505 12.6469 16.9764 12.821 16.7732 12.821H5.94761C5.74445 12.821 5.57031 12.6469 5.57031 12.4437C5.57031 12.2405 5.74445 12.0664 5.94761 12.0664H16.7732Z" fill="#E1177C"/>
<path d="M4.75621 12.821C4.96458 12.821 5.13351 12.6521 5.13351 12.4437C5.13351 12.2353 4.96458 12.0664 4.75621 12.0664C4.54783 12.0664 4.37891 12.2353 4.37891 12.4437C4.37891 12.6521 4.54783 12.821 4.75621 12.821Z" fill="#E1177C"/>
<path d="M14.5076 10.7012C14.7107 10.7012 14.8849 10.8753 14.8849 11.0785C14.8849 11.2816 14.7107 11.4558 14.5076 11.4558H3.68199C3.47883 11.4558 3.30469 11.2816 3.30469 11.0785C3.30469 10.8753 3.47883 10.7012 3.68199 10.7012H14.5076Z" fill="#E1177C"/>
<path d="M2.3773 11.4558C2.58568 11.4558 2.7546 11.2868 2.7546 11.0785C2.7546 10.8701 2.58568 10.7012 2.3773 10.7012C2.16892 10.7012 2 10.8701 2 11.0785C2 11.2868 2.16892 11.4558 2.3773 11.4558Z" fill="#E1177C"/>
<path d="M4.75621 10.0632C4.96458 10.0632 5.13351 9.89427 5.13351 9.68589C5.13351 9.47752 4.96458 9.30859 4.75621 9.30859C4.54783 9.30859 4.37891 9.47752 4.37891 9.68589C4.37891 9.89427 4.54783 10.0632 4.75621 10.0632Z" fill="#E1177C"/>
<path d="M17.8169 9.30859C18.0201 9.30859 18.1942 9.48273 18.1942 9.68589C18.1942 9.88906 18.0201 10.0632 17.8169 10.0632H6.03355C5.83039 10.0632 5.65625 9.88906 5.65625 9.68589C5.65625 9.48273 5.83039 9.30859 6.03355 9.30859H17.8169Z" fill="#E1177C"/>
</svg>
