<svg width="20" height="20" viewBox="0 0 20 20" fill="none" xmlns="http://www.w3.org/2000/svg">
<mask id="mask0_2626_40" style="mask-type:luminance" maskUnits="userSpaceOnUse" x="2" y="2" width="16" height="16">
<path d="M18 2H2V18H18V2Z" fill="white"/>
</mask>
<g mask="url(#mask0_2626_40)">
<path fill-rule="evenodd" clip-rule="evenodd" d="M16.375 5.175C15.1625 3.625 13.3875 2.6375 11.425 2.6375C7.625 2.6375 4.8375 6.175 4.8375 10C4.8375 12.6625 6.6125 14.6625 8.575 14.6625C8.7625 14.6625 8.9375 14.65 9.125 14.6125C7.8 13.65 6.9625 11.9 6.9625 10C6.9625 6.975 9.0125 4.6125 11.425 4.6125C14.0625 4.6125 15.8875 7.225 15.8875 10C15.875 12.05 15.15 14.0875 13.8625 15.5875C12.7375 16.9 11.2875 17.725 9.6875 17.9875C9.6875 17.9875 9.825 18 10 18C14.4125 18 18 14.4125 18 10C18 8.1875 17.4 6.5125 16.375 5.175ZM15.1625 10C15.1625 7.3375 13.3875 5.3375 11.425 5.3375C11.2375 5.3375 11.0625 5.35 10.875 5.3875C12.2 6.35 13.0375 8.1 13.0375 10C13.0375 13.025 10.9875 15.3875 8.575 15.3875C5.9375 15.3875 4.1125 12.775 4.1125 10C4.125 7.95 4.85 5.9125 6.1375 4.4125C7.2625 3.1 8.7125 2.275 10.3125 2.0125C10.3125 2.0125 10.175 2 10 2C5.5875 2 2 5.5875 2 10C2 11.8125 2.6 13.4875 3.625 14.825C4.8375 16.375 6.6125 17.35 8.575 17.35C12.375 17.3625 15.1625 13.825 15.1625 10Z" fill="#0089DB"/>
</g>
</svg>
