<svg width="20" height="20" viewBox="0 0 20 20" fill="none" xmlns="http://www.w3.org/2000/svg">
<path d="M6.27926 12.3994H1.11997C1.08815 12.3994 1.05763 12.3868 1.03514 12.3643C1.01263 12.3418 1 12.3113 1 12.2794V7.12013C1 7.08831 1.01263 7.0578 1.03514 7.03531C1.05763 7.01279 1.08815 7.00016 1.11997 7.00016H6.27926C6.3111 7.00016 6.34162 7.01279 6.36411 7.03531C6.38662 7.0578 6.39925 7.08831 6.39925 7.12013V12.2794C6.39925 12.3113 6.38662 12.3418 6.36411 12.3643C6.34162 12.3868 6.3111 12.3994 6.27926 12.3994ZM4.59949 8.91989C4.59949 8.88807 4.58686 8.85755 4.56435 8.83504C4.54186 8.81255 4.51134 8.7999 4.47953 8.7999H2.91973C2.88791 8.7999 2.85739 8.81255 2.83488 8.83504C2.81239 8.85755 2.79976 8.88807 2.79976 8.91989V10.4797C2.79976 10.5115 2.81239 10.542 2.83488 10.5645C2.85739 10.587 2.88791 10.5997 2.91973 10.5997H4.47953C4.51134 10.5997 4.54186 10.587 4.56435 10.5645C4.58686 10.542 4.59949 10.5115 4.59949 10.4797V8.91989Z" fill="black"/>
<path d="M17.0802 10.5996H15.5204C15.4541 10.5996 15.4004 10.5459 15.4004 10.4796V8.91984C15.4004 8.85358 15.4541 8.79985 15.5204 8.79985H17.0802C17.1464 8.79985 17.2001 8.85358 17.2001 8.91984V10.4796C17.2001 10.5459 17.1464 10.5996 17.0802 10.5996Z" fill="black"/>
<path d="M15.2813 12.3994H13.7216C13.6553 12.3994 13.6016 12.3457 13.6016 12.2794V10.7196C13.6016 10.6534 13.6553 10.5997 13.7216 10.5997H15.2813C15.3476 10.5997 15.4013 10.6534 15.4013 10.7196V12.2794C15.4013 12.3457 15.3476 12.3994 15.2813 12.3994Z" fill="black"/>
<path d="M18.881 12.3994H17.3212C17.2549 12.3994 17.2012 12.3457 17.2012 12.2794V10.7196C17.2012 10.6534 17.2549 10.5997 17.3212 10.5997H18.881C18.9472 10.5997 19.0009 10.6534 19.0009 10.7196V12.2794C19.0009 12.3457 18.9472 12.3994 18.881 12.3994Z" fill="black"/>
<path d="M15.2813 8.7998H13.7216C13.6553 8.7998 13.6016 8.7461 13.6016 8.67984V7.12004C13.6016 7.05377 13.6553 7.00004 13.7216 7.00004H15.2813C15.3476 7.00004 15.4013 7.05377 15.4013 7.12004V8.67984C15.4013 8.7461 15.3476 8.7998 15.2813 8.7998Z" fill="black"/>
<path d="M18.881 8.7998H17.3212C17.2549 8.7998 17.2012 8.7461 17.2012 8.67984V7.12004C17.2012 7.05377 17.2549 7.00004 17.3212 7.00004H18.881C18.9472 7.00004 19.0009 7.05377 19.0009 7.12004V8.67984C19.0009 8.7461 18.9472 8.7998 18.881 8.7998Z" fill="black"/>
<path d="M12.5782 12.3994H11.0184C10.9522 12.3994 10.8984 12.3457 10.8984 12.2794V10.7196C10.8984 10.6534 10.9522 10.5997 11.0184 10.5997H12.5782C12.6445 10.5997 12.6982 10.6534 12.6982 10.7196V12.2794C12.6982 12.3457 12.6445 12.3994 12.5782 12.3994Z" fill="black"/>
<path d="M12.5782 8.7998H11.0184C10.9522 8.7998 10.8984 8.7461 10.8984 8.67984V7.12004C10.8984 7.05377 10.9522 7.00004 11.0184 7.00004H12.5782C12.6445 7.00004 12.6982 7.05377 12.6982 7.12004V8.67984C12.6982 8.7461 12.6445 8.7998 12.5782 8.7998Z" fill="black"/>
<path d="M10.8983 10.481C10.8983 10.5129 10.8857 10.5434 10.8632 10.5659C10.8407 10.5884 10.8102 10.601 10.7784 10.601H9.09859V12.2794C9.09859 12.3113 9.08593 12.3418 9.06344 12.3643C9.04093 12.3868 9.01041 12.3994 8.97859 12.3994H7.41882C7.38698 12.3994 7.35646 12.3868 7.33397 12.3643C7.31146 12.3418 7.29883 12.3113 7.29883 12.2794V7.12283C7.29883 7.09101 7.31146 7.0605 7.33397 7.03801C7.35646 7.01549 7.38698 7.00286 7.41882 7.00286H8.97859C9.01041 7.00286 9.04093 7.01549 9.06344 7.03801C9.08593 7.0605 9.09859 7.09101 9.09859 7.12283V8.80125H10.7784C10.8102 8.80125 10.8407 8.8139 10.8632 8.83639C10.8857 8.85891 10.8983 8.88942 10.8983 8.92124V10.481Z" fill="black"/>
</svg>
