<svg width="20" height="20" viewBox="0 0 20 20" fill="none" xmlns="http://www.w3.org/2000/svg">
<path d="M10 18C14.4183 18 18 14.4183 18 10C18 5.58172 14.4183 2 10 2C5.58172 2 2 5.58172 2 10C2 14.4183 5.58172 18 10 18Z" fill="#FF0420"/>
<path d="M7.66732 12.125C7.19052 12.125 6.80012 12.013 6.49612 11.789C6.19532 11.5618 6.04492 11.2354 6.04492 10.8162C6.04492 10.7266 6.05452 10.621 6.07372 10.493C6.12492 10.205 6.19852 9.85936 6.29452 9.45296C6.56652 8.35216 7.27052 7.80176 8.40332 7.80176C8.71052 7.80176 8.98892 7.85296 9.23212 7.95856C9.47532 8.05776 9.66732 8.21136 9.80812 8.41616C9.94892 8.61776 10.0193 8.85776 10.0193 9.13616C10.0193 9.21936 10.0097 9.32496 9.99052 9.45296C9.92972 9.80816 9.85932 10.157 9.77292 10.493C9.63212 11.0402 9.39212 11.453 9.04652 11.725C8.70412 11.9938 8.24332 12.125 7.66732 12.125ZM7.75372 11.261C7.97772 11.261 8.16652 11.1938 8.32332 11.0626C8.48332 10.9314 8.59852 10.7298 8.66572 10.4546C8.75852 10.077 8.82892 9.75056 8.87692 9.46896C8.89292 9.38576 8.90252 9.29936 8.90252 9.20976C8.90252 8.84496 8.71372 8.66256 8.33292 8.66256C8.10892 8.66256 7.91692 8.72976 7.75692 8.86096C7.60012 8.99216 7.48812 9.19376 7.42092 9.46896C7.34732 9.73776 7.27692 10.0642 7.20332 10.4546C7.18732 10.5346 7.17772 10.6178 7.17772 10.7074C7.17452 11.0786 7.36972 11.261 7.75372 11.261Z" fill="white"/>
<path d="M10.2978 12.0671C10.253 12.0671 10.221 12.0543 10.1954 12.0255C10.1762 11.9935 10.1698 11.9583 10.1762 11.9167L11.005 8.0127C11.0114 7.9679 11.0338 7.9327 11.0722 7.9039C11.1074 7.8751 11.1458 7.8623 11.1874 7.8623H12.7842C13.229 7.8623 13.5842 7.9551 13.853 8.1375C14.125 8.3231 14.2626 8.5887 14.2626 8.9375C14.2626 9.0367 14.2498 9.14231 14.2274 9.25111C14.1282 9.71191 13.9266 10.0511 13.6194 10.2719C13.3186 10.4927 12.9058 10.6015 12.381 10.6015H11.5714L11.2962 11.9167C11.2866 11.9615 11.2674 11.9967 11.229 12.0255C11.1938 12.0543 11.1554 12.0671 11.1138 12.0671H10.2978ZM12.4226 9.7727C12.5922 9.7727 12.7362 9.72791 12.861 9.63511C12.989 9.54231 13.0722 9.4111 13.1138 9.2383C13.1266 9.1711 13.133 9.11031 13.133 9.05911C13.133 8.94391 13.0978 8.8543 13.0306 8.7935C12.9634 8.7295 12.845 8.6975 12.6818 8.6975H11.9618L11.7346 9.7727H12.4226Z" fill="white"/>
</svg>
