<svg width="20" height="20" viewBox="0 0 20 20" fill="none" xmlns="http://www.w3.org/2000/svg">
<g clip-path="url(#clip0_2416_17)">
<path d="M14.5026 7.00705C14.1827 6.82428 13.7715 6.82428 13.406 7.00705L10.8472 8.51492L9.11099 9.47442L6.5979 10.9823C6.27806 11.165 5.86684 11.165 5.50129 10.9823L3.53654 9.79426C3.2167 9.61151 2.98824 9.24592 2.98824 8.83476V6.55013C2.98824 6.1846 3.17101 5.81906 3.53654 5.5906L5.50129 4.4483C5.82114 4.26553 6.23237 4.26553 6.5979 4.4483L8.56266 5.63629C8.88249 5.81906 9.11099 6.1846 9.11099 6.59582V8.10366L10.8472 7.09843V5.54491C10.8472 5.17937 10.6645 4.81384 10.2989 4.58538L6.64359 2.43786C6.32375 2.25509 5.91253 2.25509 5.54699 2.43786L1.80025 4.63107C1.43472 4.81384 1.25195 5.17937 1.25195 5.54491V9.83992C1.25195 10.2055 1.43472 10.571 1.80025 10.7995L5.50129 12.947C5.82114 13.1298 6.23237 13.1298 6.5979 12.947L9.11099 11.4848L10.8472 10.4797L13.3603 9.01751C13.6802 8.83476 14.0914 8.83476 14.4569 9.01751L16.4217 10.1598C16.7415 10.3426 16.97 10.7081 16.97 11.1193V13.4039C16.97 13.7694 16.7872 14.135 16.4217 14.3634L14.5026 15.5058C14.1827 15.6885 13.7715 15.6885 13.406 15.5058L11.4412 14.3634C11.1214 14.1807 10.8929 13.8152 10.8929 13.4039V11.9418L9.15666 12.947V14.4548C9.15666 14.8203 9.33941 15.1859 9.70491 15.4143L13.406 17.5618C13.7258 17.7447 14.1371 17.7447 14.5026 17.5618L18.2037 15.4143C18.5235 15.2316 18.7519 14.8661 18.7519 14.4548V10.1141C18.7519 9.74859 18.5692 9.38301 18.2037 9.15459L14.5026 7.00705Z" fill="#8247E5"/>
</g>
<defs>
<clipPath id="clip0_2416_17">
<rect width="20" height="20" fill="white"/>
</clipPath>
</defs>
</svg>
