<svg width="18" height="20" viewBox="0 0 18 20" fill="none" xmlns="http://www.w3.org/2000/svg">
    <path d="M3.04533 16.1552C2.74533 15.9552 2.48733 15.7002 2.18533 15.3392C2.02858 15.1474 1.87324 14.9544 1.71933 14.7602C1.25633 14.1852 0.964333 13.9202 0.662333 13.8112C0.412632 13.7216 0.208768 13.5364 0.0955903 13.2965C-0.0175879 13.0565 -0.0308096 12.7814 0.0588335 12.5317C0.148477 12.282 0.333642 12.0782 0.573595 11.965C0.813547 11.8518 1.08863 11.8386 1.33833 11.9282C2.09033 12.1982 2.59933 12.6632 3.28533 13.5162C3.19133 13.3992 3.62533 13.9432 3.71833 14.0552C3.90833 14.2822 4.04833 14.4202 4.15833 14.4932C4.36233 14.6302 4.74533 14.6892 5.30833 14.6332C5.33133 14.2512 5.40233 13.8802 5.51033 13.5382C2.54233 12.8122 0.862333 10.8982 0.862333 7.14222C0.862333 5.90222 1.23233 4.78622 1.92033 3.85022C1.70233 2.95622 1.73533 1.87522 2.22233 0.65822C2.2776 0.520555 2.3628 0.396911 2.47177 0.296249C2.58073 0.195587 2.71073 0.120428 2.85233 0.0762203C2.93333 0.0522203 2.97933 0.0412204 3.06033 0.0292204C3.86333 -0.0937796 4.99733 0.19922 6.47533 1.12522C7.35613 0.919303 8.25779 0.81595 9.16233 0.81722C10.0743 0.81722 10.9803 0.92122 11.8463 1.12522C13.3233 0.19222 14.4593 -0.10078 15.2683 0.0292204C15.3533 0.0422204 15.4253 0.0592203 15.4863 0.0792203C15.6252 0.124997 15.7523 0.200654 15.8587 0.300863C15.9651 0.401072 16.0483 0.523396 16.1023 0.65922C16.5893 1.87522 16.6223 2.95622 16.4043 3.84922C17.0953 4.78522 17.4623 5.89422 17.4623 7.14222C17.4623 10.8992 15.7883 12.8072 12.8203 13.5342C12.9453 13.9492 13.0103 14.4132 13.0103 14.9142C13.0104 15.8196 13.0064 16.7249 12.9983 17.6302C13.2229 17.6792 13.4238 17.8041 13.5671 17.9838C13.7104 18.1635 13.7874 18.3871 13.7852 18.6169C13.7829 18.8468 13.7016 19.0689 13.5548 19.2458C13.408 19.4227 13.2048 19.5436 12.9793 19.5882C11.8403 19.8162 10.9963 19.0562 10.9963 18.0632L10.9983 17.6172L11.0033 16.9122C11.0083 16.2042 11.0103 15.5742 11.0103 14.9142C11.0103 14.2172 10.8273 13.7622 10.5853 13.5542C9.92433 12.9842 10.2593 11.8992 11.1253 11.8022C14.0923 11.4692 15.4623 10.3202 15.4623 7.14222C15.4623 6.18722 15.1503 5.39822 14.5493 4.73822C14.4227 4.59946 14.3377 4.42785 14.3041 4.24303C14.2705 4.05821 14.2897 3.86767 14.3593 3.69322C14.5253 3.27922 14.5963 2.73622 14.4553 2.07922L14.4453 2.08222C13.9543 2.22122 13.3353 2.52222 12.5873 3.03122C12.4667 3.11308 12.3297 3.16757 12.1858 3.19089C12.0419 3.21421 11.8946 3.20579 11.7543 3.16622C10.9102 2.93251 10.0382 2.81509 9.16233 2.81722C8.27233 2.81722 7.39033 2.93622 6.57033 3.16722C6.43055 3.20648 6.2839 3.21483 6.14057 3.19168C5.99723 3.16854 5.86066 3.11447 5.74033 3.03322C4.98833 2.52622 4.36633 2.22622 3.87233 2.08622C3.72833 2.73922 3.79933 3.28022 3.96433 3.69322C4.03414 3.86758 4.05344 4.05807 4.02001 4.24288C3.98659 4.4277 3.90179 4.59936 3.77533 4.73822C3.17833 5.39222 2.86233 6.19622 2.86233 7.14222C2.86233 10.3142 4.23333 11.4702 7.18433 11.8022C8.04933 11.8992 8.38533 12.9792 7.72833 13.5502C7.53633 13.7182 7.29933 14.2822 7.29933 14.9142V18.0642C7.29933 19.0502 6.46433 19.7892 5.33933 19.5922C5.1111 19.5521 4.90387 19.4341 4.75305 19.2581C4.60223 19.0822 4.5172 18.8593 4.51248 18.6277C4.50775 18.396 4.58363 18.1699 4.72715 17.9879C4.87067 17.806 5.07292 17.6796 5.29933 17.6302V16.6402C4.38933 16.7012 3.63733 16.5522 3.04533 16.1552Z" fill="#D171FF"/>
</svg>