<svg width="18" height="18" viewBox="0 0 18 18" fill="none" xmlns="http://www.w3.org/2000/svg">
    <path d="M1 0H17C17.5523 0 18 0.44772 18 1V17C18 17.5523 17.5523 18 17 18H1C0.44771 18 0 17.5523 0 17V1C0 0.44772 0.44771 0 1 0ZM2 2V16H16V2H2ZM14.3009 12.9403L15.255 13.8944V13.9446H10.3338V13.8944L11.3381 12.9403C11.4385 12.8399 11.4887 12.7394 11.4887 12.5888V6.6635C11.4887 6.41243 11.4887 6.06093 11.539 5.75964L8.22472 14.045H8.17442L4.75974 6.41243C4.70952 6.21157 4.65931 6.21157 4.60909 6.11114V11.1326C4.55887 11.4841 4.60909 11.7854 4.75974 12.0866L6.11559 13.8944V13.9446H2.5V13.8944L3.85584 12.0364C4.00649 11.7351 4.05671 11.3836 4.00649 11.0824V5.55879C4.00649 5.30771 3.95628 5.00643 3.75541 4.80557L2.85151 3.55021V3.5H6.36667L9.27922 9.9776L11.8403 3.5H15.255V3.55021L14.3009 4.65493C14.2004 4.75536 14.1502 4.906 14.1502 5.00643V12.639C14.1502 12.7394 14.2004 12.8901 14.3009 12.9403Z" fill="#D171FF"/>
</svg>