<svg width="33" height="33" viewBox="0 0 33 33" fill="none" xmlns="http://www.w3.org/2000/svg">
    <path d="M20.905 11.0013C20.145 11.0012 19.4153 11.2994 18.8729 11.8319C18.3305 12.3643 18.0189 13.0884 18.005 13.8483L17.977 15.4233C17.9754 15.5079 17.9559 15.5911 17.9198 15.6676C17.8837 15.7441 17.8319 15.8121 17.7676 15.8672C17.7034 15.9222 17.6283 15.9631 17.5472 15.987C17.4661 16.011 17.3808 16.0176 17.297 16.0063L15.736 15.7943C13.682 15.5143 11.714 14.5683 9.826 12.9953C9.228 16.3053 10.396 18.5983 13.209 20.3673L14.956 21.4653C15.039 21.5175 15.108 21.5892 15.1568 21.6741C15.2057 21.7591 15.233 21.8548 15.2364 21.9528C15.2397 22.0507 15.219 22.1481 15.1761 22.2362C15.1331 22.3243 15.0692 22.4006 14.99 22.4583L13.398 23.6213C14.345 23.6803 15.244 23.6383 15.99 23.4903C20.708 22.5483 23.845 18.9983 23.845 13.1423C23.845 12.6643 22.833 11.0013 20.905 11.0013ZM16.005 13.8113C16.0225 12.8473 16.3239 11.91 16.8716 11.1165C17.4192 10.3231 18.1888 9.70881 19.0839 9.35065C19.979 8.9925 20.9599 8.90637 21.9037 9.10303C22.8476 9.2997 23.7124 9.77043 24.39 10.4563C25.101 10.4513 25.706 10.6313 27.059 9.81129C26.724 11.4513 26.559 12.1633 25.845 13.1423C25.845 20.7843 21.148 24.5003 16.382 25.4513C13.114 26.1033 8.362 25.0323 7 23.6103C7.694 23.5563 10.514 23.2533 12.144 22.0603C10.765 21.1513 5.276 17.9213 8.883 9.23729C10.576 11.2143 12.293 12.5603 14.033 13.2743C15.191 13.7493 15.475 13.7393 16.006 13.8123L16.005 13.8113Z" fill="#D171FF"/>
</svg>