<svg width="57" height="57" viewBox="0 0 57 57" fill="none" xmlns="http://www.w3.org/2000/svg">
<rect x="0.5" y="0.5" width="56" height="56" rx="9.5" fill="white" stroke="#E8ECEF"/>
<path d="M21.375 15C22.2122 15 23.0412 15.1649 23.8146 15.4853C24.5881 15.8056 25.2908 16.2752 25.8828 16.8672C26.4748 17.4592 26.9444 18.1619 27.2647 18.9354C27.5851 19.7088 27.75 20.5378 27.75 21.375V27.75H21.375C19.6842 27.75 18.0627 27.0784 16.8672 25.8828C15.6717 24.6873 15 23.0658 15 21.375C15 19.6842 15.6717 18.0627 16.8672 16.8672C18.0627 15.6716 19.6842 15 21.375 15ZM24.75 24.75V21.375C24.75 20.7075 24.5521 20.055 24.1812 19.5C23.8104 18.9449 23.2833 18.5124 22.6666 18.2569C22.0499 18.0015 21.3713 17.9346 20.7166 18.0648C20.0619 18.1951 19.4605 18.5165 18.9885 18.9885C18.5165 19.4605 18.1951 20.0619 18.0649 20.7166C17.9346 21.3713 18.0015 22.0499 18.2569 22.6666C18.5124 23.2833 18.9449 23.8104 19.5 24.1812C20.055 24.5521 20.7075 24.75 21.375 24.75H24.75ZM21.375 30.75H27.75V37.125C27.75 38.3859 27.3761 39.6184 26.6756 40.6668C25.9751 41.7151 24.9795 42.5322 23.8146 43.0147C22.6497 43.4972 21.3679 43.6235 20.1313 43.3775C18.8947 43.1315 17.7588 42.5244 16.8672 41.6328C15.9756 40.7412 15.3685 39.6053 15.1225 38.3687C14.8765 37.1321 15.0028 35.8503 15.4853 34.6854C15.9678 33.5205 16.7849 32.5249 17.8332 31.8244C18.8816 31.1239 20.1141 30.75 21.375 30.75ZM21.375 33.75C20.7075 33.75 20.055 33.9479 19.5 34.3188C18.9449 34.6896 18.5124 35.2167 18.2569 35.8334C18.0015 36.4501 17.9346 37.1287 18.0649 37.7834C18.1951 38.4381 18.5165 39.0395 18.9885 39.5115C19.4605 39.9835 20.0619 40.3049 20.7166 40.4352C21.3713 40.5654 22.0499 40.4985 22.6666 40.2431C23.2833 39.9876 23.8104 39.5551 24.1812 39C24.5521 38.445 24.75 37.7925 24.75 37.125V33.75H21.375ZM37.125 15C38.8158 15 40.4373 15.6716 41.6328 16.8672C42.8284 18.0627 43.5 19.6842 43.5 21.375C43.5 23.0658 42.8284 24.6873 41.6328 25.8828C40.4373 27.0784 38.8158 27.75 37.125 27.75H30.75V21.375C30.75 19.6842 31.4217 18.0627 32.6172 16.8672C33.8127 15.6716 35.4342 15 37.125 15ZM37.125 24.75C37.7925 24.75 38.445 24.5521 39.0001 24.1812C39.5551 23.8104 39.9877 23.2833 40.2431 22.6666C40.4985 22.0499 40.5654 21.3713 40.4352 20.7166C40.3049 20.0619 39.9835 19.4605 39.5115 18.9885C39.0395 18.5165 38.4381 18.1951 37.7834 18.0648C37.1287 17.9346 36.4501 18.0015 35.8334 18.2569C35.2167 18.5124 34.6896 18.9449 34.3188 19.5C33.9479 20.055 33.75 20.7075 33.75 21.375V24.75H37.125ZM30.75 30.75H37.125C38.3859 30.75 39.6184 31.1239 40.6668 31.8244C41.7151 32.5249 42.5322 33.5205 43.0147 34.6854C43.4972 35.8503 43.6235 37.1321 43.3775 38.3687C43.1315 39.6053 42.5244 40.7412 41.6328 41.6328C40.7412 42.5244 39.6053 43.1315 38.3687 43.3775C37.1321 43.6235 35.8503 43.4972 34.6854 43.0147C33.5205 42.5322 32.5249 41.7151 31.8244 40.6668C31.1239 39.6184 30.75 38.3859 30.75 37.125V30.75ZM33.75 33.75V37.125C33.75 37.7925 33.9479 38.445 34.3188 39C34.6896 39.5551 35.2167 39.9876 35.8334 40.2431C36.4501 40.4985 37.1287 40.5654 37.7834 40.4352C38.4381 40.3049 39.0395 39.9835 39.5115 39.5115C39.9835 39.0395 40.3049 38.4381 40.4352 37.7834C40.5654 37.1287 40.4985 36.4501 40.2431 35.8334C39.9877 35.2167 39.5551 34.6896 39.0001 34.3188C38.445 33.9479 37.7925 33.75 37.125 33.75H33.75Z" fill="url(#paint0_linear_1157_5)"/>
<defs>
<linearGradient id="paint0_linear_1157_5" x1="29.25" y1="15" x2="29.25" y2="43.5" gradientUnits="userSpaceOnUse">
<stop stop-color="#EFBAD3"/>
<stop offset="1" stop-color="#D171FF"/>
</linearGradient>
</defs>
</svg>
