<svg width="57" height="57" viewBox="0 0 57 57" fill="none" xmlns="http://www.w3.org/2000/svg">
<rect width="57" height="57" rx="10" fill="#1B1F28"/>
<path d="M20.375 15C21.2122 15 22.0412 15.1649 22.8146 15.4853C23.5881 15.8056 24.2908 16.2752 24.8828 16.8672C25.4748 17.4592 25.9444 18.1619 26.2647 18.9354C26.5851 19.7088 26.75 20.5378 26.75 21.375V27.75H20.375C18.6842 27.75 17.0627 27.0784 15.8672 25.8828C14.6717 24.6873 14 23.0658 14 21.375C14 19.6842 14.6717 18.0627 15.8672 16.8672C17.0627 15.6716 18.6842 15 20.375 15ZM23.75 24.75V21.375C23.75 20.7075 23.5521 20.055 23.1812 19.5C22.8104 18.9449 22.2833 18.5124 21.6666 18.2569C21.0499 18.0015 20.3713 17.9346 19.7166 18.0648C19.0619 18.1951 18.4605 18.5165 17.9885 18.9885C17.5165 19.4605 17.1951 20.0619 17.0649 20.7166C16.9346 21.3713 17.0015 22.0499 17.2569 22.6666C17.5124 23.2833 17.9449 23.8104 18.5 24.1812C19.055 24.5521 19.7075 24.75 20.375 24.75H23.75ZM20.375 30.75H26.75V37.125C26.75 38.3859 26.3761 39.6184 25.6756 40.6668C24.9751 41.7151 23.9795 42.5322 22.8146 43.0147C21.6497 43.4972 20.3679 43.6235 19.1313 43.3775C17.8947 43.1315 16.7588 42.5244 15.8672 41.6328C14.9756 40.7412 14.3685 39.6053 14.1225 38.3687C13.8765 37.1321 14.0028 35.8503 14.4853 34.6854C14.9678 33.5205 15.7849 32.5249 16.8332 31.8244C17.8816 31.1239 19.1141 30.75 20.375 30.75ZM20.375 33.75C19.7075 33.75 19.055 33.9479 18.5 34.3188C17.9449 34.6896 17.5124 35.2167 17.2569 35.8334C17.0015 36.4501 16.9346 37.1287 17.0649 37.7834C17.1951 38.4381 17.5165 39.0395 17.9885 39.5115C18.4605 39.9835 19.0619 40.3049 19.7166 40.4352C20.3713 40.5654 21.0499 40.4985 21.6666 40.2431C22.2833 39.9876 22.8104 39.5551 23.1812 39C23.5521 38.445 23.75 37.7925 23.75 37.125V33.75H20.375ZM36.125 15C37.8158 15 39.4373 15.6716 40.6328 16.8672C41.8284 18.0627 42.5 19.6842 42.5 21.375C42.5 23.0658 41.8284 24.6873 40.6328 25.8828C39.4373 27.0784 37.8158 27.75 36.125 27.75H29.75V21.375C29.75 19.6842 30.4217 18.0627 31.6172 16.8672C32.8127 15.6716 34.4342 15 36.125 15ZM36.125 24.75C36.7925 24.75 37.445 24.5521 38.0001 24.1812C38.5551 23.8104 38.9877 23.2833 39.2431 22.6666C39.4985 22.0499 39.5654 21.3713 39.4352 20.7166C39.3049 20.0619 38.9835 19.4605 38.5115 18.9885C38.0395 18.5165 37.4381 18.1951 36.7834 18.0648C36.1287 17.9346 35.4501 18.0015 34.8334 18.2569C34.2167 18.5124 33.6896 18.9449 33.3188 19.5C32.9479 20.055 32.75 20.7075 32.75 21.375V24.75H36.125ZM29.75 30.75H36.125C37.3859 30.75 38.6184 31.1239 39.6668 31.8244C40.7151 32.5249 41.5322 33.5205 42.0147 34.6854C42.4972 35.8503 42.6235 37.1321 42.3775 38.3687C42.1315 39.6053 41.5244 40.7412 40.6328 41.6328C39.7412 42.5244 38.6053 43.1315 37.3687 43.3775C36.1321 43.6235 34.8503 43.4972 33.6854 43.0147C32.5205 42.5322 31.5249 41.7151 30.8244 40.6668C30.1239 39.6184 29.75 38.3859 29.75 37.125V30.75ZM32.75 33.75V37.125C32.75 37.7925 32.9479 38.445 33.3188 39C33.6896 39.5551 34.2167 39.9876 34.8334 40.2431C35.4501 40.4985 36.1287 40.5654 36.7834 40.4352C37.4381 40.3049 38.0395 39.9835 38.5115 39.5115C38.9835 39.0395 39.3049 38.4381 39.4352 37.7834C39.5654 37.1287 39.4985 36.4501 39.2431 35.8334C38.9877 35.2167 38.5551 34.6896 38.0001 34.3188C37.445 33.9479 36.7925 33.75 36.125 33.75H32.75Z" fill="url(#paint0_linear_452_5)"/>
<defs>
<linearGradient id="paint0_linear_452_5" x1="28.25" y1="15" x2="28.25" y2="43.5" gradientUnits="userSpaceOnUse">
<stop stop-color="#EFBAD3"/>
<stop offset="1" stop-color="#D171FF"/>
</linearGradient>
</defs>
</svg>
