<svg width="56" height="57" viewBox="0 0 56 57" fill="none" xmlns="http://www.w3.org/2000/svg">
<path d="M0 10C0 4.47715 4.47715 0 10 0H46C51.5229 0 56 4.47715 56 10V47C56 52.5228 51.5228 57 46 57H10C4.47715 57 0 52.5228 0 47V10Z" fill="#1B1F28"/>
<path d="M25.5434 32.5V35.5C23.1983 35.5 20.9493 36.4482 19.2911 38.136C17.6329 39.8239 16.7013 42.1131 16.7013 44.5H13.7539C13.7539 41.3174 14.996 38.2652 17.207 36.0147C19.4179 33.7643 22.4166 32.5 25.5434 32.5ZM25.5434 31C20.6581 31 16.7013 26.9725 16.7013 22C16.7013 17.0275 20.6581 13 25.5434 13C30.4286 13 34.3855 17.0275 34.3855 22C34.3855 26.9725 30.4286 31 25.5434 31ZM25.5434 28C28.8002 28 31.4381 25.315 31.4381 22C31.4381 18.685 28.8002 16 25.5434 16C22.2865 16 19.6486 18.685 19.6486 22C19.6486 25.315 22.2865 28 25.5434 28ZM39.4638 41.548L41.6802 43.804L39.5964 45.925L37.38 43.669C36.1441 44.4107 34.6848 44.6682 33.2757 44.3932C31.8667 44.1181 30.6045 43.3294 29.7259 42.1749C28.8473 41.0204 28.4125 39.5793 28.503 38.1218C28.5936 36.6644 29.2033 35.2905 30.2178 34.2579C31.2323 33.2253 32.5821 32.6047 34.014 32.5125C35.4458 32.4203 36.8616 32.8629 37.9959 33.7572C39.1301 34.6515 39.905 35.9362 40.1752 37.3704C40.4455 38.8047 40.1925 40.29 39.4638 41.548ZM34.3855 41.5C35.1672 41.5 35.9168 41.1839 36.4696 40.6213C37.0223 40.0587 37.3329 39.2957 37.3329 38.5C37.3329 37.7044 37.0223 36.9413 36.4696 36.3787C35.9168 35.8161 35.1672 35.5 34.3855 35.5C33.6038 35.5 32.8541 35.8161 32.3014 36.3787C31.7486 36.9413 31.4381 37.7044 31.4381 38.5C31.4381 39.2957 31.7486 40.0587 32.3014 40.6213C32.8541 41.1839 33.6038 41.5 34.3855 41.5Z" fill="url(#paint0_linear_432_3)"/>
<defs>
<linearGradient id="paint0_linear_432_3" x1="27.7171" y1="13" x2="27.7171" y2="45.925" gradientUnits="userSpaceOnUse">
<stop stop-color="#EFBAD3"/>
<stop offset="1" stop-color="#A163F5"/>
</linearGradient>
</defs>
</svg>
