<svg width="57" height="57" viewBox="0 0 57 57" fill="none" xmlns="http://www.w3.org/2000/svg">
<rect x="0.5" y="0.5" width="56" height="56" rx="9.5" fill="white" stroke="#E8ECEF"/>
<path d="M27 32.5V35.5C24.6131 35.5 22.3239 36.4482 20.636 38.136C18.9482 39.8239 18 42.1131 18 44.5H15C15 41.3174 16.2643 38.2652 18.5147 36.0147C20.7652 33.7643 23.8174 32.5 27 32.5ZM27 31C22.0275 31 18 26.9725 18 22C18 17.0275 22.0275 13 27 13C31.9725 13 36 17.0275 36 22C36 26.9725 31.9725 31 27 31ZM27 28C30.315 28 33 25.315 33 22C33 18.685 30.315 16 27 16C23.685 16 21 18.685 21 22C21 25.315 23.685 28 27 28ZM41.169 41.548L43.425 43.804L41.304 45.925L39.048 43.669C37.79 44.4107 36.3047 44.6682 34.8704 44.3932C33.4362 44.1181 32.1515 43.3294 31.2572 42.1749C30.3629 41.0204 29.9203 39.5793 30.0125 38.1218C30.1047 36.6644 30.7253 35.2905 31.7579 34.2579C32.7905 33.2253 34.1644 32.6047 35.6218 32.5125C37.0793 32.4203 38.5204 32.8629 39.6749 33.7572C40.8294 34.6515 41.6181 35.9362 41.8932 37.3704C42.1682 38.8047 41.9107 40.29 41.169 41.548ZM36 41.5C36.7957 41.5 37.5587 41.1839 38.1213 40.6213C38.6839 40.0587 39 39.2957 39 38.5C39 37.7044 38.6839 36.9413 38.1213 36.3787C37.5587 35.8161 36.7957 35.5 36 35.5C35.2043 35.5 34.4413 35.8161 33.8787 36.3787C33.3161 36.9413 33 37.7044 33 38.5C33 39.2957 33.3161 40.0587 33.8787 40.6213C34.4413 41.1839 35.2043 41.5 36 41.5Z" fill="url(#paint0_linear_1157_4)"/>
<defs>
<linearGradient id="paint0_linear_1157_4" x1="29.2125" y1="13" x2="29.2125" y2="45.925" gradientUnits="userSpaceOnUse">
<stop stop-color="#EFBAD3"/>
<stop offset="1" stop-color="#A163F5"/>
</linearGradient>
</defs>
</svg>
