<svg width="189" height="15" viewBox="0 0 189 15" fill="none" xmlns="http://www.w3.org/2000/svg">
<path d="M0.291193 14V0.909091H2.66264V6.45099H8.72869V0.909091H11.1065V14H8.72869V8.43892H2.66264V14H0.291193ZM25.3832 7.45455C25.3832 8.86506 25.119 10.0732 24.5906 11.0788C24.0664 12.0803 23.3505 12.8473 22.4428 13.38C21.5394 13.9126 20.5146 14.179 19.3683 14.179C18.2219 14.179 17.195 13.9126 16.2873 13.38C15.3839 12.843 14.668 12.0739 14.1396 11.0724C13.6154 10.0668 13.3533 8.8608 13.3533 7.45455C13.3533 6.04403 13.6154 4.83807 14.1396 3.83665C14.668 2.83097 15.3839 2.06179 16.2873 1.52912C17.195 0.996448 18.2219 0.730113 19.3683 0.730113C20.5146 0.730113 21.5394 0.996448 22.4428 1.52912C23.3505 2.06179 24.0664 2.83097 24.5906 3.83665C25.119 4.83807 25.3832 6.04403 25.3832 7.45455ZM22.9989 7.45455C22.9989 6.46165 22.8434 5.62429 22.5323 4.94247C22.2255 4.25639 21.7994 3.73864 21.2539 3.3892C20.7085 3.03551 20.0799 2.85866 19.3683 2.85866C18.6566 2.85866 18.0281 3.03551 17.4826 3.3892C16.9371 3.73864 16.5089 4.25639 16.1978 4.94247C15.891 5.62429 15.7376 6.46165 15.7376 7.45455C15.7376 8.44744 15.891 9.28693 16.1978 9.97301C16.5089 10.6548 16.9371 11.1726 17.4826 11.5263C18.0281 11.8757 18.6566 12.0504 19.3683 12.0504C20.0799 12.0504 20.7085 11.8757 21.2539 11.5263C21.7994 11.1726 22.2255 10.6548 22.5323 9.97301C22.8434 9.28693 22.9989 8.44744 22.9989 7.45455ZM30.0462 14L26.3516 0.909091H28.902L31.2607 10.5291H31.3821L33.9006 0.909091H36.2209L38.7457 10.5355H38.8608L41.2195 0.909091H43.7699L40.0753 14H37.7358L35.1151 4.81463H35.0128L32.3857 14H30.0462ZM54.3152 14H49.8791V0.909091H54.4047C55.7044 0.909091 56.8208 1.17116 57.7541 1.69531C58.6916 2.2152 59.4118 2.96307 59.9146 3.93892C60.4174 4.91477 60.6689 6.08239 60.6689 7.44176C60.6689 8.8054 60.4153 9.97727 59.9082 10.9574C59.4054 11.9375 58.6788 12.6896 57.7285 13.2138C56.7825 13.7379 55.6447 14 54.3152 14ZM52.2505 11.9482H54.2001C55.112 11.9482 55.8727 11.782 56.4821 11.4496C57.0914 11.1129 57.5495 10.6122 57.8564 9.94744C58.1632 9.27841 58.3166 8.44318 58.3166 7.44176C58.3166 6.44034 58.1632 5.60937 57.8564 4.94886C57.5495 4.28409 57.0957 3.78764 56.4949 3.45952C55.8983 3.12713 55.1568 2.96094 54.2704 2.96094H52.2505V11.9482ZM74.6195 7.45455C74.6195 8.86506 74.3553 10.0732 73.8269 11.0788C73.3027 12.0803 72.5868 12.8473 71.6792 13.38C70.7757 13.9126 69.7509 14.179 68.6046 14.179C67.4583 14.179 66.4313 13.9126 65.5236 13.38C64.6202 12.843 63.9043 12.0739 63.3759 11.0724C62.8517 10.0668 62.5897 8.8608 62.5897 7.45455C62.5897 6.04403 62.8517 4.83807 63.3759 3.83665C63.9043 2.83097 64.6202 2.06179 65.5236 1.52912C66.4313 0.996448 67.4583 0.730113 68.6046 0.730113C69.7509 0.730113 70.7757 0.996448 71.6792 1.52912C72.5868 2.06179 73.3027 2.83097 73.8269 3.83665C74.3553 4.83807 74.6195 6.04403 74.6195 7.45455ZM72.2353 7.45455C72.2353 6.46165 72.0797 5.62429 71.7686 4.94247C71.4618 4.25639 71.0357 3.73864 70.4902 3.3892C69.9448 3.03551 69.3162 2.85866 68.6046 2.85866C67.8929 2.85866 67.2644 3.03551 66.7189 3.3892C66.1735 3.73864 65.7452 4.25639 65.4341 4.94247C65.1273 5.62429 64.9739 6.46165 64.9739 7.45455C64.9739 8.44744 65.1273 9.28693 65.4341 9.97301C65.7452 10.6548 66.1735 11.1726 66.7189 11.5263C67.2644 11.8757 67.8929 12.0504 68.6046 12.0504C69.3162 12.0504 69.9448 11.8757 70.4902 11.5263C71.0357 11.1726 71.4618 10.6548 71.7686 9.97301C72.0797 9.28693 72.2353 8.44744 72.2353 7.45455ZM76.8615 14V0.909091H85.3757V2.89702H79.233V6.45099H84.9347V8.43892H79.233V12.0121H85.4268V14H76.8615ZM94.9094 4.50781C94.8498 3.94957 94.5984 3.51491 94.1552 3.20384C93.7163 2.89276 93.1452 2.73722 92.4421 2.73722C91.9478 2.73722 91.5238 2.81179 91.1701 2.96094C90.8164 3.11008 90.5458 3.3125 90.3583 3.56818C90.1708 3.82386 90.0749 4.11577 90.0707 4.44389C90.0707 4.71662 90.1325 4.95312 90.256 5.15341C90.3839 5.35369 90.5565 5.52415 90.7738 5.66477C90.9911 5.80114 91.2319 5.91619 91.4961 6.00994C91.7603 6.10369 92.0266 6.18253 92.2951 6.24645L93.5224 6.55327C94.0167 6.66832 94.4918 6.82386 94.9478 7.01989C95.408 7.21591 95.8192 7.46307 96.1815 7.76136C96.5479 8.05966 96.8377 8.41974 97.0508 8.84162C97.2638 9.26349 97.3704 9.75781 97.3704 10.3246C97.3704 11.0916 97.1744 11.767 96.7823 12.3509C96.3903 12.9304 95.8235 13.3842 95.082 13.7124C94.3448 14.0362 93.4521 14.1982 92.4038 14.1982C91.3853 14.1982 90.5011 14.0405 89.7511 13.7251C89.0053 13.4098 88.4215 12.9496 87.9996 12.3445C87.582 11.7393 87.3562 11.0021 87.3221 10.1328H89.6552C89.6893 10.5888 89.8299 10.968 90.0771 11.2706C90.3242 11.5732 90.646 11.799 91.0423 11.9482C91.4428 12.0973 91.8903 12.1719 92.3846 12.1719C92.9002 12.1719 93.3519 12.0952 93.7397 11.9418C94.1317 11.7841 94.4386 11.5668 94.6602 11.2898C94.8817 11.0085 94.9947 10.6804 94.9989 10.3054C94.9947 9.96449 94.8945 9.68324 94.6985 9.46165C94.5025 9.2358 94.2276 9.0483 93.8739 8.89915C93.5245 8.74574 93.1154 8.60937 92.6467 8.49006L91.1573 8.10653C90.0792 7.82955 89.2269 7.4098 88.6005 6.8473C87.9783 6.28054 87.6673 5.52841 87.6673 4.59091C87.6673 3.8196 87.8761 3.14418 88.2937 2.56463C88.7156 1.98509 89.2887 1.53551 90.0131 1.21591C90.7376 0.892045 91.5579 0.730113 92.4741 0.730113C93.4031 0.730113 94.217 0.892045 94.9158 1.21591C95.619 1.53551 96.1708 1.98082 96.5714 2.55185C96.9719 3.11861 97.1786 3.7706 97.1914 4.50781H94.9094ZM106.321 0.909091V14H103.949V0.909091H106.321ZM108.314 2.89702V0.909091H118.758V2.89702H114.712V14H112.36V2.89702H108.314Z" fill="#868686"/>
<path d="M127.991 14L124.297 0.909091H126.847L129.206 10.5291H129.327L131.846 0.909091H134.166L136.691 10.5355H136.806L139.165 0.909091H141.715L138.021 14H135.681L133.06 4.81463H132.958L130.331 14H127.991ZM154.354 7.45455C154.354 8.86506 154.09 10.0732 153.561 11.0788C153.037 12.0803 152.321 12.8473 151.414 13.38C150.51 13.9126 149.485 14.179 148.339 14.179C147.193 14.179 146.166 13.9126 145.258 13.38C144.355 12.843 143.639 12.0739 143.11 11.0724C142.586 10.0668 142.324 8.8608 142.324 7.45455C142.324 6.04403 142.586 4.83807 143.11 3.83665C143.639 2.83097 144.355 2.06179 145.258 1.52912C146.166 0.996448 147.193 0.730113 148.339 0.730113C149.485 0.730113 150.51 0.996448 151.414 1.52912C152.321 2.06179 153.037 2.83097 153.561 3.83665C154.09 4.83807 154.354 6.04403 154.354 7.45455ZM151.97 7.45455C151.97 6.46165 151.814 5.62429 151.503 4.94247C151.196 4.25639 150.77 3.73864 150.225 3.3892C149.679 3.03551 149.051 2.85866 148.339 2.85866C147.627 2.85866 146.999 3.03551 146.453 3.3892C145.908 3.73864 145.48 4.25639 145.169 4.94247C144.862 5.62429 144.708 6.46165 144.708 7.45455C144.708 8.44744 144.862 9.28693 145.169 9.97301C145.48 10.6548 145.908 11.1726 146.453 11.5263C146.999 11.8757 147.627 12.0504 148.339 12.0504C149.051 12.0504 149.679 11.8757 150.225 11.5263C150.77 11.1726 151.196 10.6548 151.503 9.97301C151.814 9.28693 151.97 8.44744 151.97 7.45455ZM156.596 14V0.909091H161.505C162.511 0.909091 163.354 1.08381 164.036 1.43324C164.722 1.78267 165.24 2.27273 165.589 2.90341C165.943 3.52983 166.12 4.26065 166.12 5.09588C166.12 5.93537 165.941 6.66406 165.583 7.28196C165.229 7.8956 164.707 8.37074 164.017 8.70739C163.327 9.03977 162.479 9.20597 161.473 9.20597H157.977V7.23722H161.153C161.741 7.23722 162.223 7.15625 162.598 6.99432C162.973 6.82812 163.25 6.58736 163.429 6.27202C163.612 5.95241 163.704 5.56037 163.704 5.09588C163.704 4.63139 163.612 4.23509 163.429 3.90696C163.246 3.57457 162.967 3.32315 162.592 3.1527C162.217 2.97798 161.733 2.89062 161.141 2.89062H158.967V14H156.596ZM163.359 8.06818L166.599 14H163.953L160.77 8.06818H163.359ZM168.303 14V0.909091H170.674V6.92401H170.834L175.941 0.909091H178.837L173.775 6.78338L178.882 14H176.031L172.125 8.38778L170.674 10.1009V14H168.303ZM182.594 10.152V9.9858C182.598 9.21449 182.671 8.60085 182.811 8.14489C182.956 7.68892 183.161 7.32244 183.425 7.04545C183.689 6.7642 184.011 6.50639 184.39 6.27202C184.65 6.11008 184.882 5.93324 185.087 5.74148C185.296 5.54545 185.46 5.32812 185.579 5.08949C185.698 4.84659 185.758 4.57599 185.758 4.2777C185.758 3.94105 185.679 3.64915 185.521 3.40199C185.364 3.15483 185.151 2.96307 184.882 2.8267C184.618 2.69034 184.322 2.62216 183.994 2.62216C183.691 2.62216 183.404 2.68821 183.131 2.82031C182.862 2.94815 182.639 3.14418 182.46 3.40838C182.285 3.66832 182.187 3.99858 182.166 4.39915H179.89C179.911 3.58949 180.107 2.91193 180.478 2.36648C180.853 1.82102 181.347 1.41193 181.961 1.1392C182.579 0.866477 183.261 0.730113 184.007 0.730113C184.82 0.730113 185.536 0.872869 186.154 1.15838C186.776 1.44389 187.26 1.85085 187.605 2.37926C187.955 2.90341 188.129 3.52557 188.129 4.24574C188.129 4.73153 188.051 5.16619 187.893 5.54972C187.74 5.93324 187.52 6.27415 187.235 6.57244C186.949 6.87074 186.61 7.13707 186.218 7.37145C185.873 7.58452 185.59 7.80611 185.368 8.03622C185.151 8.26633 184.989 8.53693 184.882 8.84801C184.78 9.15483 184.727 9.53409 184.722 9.9858V10.152H182.594ZM183.706 14.1406C183.323 14.1406 182.992 14.0043 182.715 13.7315C182.438 13.4588 182.3 13.1264 182.3 12.7344C182.3 12.3509 182.438 12.0227 182.715 11.75C182.992 11.4773 183.323 11.3409 183.706 11.3409C184.085 11.3409 184.414 11.4773 184.691 11.75C184.972 12.0227 185.112 12.3509 185.112 12.7344C185.112 12.9943 185.046 13.2308 184.914 13.4439C184.786 13.657 184.616 13.8274 184.403 13.9553C184.194 14.0788 183.962 14.1406 183.706 14.1406Z" fill="#D171FF"/>
</svg>
