<svg width="57" height="57" viewBox="0 0 57 57" fill="none" xmlns="http://www.w3.org/2000/svg">
<rect width="57" height="57" rx="10" fill="#1B1F28"/>
<path d="M29 44C20.7155 44 14 37.2845 14 29C14 20.7155 20.7155 14 29 14C37.2845 14 44 20.7155 44 29C44 37.2845 37.2845 44 29 44ZM29 41C32.1826 41 35.2348 39.7357 37.4853 37.4853C39.7357 35.2348 41 32.1826 41 29C41 25.8174 39.7357 22.7652 37.4853 20.5147C35.2348 18.2643 32.1826 17 29 17C25.8174 17 22.7652 18.2643 20.5147 20.5147C18.2643 22.7652 17 25.8174 17 29C17 32.1826 18.2643 35.2348 20.5147 37.4853C22.7652 39.7357 25.8174 41 29 41ZM23.75 32H32C32.1989 32 32.3897 31.921 32.5303 31.7803C32.671 31.6397 32.75 31.4489 32.75 31.25C32.75 31.0511 32.671 30.8603 32.5303 30.7197C32.3897 30.579 32.1989 30.5 32 30.5H26C25.0054 30.5 24.0516 30.1049 23.3483 29.4017C22.6451 28.6984 22.25 27.7446 22.25 26.75C22.25 25.7554 22.6451 24.8016 23.3483 24.0983C24.0516 23.3951 25.0054 23 26 23H27.5V20H30.5V23H34.25V26H26C25.8011 26 25.6103 26.079 25.4697 26.2197C25.329 26.3603 25.25 26.5511 25.25 26.75C25.25 26.9489 25.329 27.1397 25.4697 27.2803C25.6103 27.421 25.8011 27.5 26 27.5H32C32.9946 27.5 33.9484 27.8951 34.6516 28.5983C35.3549 29.3016 35.75 30.2554 35.75 31.25C35.75 32.2446 35.3549 33.1984 34.6516 33.9016C33.9484 34.6049 32.9946 35 32 35H30.5V38H27.5V35H23.75V32Z" fill="url(#paint0_linear_300_164)"/>
<defs>
<linearGradient id="paint0_linear_300_164" x1="29" y1="14" x2="29" y2="44" gradientUnits="userSpaceOnUse">
<stop stop-color="#EFBAD3"/>
<stop offset="1" stop-color="#D171FF"/>
</linearGradient>
</defs>
</svg>
