<svg width="57" height="57" viewBox="0 0 57 57" fill="none" xmlns="http://www.w3.org/2000/svg">
<rect x="0.5" y="0.5" width="56" height="56" rx="9.5" fill="white" stroke="#E8ECEF"/>
<path d="M27.5 34.5H24.25V32.5H32C32.3315 32.5 32.6495 32.3683 32.8839 32.1339C33.1183 31.8995 33.25 31.5815 33.25 31.25C33.25 30.9185 33.1183 30.6005 32.8839 30.3661C32.6495 30.1317 32.3315 30 32 30H26C25.138 30 24.3114 29.6576 23.7019 29.0481C23.0924 28.4386 22.75 27.612 22.75 26.75C22.75 25.888 23.0924 25.0614 23.7019 24.4519C24.3114 23.8424 25.138 23.5 26 23.5H27.5H28V23V20.5H30V23V23.5H30.5H33.75V25.5H26C25.6685 25.5 25.3505 25.6317 25.1161 25.8661C24.8817 26.1005 24.75 26.4185 24.75 26.75C24.75 27.0815 24.8817 27.3995 25.1161 27.6339C25.3505 27.8683 25.6685 28 26 28H32C32.862 28 33.6886 28.3424 34.2981 28.9519C34.9076 29.5614 35.25 30.388 35.25 31.25C35.25 32.112 34.9076 32.9386 34.2981 33.5481C33.6886 34.1576 32.862 34.5 32 34.5H30.5H30V35V37.5H28V35V34.5H27.5ZM29 43.5C20.9916 43.5 14.5 37.0084 14.5 29C14.5 20.9916 20.9916 14.5 29 14.5C37.0084 14.5 43.5 20.9916 43.5 29C43.5 37.0084 37.0084 43.5 29 43.5ZM29 41.5C32.3152 41.5 35.4946 40.183 37.8388 37.8388C40.183 35.4946 41.5 32.3152 41.5 29C41.5 25.6848 40.183 22.5054 37.8388 20.1612C35.4946 17.817 32.3152 16.5 29 16.5C25.6848 16.5 22.5054 17.817 20.1612 20.1612C17.817 22.5054 16.5 25.6848 16.5 29C16.5 32.3152 17.817 35.4946 20.1612 37.8388C22.5054 40.183 25.6848 41.5 29 41.5Z" fill="url(#paint0_linear_385_381)" stroke="#E8ECEF"/>
<defs>
<linearGradient id="paint0_linear_385_381" x1="29" y1="14" x2="29" y2="44" gradientUnits="userSpaceOnUse">
<stop stop-color="#EFBAD3"/>
<stop offset="1" stop-color="#D171FF"/>
</linearGradient>
</defs>
</svg>
